<svg width="24" height="25" viewBox="0 0 24 25" fill="none" xmlns="http://www.w3.org/2000/svg">
<path fill-rule="evenodd" clip-rule="evenodd" d="M9.97443 0.564482C5.64186 1.53706 2.28699 4.42161 0.725417 8.5171C-0.163619 10.8484 -0.19789 11.2234 0.417708 11.877C0.914357 12.404 1.20212 12.507 2.05652 12.4629C2.2868 12.4511 3.13395 11.8186 4.06379 10.9643C7.89464 7.44532 11.0412 6.25311 13.7975 7.27671C16.4996 8.27998 18.1275 11.2766 17.5241 14.1363C17.2535 15.419 16.5741 16.1905 15.076 16.9161C14.134 17.3725 13.7065 17.4726 12.689 17.475C10.3657 17.4801 9.06436 16.7259 6.87523 14.106C5.51856 12.4822 3.77222 12.1997 2.54646 13.4059C1.49532 14.4402 1.52379 16.0608 2.63259 18.3132C5.89372 24.9376 14.445 26.4078 20.0037 21.2996C22.1798 19.3 23.2737 17.0976 23.6946 13.8698C24.0761 10.9424 24.0879 10.405 23.7986 9.05237C22.9856 5.24823 20.1734 2.23219 16.1232 0.820697C14.7531 0.34324 11.554 0.20978 9.97443 0.564482Z" fill="#30C330"/>
</svg>
