<svg width="318" height="66" viewBox="0 0 318 66" fill="none" xmlns="http://www.w3.org/2000/svg">
<path d="M64.9 6.71878C64.8177 6.04643 64.4783 5.5256 63.8817 5.15628C63.2851 4.78223 62.5343 4.5952 61.6292 4.5952C60.9812 4.5952 60.4206 4.6899 59.9475 4.87929C59.4743 5.06395 59.1066 5.31963 58.8443 5.64633C58.5872 5.9683 58.4586 6.33526 58.4586 6.74719C58.4586 7.09283 58.546 7.39113 58.7209 7.64207C58.9009 7.89302 59.1349 8.10372 59.4229 8.27418C59.716 8.4399 60.0297 8.57957 60.364 8.69321C60.6983 8.80211 61.0197 8.89207 61.3283 8.9631L62.8712 9.33241C63.3751 9.44605 63.892 9.59993 64.4217 9.79406C64.9514 9.98819 65.4426 10.2439 65.8951 10.5611C66.3477 10.8783 66.7128 11.2713 66.9905 11.7401C67.2734 12.2088 67.4148 12.7699 67.4148 13.4233C67.4148 14.2472 67.1834 14.9787 66.7206 15.6179C66.2628 16.2571 65.5968 16.7614 64.7226 17.1307C63.8534 17.5 62.8017 17.6847 61.5674 17.6847C60.3846 17.6847 59.3612 17.5119 58.4972 17.1662C57.6332 16.8206 56.9569 16.3305 56.4683 15.696C55.9798 15.0568 55.7098 14.2993 55.6583 13.4233H58.0498C58.096 13.9489 58.2812 14.3869 58.6052 14.7372C58.9343 15.0829 59.3535 15.3409 59.8626 15.5114C60.3769 15.6771 60.94 15.76 61.552 15.76C62.2257 15.76 62.8249 15.6629 63.3494 15.4688C63.8791 15.2699 64.2957 14.9953 64.5991 14.6449C64.9026 14.2898 65.0543 13.8755 65.0543 13.402C65.0543 12.9711 64.9206 12.6184 64.6531 12.3438C64.3909 12.0692 64.0334 11.8419 63.5809 11.662C63.1334 11.482 62.6269 11.3234 62.0612 11.1861L60.1943 10.7174C58.9292 10.4001 57.9263 9.93374 57.1858 9.31821C56.4503 8.70268 56.0826 7.88829 56.0826 6.87503C56.0826 6.03696 56.3295 5.30542 56.8232 4.68042C57.3169 4.05542 57.9855 3.5701 58.8289 3.22446C59.6723 2.87408 60.6237 2.69889 61.6832 2.69889C62.7529 2.69889 63.6966 2.87171 64.5143 3.21736C65.3371 3.563 65.9851 4.03885 66.4583 4.64491C66.9314 5.24624 67.1783 5.93753 67.1988 6.71878H64.9Z" fill="#0D3859"/>
<path d="M70.0782 17.4432V6.53412H72.3847V17.4432H70.0782ZM71.243 4.85088C70.8419 4.85088 70.4973 4.72777 70.2093 4.48156C69.9265 4.23061 69.785 3.93232 69.785 3.58667C69.785 3.2363 69.9265 2.938 70.2093 2.69179C70.4973 2.44084 70.8419 2.31537 71.243 2.31537C71.6442 2.31537 71.9861 2.44084 72.269 2.69179C72.557 2.938 72.701 3.2363 72.701 3.58667C72.701 3.93232 72.557 4.23061 72.269 4.48156C71.9861 4.72777 71.6442 4.85088 71.243 4.85088Z" fill="#0D3859"/>
<path d="M81.0189 6.53412V8.23866H74.5466V6.53412H81.0189ZM76.2823 3.92048H78.5889V14.2401C78.5889 14.652 78.6558 14.9621 78.7895 15.1705C78.9232 15.3741 79.0955 15.5138 79.3063 15.5895C79.5223 15.6605 79.7563 15.696 80.0083 15.696C80.1934 15.696 80.3554 15.6842 80.4943 15.6605C80.6332 15.6369 80.7412 15.6179 80.8183 15.6037L81.2349 17.358C81.1012 17.4053 80.9109 17.4527 80.664 17.5C80.4172 17.5521 80.1086 17.5805 79.7383 17.5853C79.1315 17.5947 78.5658 17.4953 78.0412 17.287C77.5166 17.0786 77.0923 16.7567 76.7683 16.321C76.4443 15.8854 76.2823 15.3386 76.2823 14.6804V3.92048Z" fill="#0D3859"/>
<path d="M88.5499 17.6634C87.3825 17.6634 86.377 17.4337 85.5336 16.9745C84.6953 16.5104 84.0474 15.8594 83.5896 15.0213C83.1371 14.1785 82.9108 13.1913 82.9108 12.0597C82.9108 10.9423 83.1371 9.95741 83.5896 9.10514C84.0474 8.25287 84.6851 7.58762 85.5028 7.1094C86.3256 6.63118 87.2873 6.39207 88.3879 6.39207C89.0564 6.39207 89.7044 6.49387 90.3319 6.69747C90.9593 6.90107 91.5224 7.22067 92.0213 7.65628C92.5201 8.09188 92.9136 8.6577 93.2016 9.35372C93.4896 10.045 93.6336 10.8854 93.6336 11.875V12.6279H84.2145V11.037H91.3733C91.3733 10.4782 91.2499 9.98346 91.003 9.55258C90.7562 9.11698 90.409 8.7737 89.9616 8.52275C89.5193 8.27181 88.9999 8.14633 88.4033 8.14633C87.7553 8.14633 87.1896 8.29312 86.7062 8.58668C86.2279 8.8755 85.8576 9.25429 85.5953 9.72304C85.3382 10.1871 85.2096 10.6913 85.2096 11.2358V12.4787C85.2096 13.2079 85.3485 13.8282 85.6262 14.3395C85.9091 14.8509 86.3025 15.2415 86.8065 15.5114C87.3105 15.7765 87.8993 15.9091 88.573 15.9091C89.0102 15.9091 89.4087 15.8523 89.7687 15.7387C90.1287 15.6203 90.4399 15.4451 90.7022 15.2131C90.9644 14.9811 91.165 14.6946 91.3039 14.3537L93.487 14.7159C93.3121 15.3078 92.9984 15.8263 92.5458 16.2713C92.0984 16.7117 91.5353 17.055 90.8564 17.3012C90.1827 17.5426 89.4139 17.6634 88.5499 17.6634Z" fill="#0D3859"/>
<path d="M106.933 17.6634C105.786 17.6634 104.799 17.4243 103.971 16.946C103.148 16.4631 102.515 15.7979 102.073 14.9503C101.631 14.1028 101.41 13.1321 101.41 12.0384C101.41 10.9304 101.636 9.95268 102.088 9.10514C102.541 8.25287 103.179 7.58762 104.001 7.1094C104.824 6.63118 105.794 6.39207 106.91 6.39207C107.81 6.39207 108.612 6.54596 109.317 6.85372C110.021 7.15675 110.589 7.58289 111.021 8.13213C111.459 8.68137 111.718 9.32294 111.801 10.0568H109.556C109.432 9.54548 109.149 9.10514 108.707 8.73582C108.27 8.3665 107.684 8.18185 106.948 8.18185C106.305 8.18185 105.742 8.3381 105.259 8.6506C104.781 8.95836 104.408 9.3987 104.14 9.97162C103.873 10.5398 103.739 11.2121 103.739 11.9887C103.739 12.7841 103.87 13.4707 104.133 14.0483C104.395 14.626 104.765 15.0734 105.243 15.3907C105.727 15.7079 106.295 15.8665 106.948 15.8665C107.385 15.8665 107.781 15.7931 108.136 15.6463C108.496 15.4948 108.797 15.2794 109.039 15C109.286 14.7207 109.458 14.3845 109.556 13.9915H111.801C111.718 14.697 111.469 15.3267 111.052 15.8807C110.636 16.4347 110.078 16.8703 109.378 17.1875C108.684 17.5048 107.869 17.6634 106.933 17.6634Z" fill="#0D3859"/>
<path d="M119.258 17.6634C118.147 17.6634 117.178 17.429 116.35 16.9603C115.522 16.4915 114.879 15.8357 114.421 14.9929C113.964 14.1501 113.735 13.1653 113.735 12.0384C113.735 10.9068 113.964 9.91717 114.421 9.06963C114.879 8.22209 115.522 7.56395 116.35 7.0952C117.178 6.62645 118.147 6.39207 119.258 6.39207C120.369 6.39207 121.339 6.62645 122.167 7.0952C122.995 7.56395 123.637 8.22209 124.095 9.06963C124.553 9.91717 124.782 10.9068 124.782 12.0384C124.782 13.1653 124.553 14.1501 124.095 14.9929C123.637 15.8357 122.995 16.4915 122.167 16.9603C121.339 17.429 120.369 17.6634 119.258 17.6634ZM119.266 15.8807C119.986 15.8807 120.583 15.7055 121.056 15.3551C121.529 15.0048 121.879 14.5384 122.105 13.956C122.336 13.3736 122.452 12.732 122.452 12.0313C122.452 11.3353 122.336 10.696 122.105 10.1137C121.879 9.52654 121.529 9.05543 121.056 8.70031C120.583 8.3452 119.986 8.16764 119.266 8.16764C118.541 8.16764 117.939 8.3452 117.461 8.70031C116.988 9.05543 116.635 9.52654 116.404 10.1137C116.178 10.696 116.065 11.3353 116.065 12.0313C116.065 12.732 116.178 13.3736 116.404 13.956C116.635 14.5384 116.988 15.0048 117.461 15.3551C117.939 15.7055 118.541 15.8807 119.266 15.8807Z" fill="#0D3859"/>
<path d="M127.356 17.4432V6.53412H129.57V8.30969H129.717C129.964 7.70836 130.367 7.23961 130.928 6.90344C131.489 6.56253 132.16 6.39207 132.941 6.39207C133.733 6.39207 134.397 6.56253 134.932 6.90344C135.472 7.24435 135.87 7.7131 136.127 8.30969H136.251C136.534 7.7273 136.984 7.26328 137.601 6.91764C138.218 6.56726 138.953 6.39207 139.807 6.39207C140.882 6.39207 141.759 6.70221 142.438 7.32247C143.122 7.94274 143.464 8.87787 143.464 10.1279V17.4432H141.157V10.3267C141.157 9.5881 140.938 9.05306 140.501 8.72162C140.064 8.39018 139.542 8.22446 138.935 8.22446C138.185 8.22446 137.601 8.43753 137.184 8.86366C136.768 9.28507 136.559 9.82721 136.559 10.4901V17.4432H134.261V10.1918C134.261 9.59993 134.06 9.12408 133.659 8.76423C133.258 8.40438 132.736 8.22446 132.093 8.22446C131.656 8.22446 131.252 8.33099 130.882 8.54406C130.517 8.75239 130.221 9.04359 129.995 9.41764C129.773 9.79169 129.663 10.2249 129.663 10.7174V17.4432H127.356Z" fill="#0D3859"/>
<path d="M6.24776 43.674C5.07776 43.674 4.01808 43.397 3.06872 42.8431C2.12604 42.2829 1.37725 41.4612 0.822337 40.3779C0.274113 39.2884 0 37.9527 0 36.3708C0 34.7458 0.284141 33.3947 0.852423 32.3175C1.4207 31.2342 2.17618 30.4247 3.11886 29.8892C4.06823 29.3476 5.10785 29.0767 6.23773 29.0767C7.10018 29.0767 7.81888 29.2121 8.39385 29.483C8.9755 29.7477 9.4435 30.08 9.79784 30.4801C10.1589 30.8741 10.433 31.2619 10.6202 31.6435H10.7505V24.5341H15.0127V43.4432H10.8007V41.1719H10.6202C10.4196 41.5658 10.1355 41.9567 9.76776 42.3445C9.40673 42.7261 8.93539 43.0431 8.35374 43.2955C7.77877 43.5479 7.07678 43.674 6.24776 43.674ZM7.6016 40.5441C8.29022 40.5441 8.87188 40.3717 9.34656 40.027C9.82793 39.6762 10.1956 39.1868 10.4497 38.559C10.7104 37.9311 10.8408 37.1956 10.8408 36.3523C10.8408 35.509 10.7138 34.7765 10.4597 34.1549C10.2057 33.5332 9.83796 33.0531 9.35659 32.7145C8.87522 32.376 8.29022 32.2067 7.6016 32.2067C6.89961 32.2067 6.30793 32.3821 5.82656 32.733C5.34519 33.0838 4.98082 33.5701 4.73345 34.1918C4.48608 34.8135 4.3624 35.5336 4.3624 36.3523C4.3624 37.1771 4.48608 37.9065 4.73345 38.5405C4.98751 39.1684 5.35187 39.6608 5.82656 40.0178C6.30793 40.3686 6.89961 40.5441 7.6016 40.5441Z" fill="#0D3859"/>
<path d="M25.5451 43.7202C23.9606 43.7202 22.5967 43.4247 21.4535 42.8338C20.3169 42.2368 19.4411 41.3935 18.826 40.304C18.2109 39.2084 17.9034 37.9127 17.9034 36.4169C17.9034 34.9581 18.2109 33.6778 18.826 32.576C19.4411 31.4742 20.3069 30.6156 21.4234 30C22.5466 29.3845 23.8636 29.0767 25.3746 29.0767C26.3908 29.0767 27.3368 29.2275 28.2127 29.5291C29.0952 29.8246 29.864 30.2709 30.5192 30.8679C31.1811 31.465 31.6959 32.2159 32.0636 33.1208C32.4313 34.0194 32.6152 35.072 32.6152 36.2784V37.3587H19.6082V34.9212H28.5938C28.5938 34.3549 28.46 33.8532 28.1926 33.4162C27.9252 32.9792 27.5541 32.6376 27.0794 32.3914C26.6115 32.139 26.0666 32.0128 25.4448 32.0128C24.7963 32.0128 24.2213 32.1513 23.7199 32.4283C23.2252 32.6991 22.8374 33.0654 22.5566 33.527C22.2758 33.9825 22.1321 34.4903 22.1254 35.0505V37.3679C22.1254 38.0696 22.2658 38.6759 22.5466 39.1868C22.8341 39.6977 23.2385 40.0916 23.76 40.3686C24.2815 40.6456 24.8999 40.7841 25.6153 40.7841C26.09 40.7841 26.5245 40.7226 26.919 40.5995C27.3134 40.4764 27.6511 40.2917 27.9319 40.0455C28.2127 39.7993 28.4266 39.4977 28.5737 39.1407L32.5249 39.3807C32.3244 40.2548 31.9132 41.018 31.2914 41.6705C30.6763 42.3168 29.8807 42.8215 28.9046 43.1847C27.9352 43.5417 26.8154 43.7202 25.5451 43.7202Z" fill="#0D3859"/>
<path d="M48.2195 33.3054L44.3084 33.527C44.2415 33.2193 44.0978 32.9423 43.8772 32.6961C43.6566 32.4437 43.3657 32.2436 43.0047 32.0959C42.6504 31.942 42.2258 31.8651 41.7311 31.8651C41.0692 31.8651 40.5109 31.9943 40.0563 32.2529C39.6017 32.5052 39.3744 32.8438 39.3744 33.2685C39.3744 33.607 39.5215 33.8933 39.8156 34.1272C40.1098 34.3611 40.6146 34.5488 41.3299 34.6904L44.1179 35.2074C45.6155 35.4906 46.732 35.946 47.4674 36.5739C48.2028 37.2017 48.5705 38.0265 48.5705 39.0483C48.5705 39.9778 48.273 40.7934 47.678 41.4951C47.0896 42.1968 46.2807 42.7446 45.2511 43.1385C44.2282 43.5263 43.0482 43.7202 41.711 43.7202C39.6719 43.7202 38.0473 43.3293 36.8372 42.5476C35.6338 41.7597 34.9284 40.6887 34.7212 39.3345L38.9231 39.1314C39.0501 39.7039 39.3577 40.1409 39.8457 40.4425C40.3338 40.738 40.9589 40.8857 41.7211 40.8857C42.4698 40.8857 43.0716 40.7533 43.5262 40.4887C43.9875 40.2178 44.2215 39.8701 44.2282 39.4453C44.2215 39.0883 44.0577 38.796 43.7368 38.5682C43.4159 38.3343 42.9211 38.1558 42.2526 38.0327L39.585 37.5434C38.0807 37.2664 36.9609 36.7863 36.2254 36.103C35.4967 35.4198 35.1323 34.5488 35.1323 33.4901C35.1323 32.5791 35.3998 31.7943 35.9346 31.1357C36.4761 30.4771 37.235 29.9693 38.2111 29.6122C39.1939 29.2552 40.3438 29.0767 41.6609 29.0767C43.6064 29.0767 45.1374 29.4553 46.2539 30.2124C47.3771 30.9695 48.0323 32.0005 48.2195 33.3054Z" fill="#0D3859"/>
<path d="M58.2204 43.7202C56.6426 43.7202 55.2854 43.4124 54.1489 42.7969C53.019 42.1752 52.1499 41.3135 51.5415 40.2117C50.9397 39.1099 50.6389 37.8419 50.6389 36.4077C50.6389 34.955 50.9431 33.6809 51.5515 32.5853C52.1666 31.4835 53.039 30.6248 54.1689 30.0093C55.2988 29.3876 56.6426 29.0767 58.2004 29.0767C59.5442 29.0767 60.7209 29.3014 61.7304 29.7507C62.7399 30.2001 63.5389 30.831 64.1272 31.6435C64.7156 32.456 65.0398 33.4101 65.1 34.5057H61.0685C60.9549 33.7979 60.654 33.2285 60.166 32.7976C59.6846 32.3606 59.0528 32.1421 58.2706 32.1421C57.6087 32.1421 57.0304 32.3083 56.5356 32.6407C56.0476 32.9669 55.6665 33.4439 55.3924 34.0718C55.1183 34.6996 54.9812 35.4598 54.9812 36.3523C54.9812 37.2571 55.1149 38.0265 55.3824 38.6605C55.6565 39.2945 56.0409 39.7777 56.5356 40.1101C57.0304 40.4425 57.6087 40.6087 58.2706 40.6087C58.7586 40.6087 59.1965 40.5164 59.5843 40.3317C59.9788 40.147 60.303 39.8793 60.5571 39.5284C60.8178 39.1714 60.9883 38.7436 61.0685 38.2451H65.1C65.0331 39.3284 64.7122 40.2825 64.1372 41.1073C63.569 41.9259 62.7834 42.5661 61.7806 43.0277C60.7777 43.4894 59.591 43.7202 58.2204 43.7202Z" fill="#0D3859"/>
<path d="M74.795 43.7202C73.2373 43.7202 71.8901 43.4155 70.7536 42.8061C69.6237 42.1906 68.7512 41.335 68.1361 40.2394C67.521 39.1376 67.2135 37.8604 67.2135 36.4077C67.2135 34.9427 67.521 33.6624 68.1361 32.5668C68.7512 31.465 69.6237 30.6094 70.7536 30C71.8901 29.3845 73.2373 29.0767 74.795 29.0767C76.3528 29.0767 77.6966 29.3845 78.8265 30C79.9631 30.6094 80.8389 31.465 81.454 32.5668C82.069 33.6624 82.3766 34.9427 82.3766 36.4077C82.3766 37.8604 82.069 39.1376 81.454 40.2394C80.8389 41.335 79.9631 42.1906 78.8265 42.8061C77.6966 43.4155 76.3528 43.7202 74.795 43.7202ZM74.8151 40.6733C75.5238 40.6733 76.1155 40.4887 76.5901 40.1193C77.0648 39.7439 77.4225 39.233 77.6632 38.5867C77.9105 37.9404 78.0342 37.2048 78.0342 36.38C78.0342 35.5552 77.9105 34.8196 77.6632 34.1733C77.4225 33.527 77.0648 33.0161 76.5901 32.6407C76.1155 32.2652 75.5238 32.0774 74.8151 32.0774C74.0997 32.0774 73.498 32.2652 73.01 32.6407C72.5286 33.0161 72.1642 33.527 71.9169 34.1733C71.6762 34.8196 71.5558 35.5552 71.5558 36.38C71.5558 37.2048 71.6762 37.9404 71.9169 38.5867C72.1642 39.233 72.5286 39.7439 73.01 40.1193C73.498 40.4887 74.0997 40.6733 74.8151 40.6733Z" fill="#0D3859"/>
<path d="M89.4266 35.2443V43.4432H85.1545V29.2614H89.226V31.7635H89.4066C89.7475 30.9387 90.3191 30.2863 91.1214 29.8061C91.9237 29.3199 92.8965 29.0767 94.0397 29.0767C95.1094 29.0767 96.0421 29.2922 96.8377 29.723C97.6333 30.1539 98.2517 30.7694 98.6929 31.5696C99.1342 32.3637 99.3548 33.3116 99.3548 34.4134V43.4432H95.0827V35.1151C95.0894 34.2472 94.8487 33.5701 94.3606 33.0838C93.8726 32.5914 93.2007 32.3452 92.3449 32.3452C91.7699 32.3452 91.2618 32.4591 90.8206 32.6868C90.386 32.9146 90.045 33.247 89.7977 33.684C89.557 34.1149 89.4333 34.635 89.4266 35.2443Z" fill="#0D3859"/>
<path d="M110.915 29.2614V32.2159H101.639V29.2614H110.915ZM103.745 25.8637H108.017V39.0853C108.017 39.4484 108.077 39.7316 108.197 39.9347C108.318 40.1317 108.485 40.2702 108.699 40.3502C108.919 40.4302 109.174 40.4702 109.461 40.4702C109.662 40.4702 109.862 40.4548 110.063 40.424C110.263 40.3871 110.417 40.3594 110.524 40.3409L111.196 43.2678C110.982 43.3293 110.681 43.4001 110.293 43.4801C109.906 43.5663 109.434 43.6186 108.879 43.6371C107.85 43.674 106.947 43.5479 106.172 43.2586C105.403 42.9693 104.804 42.5199 104.377 41.9105C103.949 41.3012 103.738 40.5318 103.745 39.6023V25.8637Z" fill="#0D3859"/>
<path d="M120.492 43.7202C118.935 43.7202 117.587 43.4155 116.451 42.8061C115.321 42.1906 114.449 41.335 113.833 40.2394C113.218 39.1376 112.911 37.8604 112.911 36.4077C112.911 34.9427 113.218 33.6624 113.833 32.5668C114.449 31.465 115.321 30.6094 116.451 30C117.587 29.3845 118.935 29.0767 120.492 29.0767C122.05 29.0767 123.394 29.3845 124.524 30C125.66 30.6094 126.536 31.465 127.151 32.5668C127.766 33.6624 128.074 34.9427 128.074 36.4077C128.074 37.8604 127.766 39.1376 127.151 40.2394C126.536 41.335 125.66 42.1906 124.524 42.8061C123.394 43.4155 122.05 43.7202 120.492 43.7202ZM120.512 40.6733C121.221 40.6733 121.813 40.4887 122.287 40.1193C122.762 39.7439 123.12 39.233 123.361 38.5867C123.608 37.9404 123.732 37.2048 123.732 36.38C123.732 35.5552 123.608 34.8196 123.361 34.1733C123.12 33.527 122.762 33.0161 122.287 32.6407C121.813 32.2652 121.221 32.0774 120.512 32.0774C119.797 32.0774 119.195 32.2652 118.707 32.6407C118.226 33.0161 117.862 33.527 117.614 34.1733C117.374 34.8196 117.253 35.5552 117.253 36.38C117.253 37.2048 117.374 37.9404 117.614 38.5867C117.862 39.233 118.226 39.7439 118.707 40.1193C119.195 40.4887 119.797 40.6733 120.512 40.6733Z" fill="#0D3859"/>
<path d="M143.668 33.3054L139.757 33.527C139.69 33.2193 139.547 32.9423 139.326 32.6961C139.105 32.4437 138.814 32.2436 138.453 32.0959C138.099 31.942 137.675 31.8651 137.18 31.8651C136.518 31.8651 135.96 31.9943 135.505 32.2529C135.05 32.5052 134.823 32.8438 134.823 33.2685C134.823 33.607 134.97 33.8933 135.264 34.1272C135.559 34.3611 136.063 34.5488 136.779 34.6904L139.567 35.2074C141.064 35.4906 142.181 35.946 142.916 36.5739C143.652 37.2017 144.019 38.0265 144.019 39.0483C144.019 39.9778 143.722 40.7934 143.127 41.4951C142.538 42.1968 141.729 42.7446 140.7 43.1385C139.677 43.5263 138.497 43.7202 137.16 43.7202C135.121 43.7202 133.496 43.3293 132.286 42.5476C131.082 41.7597 130.377 40.6887 130.17 39.3345L134.372 39.1314C134.499 39.7039 134.806 40.1409 135.294 40.4425C135.783 40.738 136.408 40.8857 137.17 40.8857C137.919 40.8857 138.52 40.7533 138.975 40.4887C139.436 40.2178 139.67 39.8701 139.677 39.4453C139.67 39.0883 139.506 38.796 139.186 38.5682C138.865 38.3343 138.37 38.1558 137.701 38.0327L135.034 37.5434C133.529 37.2664 132.41 36.7863 131.674 36.103C130.945 35.4198 130.581 34.5488 130.581 33.4901C130.581 32.5791 130.848 31.7943 131.383 31.1357C131.925 30.4771 132.684 29.9693 133.66 29.6122C134.643 29.2552 135.793 29.0767 137.11 29.0767C139.055 29.0767 140.586 29.4553 141.703 30.2124C142.826 30.9695 143.481 32.0005 143.668 33.3054Z" fill="#0D3859"/>
<path d="M85.821 63.6563C84.8644 63.6563 84.0107 63.4314 83.2599 62.9816C82.5142 62.527 81.9279 61.8807 81.501 61.0426C81.0793 60.1998 80.8684 59.1889 80.8684 58.01C80.8684 56.831 81.0819 55.8225 81.5087 54.9844C81.9407 54.1463 82.5321 53.5048 83.283 53.0597C84.0338 52.6146 84.885 52.3921 85.8364 52.3921C86.5718 52.3921 87.1633 52.5057 87.6107 52.733C88.0632 52.9555 88.413 53.2159 88.6598 53.5142C88.9118 53.8125 89.1072 54.0753 89.2461 54.3026H89.3849V48.8978H91.6915V63.4432H89.439V61.7458H89.2461C89.1072 61.9778 88.9067 62.2429 88.6444 62.5412C88.3872 62.8395 88.0324 63.0999 87.5798 63.3225C87.1273 63.545 86.541 63.6563 85.821 63.6563ZM86.3301 61.8452C86.9935 61.8452 87.5541 61.6842 88.0118 61.3622C88.4747 61.0355 88.8244 60.5834 89.0609 60.0057C89.3027 59.4281 89.4235 58.7557 89.4235 57.9887C89.4235 57.2311 89.3052 56.5682 89.0687 56C88.8321 55.4318 88.485 54.9891 88.0272 54.6719C87.5695 54.3547 87.0038 54.1961 86.3301 54.1961C85.6358 54.1961 85.0573 54.3618 84.5944 54.6932C84.1316 55.0246 83.7818 55.4768 83.5453 56.0497C83.3138 56.6227 83.1981 57.269 83.1981 57.9887C83.1981 58.7178 83.3164 59.3736 83.553 59.956C83.7896 60.5384 84.1393 61 84.6021 61.3409C85.0701 61.6771 85.6461 61.8452 86.3301 61.8452Z" fill="#0D3859"/>
<path d="M100.09 63.6634C98.923 63.6634 97.9175 63.4337 97.0741 62.9745C96.2358 62.5104 95.5878 61.8594 95.1301 61.0213C94.6776 60.1785 94.4513 59.1913 94.4513 58.0597C94.4513 56.9423 94.6776 55.9574 95.1301 55.1051C95.5878 54.2529 96.2255 53.5876 97.0432 53.1094C97.8661 52.6312 98.8278 52.3921 99.9284 52.3921C100.597 52.3921 101.245 52.4939 101.872 52.6975C102.5 52.9011 103.063 53.2207 103.562 53.6563C104.061 54.0919 104.454 54.6577 104.742 55.3537C105.03 56.045 105.174 56.8854 105.174 57.875V58.6279H95.755V57.037H102.914C102.914 56.4782 102.79 55.9835 102.544 55.5526C102.297 55.117 101.949 54.7737 101.502 54.5228C101.06 54.2718 100.54 54.1463 99.9438 54.1463C99.2958 54.1463 98.7301 54.2931 98.2467 54.5867C97.7684 54.8755 97.3981 55.2543 97.1358 55.723C96.8787 56.1871 96.7501 56.6913 96.7501 57.2358V58.4787C96.7501 59.2079 96.889 59.8282 97.1667 60.3395C97.4495 60.8509 97.843 61.2415 98.347 61.5114C98.8509 61.7765 99.4398 61.9091 100.114 61.9091C100.551 61.9091 100.949 61.8523 101.309 61.7387C101.669 61.6203 101.98 61.4451 102.243 61.2131C102.505 60.9811 102.705 60.6946 102.844 60.3537L105.027 60.7159C104.853 61.3078 104.539 61.8263 104.086 62.2713C103.639 62.7117 103.076 63.055 102.397 63.3012C101.723 63.5426 100.954 63.6634 100.09 63.6634Z" fill="#0D3859"/>
<path d="M116.931 63.6847C116.18 63.6847 115.501 63.5568 114.894 63.3012C114.287 63.0407 113.806 62.6643 113.451 62.1719C113.102 61.6795 112.927 61.0758 112.927 60.3608C112.927 59.7453 113.055 59.2387 113.313 58.8409C113.57 58.4432 113.917 58.1283 114.354 57.8963C114.791 57.6643 115.28 57.4891 115.82 57.3708C116.36 57.2524 116.91 57.1624 117.471 57.1009C118.18 57.0251 118.756 56.9636 119.199 56.9162C119.641 56.8641 119.962 56.7813 120.163 56.6676C120.363 56.554 120.464 56.3693 120.464 56.1137V56.0639C120.464 55.4437 120.273 54.9631 119.893 54.6222C119.517 54.2813 118.957 54.1108 118.211 54.1108C117.435 54.1108 116.823 54.2694 116.375 54.5867C115.933 54.8992 115.627 55.2472 115.457 55.6307L113.289 55.1762C113.547 54.5133 113.922 53.9782 114.416 53.5711C114.915 53.1591 115.488 52.8608 116.136 52.6762C116.784 52.4868 117.465 52.3921 118.18 52.3921C118.653 52.3921 119.155 52.4442 119.685 52.5483C120.219 52.6478 120.718 52.8324 121.181 53.1023C121.649 53.3722 122.032 53.7581 122.33 54.26C122.629 54.7571 122.778 55.4034 122.778 56.1989V63.4432H120.525V61.9517H120.433C120.284 62.2264 120.06 62.4962 119.762 62.7614C119.463 63.0265 119.08 63.2467 118.612 63.4219C118.144 63.5971 117.584 63.6847 116.931 63.6847ZM117.432 61.9801C118.07 61.9801 118.615 61.8641 119.067 61.6321C119.525 61.4001 119.872 61.0971 120.109 60.723C120.351 60.3443 120.471 59.9394 120.471 59.5086V58.1023C120.389 58.1781 120.23 58.2491 119.993 58.3154C119.762 58.3769 119.497 58.4314 119.199 58.4787C118.9 58.5213 118.61 58.5616 118.327 58.5995C118.044 58.6326 117.807 58.661 117.617 58.6847C117.17 58.7368 116.761 58.8244 116.391 58.9475C116.025 59.0706 115.732 59.2481 115.511 59.4801C115.295 59.7074 115.187 60.0104 115.187 60.3892C115.187 60.9148 115.398 61.3125 115.82 61.5824C116.241 61.8476 116.779 61.9801 117.432 61.9801Z" fill="#0D3859"/>
<path d="M131.381 52.5341V54.2387H124.909V52.5341H131.381ZM126.645 49.9205H128.951V60.2401C128.951 60.652 129.018 60.9621 129.152 61.1705C129.286 61.3741 129.458 61.5138 129.669 61.5895C129.885 61.6605 130.119 61.696 130.371 61.696C130.556 61.696 130.718 61.6842 130.857 61.6605C130.995 61.6369 131.103 61.6179 131.181 61.6037L131.597 63.358C131.463 63.4053 131.273 63.4527 131.026 63.5C130.779 63.5521 130.471 63.5805 130.101 63.5853C129.494 63.5947 128.928 63.4953 128.404 63.287C127.879 63.0786 127.455 62.7567 127.131 62.321C126.807 61.8854 126.645 61.3386 126.645 60.6804V49.9205Z" fill="#0D3859"/>
<path d="M138.912 63.6634C137.745 63.6634 136.739 63.4337 135.896 62.9745C135.058 62.5104 134.41 61.8594 133.952 61.0213C133.499 60.1785 133.273 59.1913 133.273 58.0597C133.273 56.9423 133.499 55.9574 133.952 55.1051C134.41 54.2529 135.047 53.5876 135.865 53.1094C136.688 52.6312 137.65 52.3921 138.75 52.3921C139.419 52.3921 140.067 52.4939 140.694 52.6975C141.322 52.9011 141.885 53.2207 142.384 53.6563C142.882 54.0919 143.276 54.6577 143.564 55.3537C143.852 56.045 143.996 56.8854 143.996 57.875V58.6279H134.577V57.037H141.736C141.736 56.4782 141.612 55.9835 141.365 55.5526C141.118 55.117 140.771 54.7737 140.324 54.5228C139.882 54.2718 139.362 54.1463 138.766 54.1463C138.118 54.1463 137.552 54.2931 137.069 54.5867C136.59 54.8755 136.22 55.2543 135.958 55.723C135.701 56.1871 135.572 56.6913 135.572 57.2358V58.4787C135.572 59.2079 135.711 59.8282 135.989 60.3395C136.271 60.8509 136.665 61.2415 137.169 61.5114C137.673 61.7765 138.262 61.9091 138.935 61.9091C139.373 61.9091 139.771 61.8523 140.131 61.7387C140.491 61.6203 140.802 61.4451 141.064 61.2131C141.327 60.9811 141.527 60.6946 141.666 60.3537L143.849 60.7159C143.674 61.3078 143.361 61.8263 142.908 62.2713C142.461 62.7117 141.898 63.055 141.219 63.3012C140.545 63.5426 139.776 63.6634 138.912 63.6634ZM137.709 51.0782L139.514 47.804H141.944L139.553 51.0782H137.709Z" fill="#0D3859"/>
<path fill-rule="evenodd" clip-rule="evenodd" d="M298.704 33.2382V35.3822C298.704 37.1027 299.068 38.6909 299.796 40.1467C300.537 41.6025 301.622 42.7737 303.052 43.6604C304.481 44.5472 306.234 44.9905 308.312 44.9905C310.39 44.9905 312.15 44.5472 313.593 43.6604C315.035 42.7737 316.127 41.6025 316.868 40.1467C317.623 38.6909 318 37.1027 318 35.3822V33.2382C318 31.4913 317.629 29.8899 316.888 28.4341C316.147 26.9783 315.055 25.8137 313.613 24.9402C312.183 24.0667 310.417 23.63 308.312 23.63C306.261 23.63 304.521 24.0733 303.091 24.96C301.662 25.8468 300.57 27.018 299.816 28.4738C299.075 29.9296 298.704 31.5178 298.704 33.2382ZM305.612 35.3822V33.2382C305.612 32.4442 305.798 31.6766 306.168 30.9354C306.552 30.1943 307.267 29.8237 308.312 29.8237C309.45 29.8237 310.185 30.1943 310.516 30.9354C310.847 31.6766 311.012 32.4442 311.012 33.2382V35.3822C311.012 36.1763 310.833 36.9307 310.476 37.6453C310.132 38.36 309.411 38.7173 308.312 38.7173C307.267 38.7173 306.552 38.3534 306.168 37.6255C305.798 36.8844 305.612 36.1366 305.612 35.3822ZM277.423 9.97192V12.1159C277.423 13.8364 277.787 15.4179 278.515 16.8605C279.256 18.3031 280.341 19.4611 281.77 20.3346C283.2 21.208 284.953 21.6448 287.031 21.6448C289.109 21.6448 290.869 21.2147 292.312 20.3544C293.754 19.4942 294.846 18.3428 295.587 16.9002C296.342 15.4576 296.719 13.8629 296.719 12.1159V9.97192C296.719 8.22496 296.348 6.62358 295.607 5.16779C294.866 3.71199 293.774 2.54735 292.332 1.67387C290.902 0.800387 289.135 0.363647 287.031 0.363647C285.006 0.363647 283.279 0.800387 281.85 1.67387C280.421 2.54735 279.322 3.71199 278.554 5.16779C277.8 6.62358 277.423 8.22496 277.423 9.97192ZM284.411 12.1159V9.97192C284.411 9.21756 284.583 8.46319 284.927 7.70882C285.284 6.94121 285.986 6.55741 287.031 6.55741C288.169 6.55741 288.904 6.92798 289.235 7.66911C289.566 8.41025 289.731 9.17785 289.731 9.97192V12.1159C289.731 12.91 289.552 13.6644 289.195 14.379C288.851 15.0937 288.13 15.451 287.031 15.451C286.025 15.451 285.337 15.0937 284.967 14.379C284.596 13.6644 284.411 12.91 284.411 12.1159ZM308.749 2.34883L280.798 43.0053H286.436L314.387 2.34883H308.749ZM291.81 60.6412C292.47 59.4749 292.8 58.0431 292.8 56.3457C292.8 54.6484 292.47 53.2191 291.81 52.0578C291.149 50.8915 290.259 50.0105 289.137 49.415C288.015 48.8145 286.765 48.5142 285.385 48.5142C283.995 48.5142 282.74 48.8145 281.618 49.415C280.501 50.0105 279.613 50.8915 278.953 52.0578C278.298 53.2191 277.97 54.6484 277.97 56.3457C277.97 58.0332 278.298 59.46 278.953 60.6263C279.613 61.7876 280.501 62.671 281.618 63.2765C282.74 63.877 283.995 64.1773 285.385 64.1773C286.765 64.1773 288.015 63.8795 289.137 63.284C290.259 62.6834 291.149 61.8025 291.81 60.6412ZM288.177 54.038C288.42 54.6633 288.541 55.4326 288.541 56.3457C288.541 57.2589 288.42 58.0307 288.177 58.661C287.938 59.2863 287.584 59.7627 287.112 60.0903C286.646 60.4129 286.07 60.5742 285.385 60.5742C284.7 60.5742 284.122 60.4129 283.65 60.0903C283.184 59.7627 282.829 59.2863 282.586 58.661C282.348 58.0307 282.229 57.2589 282.229 56.3457C282.229 55.4326 282.348 54.6633 282.586 54.038C282.829 53.4077 283.184 52.9312 283.65 52.6086C284.122 52.2811 284.7 52.1173 285.385 52.1173C286.07 52.1173 286.646 52.2811 287.112 52.6086C287.584 52.9312 287.938 53.4077 288.177 54.038ZM294.715 48.7227H305.435V52.0578H298.854V54.6782H304.78V58.0133H298.854V63.9688H294.715V48.7227ZM317.677 48.7227H306.957V63.9688H311.096V58.0133H317.022V54.6782H311.096V52.0578H317.677V48.7227ZM231.702 61.7951C235.732 64.3361 240.516 65.6165 246.054 65.6364C251.593 65.6364 256.367 64.3758 260.378 61.8546C264.407 59.3136 267.514 55.6509 269.698 50.8666C271.882 46.0823 272.974 40.3253 272.974 33.5956C272.993 26.9055 271.911 21.218 269.728 16.5329C267.544 11.8479 264.437 8.28451 260.407 5.84274C256.377 3.38111 251.593 2.1503 246.054 2.1503C240.516 2.1503 235.732 3.37118 231.702 5.81296C227.692 8.25473 224.595 11.8181 222.411 16.5032C220.247 21.1882 219.155 26.8856 219.135 33.5956C219.116 40.2856 220.198 46.0228 222.381 50.8071C224.565 55.5914 227.672 59.254 231.702 61.7951ZM253.082 47.7102C251.256 50.688 248.913 52.1769 246.054 52.1769C244.149 52.1769 242.451 51.5217 240.962 50.2115C239.493 48.9013 238.342 46.8764 237.508 44.1369C236.675 41.3775 236.268 37.8637 236.287 33.5956C236.327 27.3224 237.25 22.7366 239.057 19.8383C240.863 16.9399 243.196 15.4907 246.054 15.4907C247.96 15.4907 249.648 16.1359 251.117 17.4263C252.586 18.6968 253.737 20.6621 254.571 23.3223C255.405 25.9824 255.822 29.4068 255.822 33.5956C255.841 40.0077 254.928 44.7126 253.082 47.7102ZM160.019 41.576V54.44H189.678V63.9688H205.52V54.44H212.547V41.576H205.52V2.98407H196.229H190.035H184.556L160.019 41.576ZM190.035 20.136H189.559L176.337 41.0995V41.576H190.035V20.136Z" fill="#0D3859"/>
</svg>
