<svg width="308" height="66" viewBox="0 0 308 66" fill="none" xmlns="http://www.w3.org/2000/svg">
<path d="M64.9 6.71872C64.8177 6.04637 64.4783 5.52553 63.8817 5.15622C63.2851 4.78216 62.5343 4.59514 61.6292 4.59514C60.9812 4.59514 60.4206 4.68983 59.9475 4.87923C59.4743 5.06389 59.1066 5.31957 58.8443 5.64627C58.5872 5.96824 58.4586 6.33519 58.4586 6.74713C58.4586 7.09277 58.546 7.39106 58.7209 7.64201C58.9009 7.89296 59.1349 8.10366 59.4229 8.27411C59.716 8.43983 60.0297 8.57951 60.364 8.69315C60.6983 8.80205 61.0197 8.89201 61.3283 8.96303L62.8712 9.33235C63.3751 9.44599 63.892 9.59987 64.4217 9.794C64.9514 9.98813 65.4426 10.2438 65.8951 10.561C66.3477 10.8783 66.7128 11.2713 66.9905 11.74C67.2734 12.2088 67.4148 12.7699 67.4148 13.4233C67.4148 14.2471 67.1834 14.9787 66.7206 15.6179C66.2628 16.2571 65.5968 16.7613 64.7226 17.1306C63.8534 17.5 62.8017 17.6846 61.5674 17.6846C60.3846 17.6846 59.3612 17.5118 58.4972 17.1662C57.6332 16.8205 56.9569 16.3305 56.4683 15.696C55.9798 15.0568 55.7098 14.2992 55.6583 13.4233H58.0498C58.096 13.9488 58.2812 14.3868 58.6052 14.7372C58.9343 15.0828 59.3535 15.3409 59.8626 15.5113C60.3769 15.6771 60.94 15.7599 61.552 15.7599C62.2257 15.7599 62.8249 15.6628 63.3494 15.4687C63.8791 15.2699 64.2957 14.9952 64.5991 14.6449C64.9026 14.2897 65.0543 13.8754 65.0543 13.402C65.0543 12.9711 64.9206 12.6183 64.6531 12.3437C64.3909 12.0691 64.0334 11.8418 63.5809 11.6619C63.1334 11.482 62.6269 11.3234 62.0612 11.186L60.1943 10.7173C58.9292 10.4001 57.9263 9.93368 57.1858 9.31815C56.4503 8.70262 56.0826 7.88822 56.0826 6.87497C56.0826 6.0369 56.3295 5.30536 56.8232 4.68036C57.3169 4.05536 57.9855 3.57004 58.8289 3.2244C59.6723 2.87402 60.6237 2.69883 61.6832 2.69883C62.7529 2.69883 63.6966 2.87165 64.5143 3.2173C65.3371 3.56294 65.9851 4.03879 66.4583 4.64485C66.9314 5.24618 67.1783 5.93747 67.1988 6.71872H64.9Z" fill="#0A2A43"/>
<path d="M70.0782 17.4431V6.53406H72.3847V17.4431H70.0782ZM71.243 4.85082C70.8419 4.85082 70.4973 4.72771 70.2093 4.4815C69.9265 4.23055 69.785 3.93226 69.785 3.58661C69.785 3.23624 69.9265 2.93794 70.2093 2.69173C70.4973 2.44078 70.8419 2.31531 71.243 2.31531C71.6442 2.31531 71.9862 2.44078 72.269 2.69173C72.557 2.93794 72.701 3.23624 72.701 3.58661C72.701 3.93226 72.557 4.23055 72.269 4.4815C71.9862 4.72771 71.6442 4.85082 71.243 4.85082Z" fill="#0A2A43"/>
<path d="M81.0189 6.53406V8.2386H74.5466V6.53406H81.0189ZM76.2823 3.92042H78.5889V14.24C78.5889 14.652 78.6558 14.9621 78.7895 15.1704C78.9232 15.374 79.0955 15.5137 79.3063 15.5895C79.5223 15.6605 79.7563 15.696 80.0083 15.696C80.1934 15.696 80.3554 15.6842 80.4943 15.6605C80.6332 15.6368 80.7412 15.6179 80.8183 15.6037L81.2349 17.3579C81.1012 17.4053 80.9109 17.4526 80.664 17.5C80.4172 17.552 80.1086 17.5805 79.7383 17.5852C79.1315 17.5947 78.5658 17.4952 78.0412 17.2869C77.5166 17.0786 77.0923 16.7566 76.7683 16.321C76.4443 15.8854 76.2823 15.3385 76.2823 14.6804V3.92042Z" fill="#0A2A43"/>
<path d="M88.5499 17.6633C87.3825 17.6633 86.377 17.4337 85.5336 16.9744C84.6953 16.5104 84.0474 15.8593 83.5896 15.0213C83.1371 14.1785 82.9108 13.1913 82.9108 12.0596C82.9108 10.9422 83.1371 9.95735 83.5896 9.10508C84.0474 8.25281 84.6851 7.58756 85.5028 7.10934C86.3256 6.63112 87.2873 6.39201 88.3879 6.39201C89.0564 6.39201 89.7044 6.49381 90.3319 6.69741C90.9593 6.90101 91.5224 7.22061 92.0213 7.65622C92.5201 8.09182 92.9136 8.65764 93.2016 9.35366C93.4896 10.0449 93.6336 10.8854 93.6336 11.875V12.6278H84.2145V11.0369H91.3733C91.3733 10.4782 91.2499 9.98339 91.003 9.55252C90.7562 9.11692 90.409 8.77364 89.9616 8.52269C89.5193 8.27175 88.9999 8.14627 88.4033 8.14627C87.7553 8.14627 87.1896 8.29305 86.7062 8.58661C86.2279 8.87544 85.8576 9.25423 85.5953 9.72298C85.3382 10.187 85.2096 10.6913 85.2096 11.2358V12.4787C85.2096 13.2078 85.3485 13.8281 85.6262 14.3395C85.909 14.8508 86.3025 15.2414 86.8065 15.5113C87.3105 15.7765 87.8993 15.9091 88.573 15.9091C89.0102 15.9091 89.4087 15.8522 89.7687 15.7386C90.1287 15.6202 90.4399 15.445 90.7022 15.213C90.9644 14.981 91.165 14.6946 91.3039 14.3537L93.487 14.7159C93.3121 15.3077 92.9984 15.8262 92.5458 16.2713C92.0984 16.7116 91.5353 17.0549 90.8564 17.3011C90.1827 17.5426 89.4139 17.6633 88.5499 17.6633Z" fill="#0A2A43"/>
<path d="M106.933 17.6633C105.786 17.6633 104.799 17.4242 103.971 16.946C103.148 16.463 102.515 15.7978 102.073 14.9503C101.631 14.1027 101.41 13.1321 101.41 12.0383C101.41 10.9304 101.636 9.95262 102.088 9.10508C102.541 8.25281 103.179 7.58756 104.001 7.10934C104.824 6.63112 105.794 6.39201 106.91 6.39201C107.81 6.39201 108.612 6.54589 109.317 6.85366C110.021 7.15669 110.589 7.58283 111.021 8.13207C111.459 8.68131 111.718 9.32288 111.801 10.0568H109.556C109.432 9.54542 109.149 9.10508 108.707 8.73576C108.27 8.36644 107.684 8.18178 106.948 8.18178C106.305 8.18178 105.742 8.33803 105.259 8.65053C104.781 8.9583 104.408 9.39864 104.14 9.97156C103.873 10.5397 103.739 11.2121 103.739 11.9886C103.739 12.7841 103.87 13.4706 104.133 14.0483C104.395 14.6259 104.765 15.0734 105.243 15.3906C105.727 15.7078 106.295 15.8664 106.948 15.8664C107.385 15.8664 107.781 15.7931 108.136 15.6463C108.496 15.4948 108.797 15.2793 109.039 15C109.286 14.7206 109.458 14.3844 109.556 13.9914H111.801C111.718 14.6969 111.469 15.3267 111.052 15.8806C110.636 16.4346 110.078 16.8702 109.378 17.1875C108.684 17.5047 107.869 17.6633 106.933 17.6633Z" fill="#0A2A43"/>
<path d="M119.258 17.6633C118.147 17.6633 117.178 17.4289 116.35 16.9602C115.522 16.4914 114.879 15.8357 114.421 14.9929C113.964 14.1501 113.735 13.1652 113.735 12.0383C113.735 10.9067 113.964 9.91711 114.421 9.06957C114.879 8.22203 115.522 7.56389 116.35 7.09514C117.178 6.62639 118.147 6.39201 119.258 6.39201C120.369 6.39201 121.339 6.62639 122.167 7.09514C122.995 7.56389 123.637 8.22203 124.095 9.06957C124.553 9.91711 124.782 10.9067 124.782 12.0383C124.782 13.1652 124.553 14.1501 124.095 14.9929C123.637 15.8357 122.995 16.4914 122.167 16.9602C121.339 17.4289 120.369 17.6633 119.258 17.6633ZM119.266 15.8806C119.986 15.8806 120.583 15.7055 121.056 15.3551C121.529 15.0047 121.879 14.5383 122.105 13.9559C122.336 13.3735 122.452 12.732 122.452 12.0312C122.452 11.3352 122.336 10.696 122.105 10.1136C121.879 9.52648 121.529 9.05536 121.056 8.70025C120.583 8.34514 119.986 8.16758 119.266 8.16758C118.541 8.16758 117.939 8.34514 117.461 8.70025C116.988 9.05536 116.635 9.52648 116.404 10.1136C116.178 10.696 116.065 11.3352 116.065 12.0312C116.065 12.732 116.178 13.3735 116.404 13.9559C116.635 14.5383 116.988 15.0047 117.461 15.3551C117.939 15.7055 118.541 15.8806 119.266 15.8806Z" fill="#0A2A43"/>
<path d="M127.356 17.4431V6.53406H129.57V8.30963H129.717C129.964 7.7083 130.367 7.23955 130.928 6.90338C131.489 6.56247 132.16 6.39201 132.941 6.39201C133.733 6.39201 134.397 6.56247 134.932 6.90338C135.472 7.24429 135.87 7.71303 136.127 8.30963H136.251C136.534 7.72724 136.984 7.26322 137.601 6.91758C138.218 6.5672 138.953 6.39201 139.807 6.39201C140.882 6.39201 141.759 6.70214 142.438 7.32241C143.122 7.94267 143.464 8.87781 143.464 10.1278V17.4431H141.157V10.3267C141.157 9.58803 140.938 9.053 140.501 8.72156C140.064 8.39012 139.542 8.2244 138.935 8.2244C138.185 8.2244 137.601 8.43747 137.184 8.8636C136.768 9.285 136.559 9.82714 136.559 10.49V17.4431H134.261V10.1917C134.261 9.59987 134.06 9.12402 133.659 8.76417C133.258 8.40432 132.736 8.2244 132.093 8.2244C131.656 8.2244 131.252 8.33093 130.882 8.544C130.517 8.75233 130.221 9.04353 129.995 9.41758C129.773 9.79163 129.663 10.2249 129.663 10.7173V17.4431H127.356Z" fill="#0A2A43"/>
<path d="M6.24776 43.674C5.07776 43.674 4.01809 43.397 3.06872 42.843C2.12604 42.2829 1.37725 41.4611 0.822337 40.3778C0.274113 39.2883 0 37.9526 0 36.3707C0 34.7457 0.284141 33.3946 0.852423 32.3174C1.4207 31.2341 2.17618 30.4247 3.11886 29.8892C4.06823 29.3475 5.10785 29.0767 6.23773 29.0767C7.10018 29.0767 7.81888 29.2121 8.39385 29.4829C8.9755 29.7476 9.4435 30.08 9.79784 30.4801C10.1589 30.874 10.433 31.2618 10.6202 31.6434H10.7505V24.5341H15.0127V43.4431H10.8007V41.1718H10.6202C10.4196 41.5658 10.1355 41.9566 9.76776 42.3444C9.40673 42.7261 8.93539 43.0431 8.35374 43.2954C7.77877 43.5478 7.07678 43.674 6.24776 43.674ZM7.6016 40.544C8.29023 40.544 8.87188 40.3717 9.34656 40.027C9.82793 39.6761 10.1956 39.1868 10.4497 38.5589C10.7104 37.9311 10.8408 37.1955 10.8408 36.3522C10.8408 35.509 10.7138 34.7765 10.4597 34.1548C10.2057 33.5331 9.83796 33.053 9.35659 32.7145C8.87522 32.3759 8.29023 32.2066 7.6016 32.2066C6.89961 32.2066 6.30793 32.3821 5.82656 32.7329C5.34519 33.0838 4.98082 33.57 4.73345 34.1917C4.48608 34.8134 4.3624 35.5336 4.3624 36.3522C4.3624 37.1771 4.48608 37.9065 4.73345 38.5405C4.98751 39.1683 5.35187 39.6607 5.82656 40.0177C6.30793 40.3686 6.89961 40.544 7.6016 40.544Z" fill="#0A2A43"/>
<path d="M25.5451 43.7201C23.9606 43.7201 22.5967 43.4247 21.4535 42.8338C20.3169 42.2367 19.4411 41.3934 18.826 40.3039C18.2109 39.2083 17.9034 37.9126 17.9034 36.4169C17.9034 34.9581 18.2109 33.6778 18.826 32.576C19.4411 31.4742 20.3069 30.6155 21.4234 30C22.5466 29.3844 23.8636 29.0767 25.3746 29.0767C26.3908 29.0767 27.3368 29.2275 28.2127 29.5291C29.0952 29.8245 29.864 30.2708 30.5192 30.8679C31.1811 31.4649 31.6959 32.2159 32.0636 33.1207C32.4313 34.0194 32.6152 35.0719 32.6152 36.2784V37.3586H19.6082V34.9211H28.5938C28.5938 34.3548 28.46 33.8532 28.1926 33.4162C27.9252 32.9791 27.5541 32.6375 27.0794 32.3913C26.6115 32.1389 26.0666 32.0128 25.4448 32.0128C24.7963 32.0128 24.2213 32.1512 23.7199 32.4282C23.2252 32.6991 22.8374 33.0653 22.5566 33.527C22.2758 33.9824 22.1321 34.4903 22.1254 35.0504V37.3679C22.1254 38.0696 22.2658 38.6759 22.5466 39.1868C22.834 39.6976 23.2385 40.0916 23.76 40.3686C24.2815 40.6456 24.8999 40.7841 25.6153 40.7841C26.09 40.7841 26.5245 40.7225 26.919 40.5994C27.3134 40.4763 27.6511 40.2916 27.9319 40.0454C28.2127 39.7992 28.4266 39.4976 28.5737 39.1406L32.5249 39.3806C32.3244 40.2547 31.9132 41.018 31.2914 41.6704C30.6763 42.3167 29.8807 42.8215 28.9046 43.1846C27.9352 43.5416 26.8154 43.7201 25.5451 43.7201Z" fill="#0A2A43"/>
<path d="M48.2195 33.3054L44.3084 33.527C44.2415 33.2192 44.0978 32.9422 43.8772 32.696C43.6566 32.4436 43.3657 32.2436 43.0047 32.0958C42.6504 31.942 42.2258 31.865 41.7311 31.865C41.0692 31.865 40.5109 31.9943 40.0563 32.2528C39.6017 32.5052 39.3744 32.8437 39.3744 33.2684C39.3744 33.607 39.5215 33.8932 39.8156 34.1271C40.1098 34.361 40.6146 34.5487 41.3299 34.6903L44.1179 35.2074C45.6155 35.4905 46.732 35.946 47.4674 36.5738C48.2028 37.2017 48.5705 38.0265 48.5705 39.0483C48.5705 39.9777 48.273 40.7933 47.678 41.495C47.0896 42.1967 46.2807 42.7445 45.2511 43.1385C44.2282 43.5262 43.0482 43.7201 41.711 43.7201C39.6719 43.7201 38.0473 43.3293 36.8372 42.5476C35.6338 41.7597 34.9284 40.6887 34.7212 39.3345L38.9231 39.1314C39.0501 39.7038 39.3577 40.1408 39.8457 40.4424C40.3338 40.7379 40.9589 40.8856 41.7211 40.8856C42.4698 40.8856 43.0716 40.7533 43.5262 40.4886C43.9875 40.2178 44.2215 39.87 44.2282 39.4453C44.2215 39.0883 44.0577 38.7959 43.7368 38.5681C43.4159 38.3342 42.9211 38.1557 42.2526 38.0326L39.585 37.5433C38.0807 37.2663 36.9609 36.7862 36.2254 36.103C35.4967 35.4197 35.1323 34.5487 35.1323 33.49C35.1323 32.579 35.3998 31.7942 35.9346 31.1356C36.4761 30.477 37.235 29.9692 38.2111 29.6122C39.1939 29.2552 40.3438 29.0767 41.6609 29.0767C43.6064 29.0767 45.1374 29.4552 46.2539 30.2123C47.3771 30.9694 48.0323 32.0004 48.2195 33.3054Z" fill="#0A2A43"/>
<path d="M58.2204 43.7201C56.6426 43.7201 55.2854 43.4124 54.1489 42.7968C53.019 42.1752 52.1499 41.3134 51.5415 40.2116C50.9397 39.1098 50.6389 37.8418 50.6389 36.4076C50.6389 34.955 50.9431 33.6808 51.5515 32.5852C52.1666 31.4834 53.039 30.6247 54.1689 30.0092C55.2988 29.3875 56.6426 29.0767 58.2004 29.0767C59.5442 29.0767 60.7209 29.3013 61.7304 29.7507C62.7399 30.2 63.5389 30.8309 64.1272 31.6434C64.7156 32.4559 65.0398 33.41 65.1 34.5056H61.0685C60.9549 33.7978 60.654 33.2284 60.166 32.7976C59.6846 32.3605 59.0528 32.142 58.2706 32.142C57.6087 32.142 57.0304 32.3082 56.5356 32.6406C56.0476 32.9668 55.6665 33.4439 55.3924 34.0717C55.1183 34.6995 54.9812 35.4597 54.9812 36.3522C54.9812 37.2571 55.1149 38.0265 55.3824 38.6605C55.6565 39.2945 56.0409 39.7777 56.5356 40.1101C57.0304 40.4424 57.6087 40.6086 58.2706 40.6086C58.7586 40.6086 59.1965 40.5163 59.5843 40.3316C59.9788 40.147 60.303 39.8792 60.5571 39.5284C60.8178 39.1714 60.9883 38.7436 61.0685 38.245H65.1C65.0331 39.3283 64.7122 40.2824 64.1372 41.1072C63.569 41.9259 62.7834 42.566 61.7806 43.0277C60.7777 43.4893 59.591 43.7201 58.2204 43.7201Z" fill="#0A2A43"/>
<path d="M74.795 43.7201C73.2373 43.7201 71.8901 43.4155 70.7536 42.8061C69.6237 42.1905 68.7512 41.335 68.1361 40.2393C67.521 39.1375 67.2135 37.8603 67.2135 36.4076C67.2135 34.9427 67.521 33.6624 68.1361 32.5667C68.7512 31.4649 69.6237 30.6093 70.7536 30C71.8901 29.3844 73.2373 29.0767 74.795 29.0767C76.3528 29.0767 77.6966 29.3844 78.8265 30C79.9631 30.6093 80.8389 31.4649 81.454 32.5667C82.069 33.6624 82.3766 34.9427 82.3766 36.4076C82.3766 37.8603 82.069 39.1375 81.454 40.2393C80.8389 41.335 79.9631 42.1905 78.8265 42.8061C77.6966 43.4155 76.3528 43.7201 74.795 43.7201ZM74.8151 40.6733C75.5238 40.6733 76.1155 40.4886 76.5901 40.1193C77.0648 39.7438 77.4225 39.2329 77.6632 38.5866C77.9105 37.9403 78.0342 37.2048 78.0342 36.3799C78.0342 35.5551 77.9105 34.8196 77.6632 34.1733C77.4225 33.527 77.0648 33.0161 76.5901 32.6406C76.1155 32.2651 75.5238 32.0774 74.8151 32.0774C74.0997 32.0774 73.498 32.2651 73.01 32.6406C72.5286 33.0161 72.1642 33.527 71.9168 34.1733C71.6762 34.8196 71.5558 35.5551 71.5558 36.3799C71.5558 37.2048 71.6762 37.9403 71.9168 38.5866C72.1642 39.2329 72.5286 39.7438 73.01 40.1193C73.498 40.4886 74.0997 40.6733 74.8151 40.6733Z" fill="#0A2A43"/>
<path d="M89.4266 35.2443V43.4431H85.1545V29.2613H89.226V31.7635H89.4066C89.7475 30.9387 90.3191 30.2862 91.1214 29.8061C91.9237 29.3198 92.8965 29.0767 94.0397 29.0767C95.1094 29.0767 96.0421 29.2921 96.8377 29.723C97.6333 30.1539 98.2517 30.7694 98.6929 31.5696C99.1342 32.3636 99.3548 33.3115 99.3548 34.4133V43.4431H95.0827V35.115C95.0894 34.2471 94.8487 33.57 94.3606 33.0838C93.8726 32.5914 93.2007 32.3451 92.3449 32.3451C91.7699 32.3451 91.2618 32.459 90.8206 32.6868C90.386 32.9145 90.045 33.2469 89.7977 33.6839C89.557 34.1148 89.4333 34.6349 89.4266 35.2443Z" fill="#0A2A43"/>
<path d="M110.915 29.2613V32.2159H101.639V29.2613H110.915ZM103.745 25.8636H108.017V39.0852C108.017 39.4484 108.077 39.7315 108.197 39.9346C108.318 40.1316 108.485 40.2701 108.699 40.3501C108.919 40.4301 109.174 40.4701 109.461 40.4701C109.662 40.4701 109.862 40.4548 110.063 40.424C110.263 40.387 110.417 40.3593 110.524 40.3409L111.196 43.2677C110.982 43.3293 110.681 43.4001 110.293 43.4801C109.906 43.5663 109.434 43.6186 108.879 43.637C107.85 43.674 106.947 43.5478 106.172 43.2585C105.403 42.9692 104.804 42.5199 104.377 41.9105C103.949 41.3011 103.738 40.5317 103.745 39.6022V25.8636Z" fill="#0A2A43"/>
<path d="M120.492 43.7201C118.935 43.7201 117.587 43.4155 116.451 42.8061C115.321 42.1905 114.449 41.335 113.833 40.2393C113.218 39.1375 112.911 37.8603 112.911 36.4076C112.911 34.9427 113.218 33.6624 113.833 32.5667C114.449 31.4649 115.321 30.6093 116.451 30C117.587 29.3844 118.935 29.0767 120.492 29.0767C122.05 29.0767 123.394 29.3844 124.524 30C125.66 30.6093 126.536 31.4649 127.151 32.5667C127.766 33.6624 128.074 34.9427 128.074 36.4076C128.074 37.8603 127.766 39.1375 127.151 40.2393C126.536 41.335 125.66 42.1905 124.524 42.8061C123.394 43.4155 122.05 43.7201 120.492 43.7201ZM120.512 40.6733C121.221 40.6733 121.813 40.4886 122.287 40.1193C122.762 39.7438 123.12 39.2329 123.361 38.5866C123.608 37.9403 123.732 37.2048 123.732 36.3799C123.732 35.5551 123.608 34.8196 123.361 34.1733C123.12 33.527 122.762 33.0161 122.287 32.6406C121.813 32.2651 121.221 32.0774 120.512 32.0774C119.797 32.0774 119.195 32.2651 118.707 32.6406C118.226 33.0161 117.862 33.527 117.614 34.1733C117.374 34.8196 117.253 35.5551 117.253 36.3799C117.253 37.2048 117.374 37.9403 117.614 38.5866C117.862 39.2329 118.226 39.7438 118.707 40.1193C119.195 40.4886 119.797 40.6733 120.512 40.6733Z" fill="#0A2A43"/>
<path d="M143.668 33.3054L139.757 33.527C139.69 33.2192 139.547 32.9422 139.326 32.696C139.105 32.4436 138.814 32.2436 138.453 32.0958C138.099 31.942 137.675 31.865 137.18 31.865C136.518 31.865 135.96 31.9943 135.505 32.2528C135.05 32.5052 134.823 32.8437 134.823 33.2684C134.823 33.607 134.97 33.8932 135.264 34.1271C135.559 34.361 136.063 34.5487 136.779 34.6903L139.567 35.2074C141.064 35.4905 142.181 35.946 142.916 36.5738C143.652 37.2017 144.019 38.0265 144.019 39.0483C144.019 39.9777 143.722 40.7933 143.127 41.495C142.538 42.1967 141.729 42.7445 140.7 43.1385C139.677 43.5262 138.497 43.7201 137.16 43.7201C135.121 43.7201 133.496 43.3293 132.286 42.5476C131.082 41.7597 130.377 40.6887 130.17 39.3345L134.372 39.1314C134.499 39.7038 134.806 40.1408 135.294 40.4424C135.783 40.7379 136.408 40.8856 137.17 40.8856C137.919 40.8856 138.52 40.7533 138.975 40.4886C139.436 40.2178 139.67 39.87 139.677 39.4453C139.67 39.0883 139.506 38.7959 139.186 38.5681C138.865 38.3342 138.37 38.1557 137.701 38.0326L135.034 37.5433C133.529 37.2663 132.41 36.7862 131.674 36.103C130.945 35.4197 130.581 34.5487 130.581 33.49C130.581 32.579 130.848 31.7942 131.383 31.1356C131.925 30.477 132.684 29.9692 133.66 29.6122C134.643 29.2552 135.793 29.0767 137.11 29.0767C139.055 29.0767 140.586 29.4552 141.703 30.2123C142.826 30.9694 143.481 32.0004 143.668 33.3054Z" fill="#0A2A43"/>
<path d="M85.821 63.6562C84.8644 63.6562 84.0107 63.4313 83.2599 62.9815C82.5142 62.527 81.9279 61.8807 81.501 61.0426C81.0793 60.1998 80.8684 59.1889 80.8684 58.0099C80.8684 56.8309 81.0819 55.8224 81.5087 54.9843C81.9407 54.1463 82.5322 53.5047 83.283 53.0596C84.0339 52.6146 84.885 52.392 85.8364 52.392C86.5718 52.392 87.1633 52.5056 87.6107 52.7329C88.0632 52.9555 88.413 53.2159 88.6598 53.5142C88.9118 53.8125 89.1072 54.0753 89.2461 54.3025H89.3849V48.8977H91.6915V63.4431H89.439V61.7457H89.2461C89.1072 61.9777 88.9067 62.2429 88.6444 62.5412C88.3872 62.8395 88.0324 63.0999 87.5798 63.3224C87.1273 63.545 86.541 63.6562 85.821 63.6562ZM86.3301 61.8451C86.9935 61.8451 87.5541 61.6842 88.0118 61.3622C88.4747 61.0355 88.8244 60.5833 89.061 60.0056C89.3027 59.428 89.4235 58.7556 89.4235 57.9886C89.4235 57.231 89.3052 56.5681 89.0687 56C88.8321 55.4318 88.4849 54.9891 88.0272 54.6718C87.5695 54.3546 87.0038 54.196 86.3301 54.196C85.6358 54.196 85.0573 54.3617 84.5944 54.6931C84.1316 55.0246 83.7818 55.4768 83.5453 56.0497C83.3139 56.6226 83.1981 57.2689 83.1981 57.9886C83.1981 58.7178 83.3164 59.3735 83.553 59.9559C83.7896 60.5383 84.1393 61 84.6021 61.3409C85.0701 61.6771 85.6461 61.8451 86.3301 61.8451Z" fill="#0A2A43"/>
<path d="M100.09 63.6633C98.923 63.6633 97.9175 63.4337 97.0741 62.9744C96.2358 62.5104 95.5878 61.8593 95.1301 61.0213C94.6776 60.1785 94.4513 59.1913 94.4513 58.0596C94.4513 56.9422 94.6776 55.9574 95.1301 55.1051C95.5878 54.2528 96.2255 53.5876 97.0432 53.1093C97.8661 52.6311 98.8278 52.392 99.9284 52.392C100.597 52.392 101.245 52.4938 101.872 52.6974C102.5 52.901 103.063 53.2206 103.562 53.6562C104.061 54.0918 104.454 54.6576 104.742 55.3537C105.03 56.0449 105.174 56.8854 105.174 57.875V58.6278H95.755V57.0369H102.914C102.914 56.4782 102.79 55.9834 102.544 55.5525C102.297 55.1169 101.949 54.7736 101.502 54.5227C101.06 54.2717 100.54 54.1463 99.9438 54.1463C99.2958 54.1463 98.7301 54.2931 98.2467 54.5866C97.7684 54.8754 97.3981 55.2542 97.1358 55.723C96.8787 56.187 96.7501 56.6913 96.7501 57.2358V58.4787C96.7501 59.2078 96.889 59.8281 97.1667 60.3395C97.4495 60.8508 97.843 61.2414 98.347 61.5113C98.8509 61.7765 99.4398 61.9091 100.114 61.9091C100.551 61.9091 100.949 61.8522 101.309 61.7386C101.669 61.6202 101.98 61.445 102.243 61.213C102.505 60.981 102.705 60.6946 102.844 60.3537L105.027 60.7159C104.853 61.3077 104.539 61.8262 104.086 62.2713C103.639 62.7116 103.076 63.0549 102.397 63.3011C101.723 63.5426 100.954 63.6633 100.09 63.6633Z" fill="#0A2A43"/>
<path d="M116.931 63.6846C116.18 63.6846 115.501 63.5568 114.894 63.3011C114.287 63.0407 113.806 62.6643 113.451 62.1718C113.102 61.6794 112.927 61.0757 112.927 60.3608C112.927 59.7452 113.055 59.2386 113.313 58.8409C113.57 58.4431 113.917 58.1283 114.354 57.8963C114.791 57.6643 115.28 57.4891 115.82 57.3707C116.36 57.2523 116.91 57.1624 117.471 57.1008C118.18 57.0251 118.756 56.9635 119.199 56.9162C119.641 56.8641 119.962 56.7812 120.163 56.6676C120.363 56.5539 120.464 56.3693 120.464 56.1136V56.0639C120.464 55.4436 120.273 54.963 119.893 54.6221C119.517 54.2812 118.957 54.1108 118.211 54.1108C117.435 54.1108 116.823 54.2694 116.375 54.5866C115.933 54.8991 115.627 55.2471 115.457 55.6306L113.289 55.1761C113.547 54.5132 113.922 53.9782 114.416 53.571C114.915 53.1591 115.488 52.8608 116.136 52.6761C116.784 52.4867 117.465 52.392 118.18 52.392C118.653 52.392 119.155 52.4441 119.685 52.5483C120.219 52.6477 120.718 52.8324 121.181 53.1022C121.649 53.3721 122.032 53.758 122.33 54.2599C122.629 54.7571 122.778 55.4034 122.778 56.1988V63.4431H120.525V61.9517H120.433C120.284 62.2263 120.06 62.4962 119.762 62.7613C119.463 63.0265 119.08 63.2467 118.612 63.4218C118.144 63.597 117.584 63.6846 116.931 63.6846ZM117.432 61.9801C118.07 61.9801 118.615 61.8641 119.067 61.6321C119.525 61.4001 119.872 61.097 120.109 60.723C120.351 60.3442 120.471 59.9394 120.471 59.5085V58.1022C120.389 58.178 120.23 58.249 119.993 58.3153C119.762 58.3769 119.497 58.4313 119.199 58.4787C118.9 58.5213 118.61 58.5615 118.327 58.5994C118.044 58.6325 117.807 58.661 117.617 58.6846C117.17 58.7367 116.761 58.8243 116.391 58.9474C116.025 59.0705 115.732 59.2481 115.511 59.4801C115.295 59.7074 115.187 60.0104 115.187 60.3892C115.187 60.9147 115.398 61.3125 115.82 61.5824C116.241 61.8475 116.779 61.9801 117.432 61.9801Z" fill="#0A2A43"/>
<path d="M131.381 52.5341V54.2386H124.909V52.5341H131.381ZM126.645 49.9204H128.951V60.24C128.951 60.652 129.018 60.9621 129.152 61.1704C129.286 61.374 129.458 61.5137 129.669 61.5895C129.885 61.6605 130.119 61.696 130.371 61.696C130.556 61.696 130.718 61.6842 130.857 61.6605C130.995 61.6368 131.103 61.6179 131.181 61.6037L131.597 63.3579C131.464 63.4053 131.273 63.4526 131.026 63.5C130.779 63.552 130.471 63.5805 130.101 63.5852C129.494 63.5947 128.928 63.4952 128.404 63.2869C127.879 63.0786 127.455 62.7566 127.131 62.321C126.807 61.8854 126.645 61.3385 126.645 60.6804V49.9204Z" fill="#0A2A43"/>
<path d="M138.912 63.6633C137.745 63.6633 136.739 63.4337 135.896 62.9744C135.058 62.5104 134.41 61.8593 133.952 61.0213C133.499 60.1785 133.273 59.1913 133.273 58.0596C133.273 56.9422 133.499 55.9574 133.952 55.1051C134.41 54.2528 135.047 53.5876 135.865 53.1093C136.688 52.6311 137.65 52.392 138.75 52.392C139.419 52.392 140.067 52.4938 140.694 52.6974C141.322 52.901 141.885 53.2206 142.384 53.6562C142.882 54.0918 143.276 54.6576 143.564 55.3537C143.852 56.0449 143.996 56.8854 143.996 57.875V58.6278H134.577V57.0369H141.736C141.736 56.4782 141.612 55.9834 141.365 55.5525C141.118 55.1169 140.771 54.7736 140.324 54.5227C139.882 54.2717 139.362 54.1463 138.766 54.1463C138.118 54.1463 137.552 54.2931 137.069 54.5866C136.59 54.8754 136.22 55.2542 135.958 55.723C135.701 56.187 135.572 56.6913 135.572 57.2358V58.4787C135.572 59.2078 135.711 59.8281 135.989 60.3395C136.271 60.8508 136.665 61.2414 137.169 61.5113C137.673 61.7765 138.262 61.9091 138.935 61.9091C139.373 61.9091 139.771 61.8522 140.131 61.7386C140.491 61.6202 140.802 61.445 141.064 61.213C141.327 60.981 141.527 60.6946 141.666 60.3537L143.849 60.7159C143.674 61.3077 143.361 61.8262 142.908 62.2713C142.461 62.7116 141.898 63.0549 141.219 63.3011C140.545 63.5426 139.776 63.6633 138.912 63.6633ZM137.709 51.0781L139.514 47.8039H141.944L139.553 51.0781H137.709Z" fill="#0A2A43"/>
<path d="M185.732 65.3878C180.746 65.3878 176.316 64.5327 172.443 62.8227C168.59 61.0921 165.561 58.7124 163.357 55.6838C161.152 52.6552 160.04 49.1733 160.019 45.2381H177.326C177.346 46.4537 177.717 47.5456 178.438 48.514C179.18 49.4617 180.19 50.2034 181.467 50.7391C182.744 51.2748 184.207 51.5426 185.855 51.5426C187.442 51.5426 188.843 51.2645 190.058 50.7082C191.274 50.1313 192.222 49.3381 192.902 48.3286C193.581 47.319 193.911 46.1653 193.89 44.8673C193.911 43.5899 193.52 42.4567 192.716 41.4678C191.933 40.4789 190.831 39.7062 189.409 39.15C187.988 38.5937 186.35 38.3155 184.496 38.3155H178.067V26.4483H184.496C186.206 26.4483 187.71 26.1701 189.008 25.6138C190.326 25.0576 191.346 24.285 192.067 23.296C192.809 22.3071 193.169 21.1739 193.149 19.8965C193.169 18.6604 192.871 17.5684 192.253 16.6207C191.634 15.673 190.769 14.9312 189.657 14.3956C188.565 13.8599 187.298 13.5921 185.855 13.5921C184.29 13.5921 182.889 13.8702 181.652 14.4265C180.437 14.9828 179.479 15.7554 178.778 16.7443C178.078 17.7332 177.717 18.8664 177.697 20.1438H161.255C161.276 16.2704 162.337 12.8504 164.439 9.88353C166.561 6.91671 169.466 4.58859 173.154 2.89915C176.842 1.20971 181.075 0.36499 185.855 0.36499C190.532 0.36499 194.663 1.1582 198.248 2.74463C201.853 4.33105 204.666 6.51496 206.685 9.29635C208.725 12.0571 209.734 15.2197 209.713 18.784C209.755 22.3277 208.539 25.2327 206.067 27.499C203.615 29.7653 200.504 31.1045 196.734 31.5166V32.0111C201.843 32.5673 205.686 34.1332 208.261 36.7085C210.836 39.2633 212.103 42.4773 212.062 46.3507C212.083 50.0592 210.97 53.3454 208.725 56.2092C206.499 59.073 203.399 61.3187 199.422 62.9463C195.467 64.5739 190.903 65.3878 185.732 65.3878Z" fill="#0A2A43"/>
<path d="M243.587 65.3878C238.602 65.3878 234.172 64.5327 230.299 62.8227C226.446 61.0921 223.417 58.7124 221.213 55.6838C219.008 52.6552 217.896 49.1733 217.875 45.2381H235.181C235.202 46.4537 235.573 47.5456 236.294 48.514C237.036 49.4617 238.045 50.2034 239.323 50.7391C240.6 51.2748 242.063 51.5426 243.711 51.5426C245.297 51.5426 246.698 51.2645 247.914 50.7082C249.13 50.1313 250.077 49.3381 250.757 48.3286C251.437 47.319 251.767 46.1653 251.746 44.8673C251.767 43.5899 251.375 42.4567 250.572 41.4678C249.789 40.4789 248.687 39.7062 247.265 39.15C245.843 38.5937 244.206 38.3155 242.351 38.3155H235.923V26.4483H242.351C244.061 26.4483 245.565 26.1701 246.863 25.6138C248.182 25.0576 249.202 24.285 249.923 23.296C250.665 22.3071 251.025 21.1739 251.004 19.8965C251.025 18.6604 250.726 17.5684 250.108 16.6207C249.49 15.673 248.625 14.9312 247.512 14.3956C246.42 13.8599 245.153 13.5921 243.711 13.5921C242.145 13.5921 240.744 13.8702 239.508 14.4265C238.293 14.9828 237.334 15.7554 236.634 16.7443C235.933 17.7332 235.573 18.8664 235.552 20.1438H219.111C219.132 16.2704 220.193 12.8504 222.294 9.88353C224.416 6.91671 227.321 4.58859 231.009 2.89915C234.697 1.20971 238.931 0.36499 243.711 0.36499C248.388 0.36499 252.519 1.1582 256.104 2.74463C259.709 4.33105 262.522 6.51496 264.541 9.29635C266.58 12.0571 267.59 15.2197 267.569 18.784C267.61 22.3277 266.395 25.2327 263.923 27.499C261.471 29.7653 258.36 31.1045 254.589 31.5166V32.0111C259.699 32.5673 263.541 34.1332 266.117 36.7085C268.692 39.2633 269.959 42.4773 269.918 46.3507C269.939 50.0592 268.826 53.3454 266.58 56.2092C264.355 59.073 261.254 61.3187 257.278 62.9463C253.322 64.5739 248.759 65.3878 243.587 65.3878Z" fill="#0A2A43"/>
<path d="M289.636 33.4428V31.4176C289.636 29.7925 289.984 28.2923 290.68 26.9172C291.387 25.5421 292.412 24.4358 293.753 23.5982C295.094 22.7606 296.727 22.3418 298.652 22.3418C300.627 22.3418 302.284 22.7544 303.626 23.5794C304.979 24.4045 306.004 25.5046 306.699 26.8797C307.394 28.2548 307.742 29.7675 307.742 31.4176V33.4428C307.742 35.0679 307.388 36.568 306.68 37.9432C305.985 39.3183 304.96 40.4246 303.607 41.2622C302.253 42.0998 300.602 42.5185 298.652 42.5185C296.702 42.5185 295.057 42.0998 293.716 41.2622C292.375 40.4246 291.356 39.3183 290.661 37.9432C289.978 36.568 289.636 35.0679 289.636 33.4428ZM296.119 31.4176V33.4428C296.119 34.1553 296.293 34.8616 296.64 35.5617C297 36.2493 297.671 36.593 298.652 36.593C299.683 36.593 300.36 36.2555 300.682 35.5805C301.018 34.9054 301.185 34.1928 301.185 33.4428V31.4176C301.185 30.6675 301.03 29.9425 300.72 29.2424C300.409 28.5424 299.72 28.1923 298.652 28.1923C297.671 28.1923 297 28.5424 296.64 29.2424C296.293 29.9425 296.119 30.6675 296.119 31.4176ZM269.668 11.4659V9.44075C269.668 7.79061 270.022 6.27799 270.73 4.90287C271.45 3.52776 272.481 2.42766 273.822 1.60259C275.163 0.777525 276.784 0.36499 278.684 0.36499C280.658 0.36499 282.316 0.777525 283.657 1.60259C285.011 2.42766 286.035 3.52776 286.731 4.90287C287.426 6.27799 287.774 7.79061 287.774 9.44075V11.4659C287.774 13.1161 287.42 14.6224 286.712 15.9851C286.017 17.3477 284.992 18.4353 283.638 19.2478C282.285 20.0604 280.633 20.4667 278.684 20.4667C276.734 20.4667 275.089 20.0541 273.747 19.2291C272.406 18.404 271.388 17.3102 270.692 15.9476C270.009 14.5849 269.668 13.0911 269.668 11.4659ZM276.225 9.44075V11.4659C276.225 12.216 276.399 12.9285 276.746 13.6036C277.094 14.2787 277.74 14.6162 278.684 14.6162C279.714 14.6162 280.391 14.2787 280.714 13.6036C281.049 12.9285 281.217 12.216 281.217 11.4659V9.44075C281.217 8.69069 281.062 7.96563 280.751 7.26557C280.441 6.56551 279.752 6.21548 278.684 6.21548C277.703 6.21548 277.044 6.57801 276.709 7.30307C276.386 8.01564 276.225 8.72819 276.225 9.44075ZM272.835 40.6434L299.062 2.24015H304.352L278.125 40.6434H272.835Z" fill="#0A2A43"/>
<path d="M284.607 58.1562C284.607 59.7439 284.307 61.0946 283.708 62.2084C283.113 63.3222 282.301 64.1729 281.272 64.7606C280.248 65.3435 279.096 65.635 277.817 65.635C276.529 65.635 275.372 65.3412 274.348 64.7535C273.324 64.1658 272.515 63.3151 271.92 62.2013C271.325 61.0875 271.028 59.7391 271.028 58.1562C271.028 56.5684 271.325 55.2177 271.92 54.1039C272.515 52.9902 273.324 52.1418 274.348 51.5588C275.372 50.9712 276.529 50.6773 277.817 50.6773C279.096 50.6773 280.248 50.9712 281.272 51.5588C282.301 52.1418 283.113 52.9902 283.708 54.1039C284.307 55.2177 284.607 56.5684 284.607 58.1562ZM281.499 58.1562C281.499 57.1277 281.346 56.2604 281.039 55.5542C280.737 54.848 280.31 54.3125 279.757 53.9475C279.205 53.5826 278.558 53.4001 277.817 53.4001C277.076 53.4001 276.43 53.5826 275.877 53.9475C275.325 54.3125 274.896 54.848 274.589 55.5542C274.287 56.2604 274.136 57.1277 274.136 58.1562C274.136 59.1846 274.287 60.0519 274.589 60.7581C274.896 61.4643 275.325 61.9999 275.877 62.3648C276.43 62.7297 277.076 62.9122 277.817 62.9122C278.558 62.9122 279.205 62.7297 279.757 62.3648C280.31 61.9999 280.737 61.4643 281.039 60.7581C281.346 60.0519 281.499 59.1846 281.499 58.1562Z" fill="#0A2A43"/>
<path d="M286.679 65.436V50.8764H296.279V53.4143H289.744V56.8836H295.642V59.4216H289.744V65.436H286.679Z" fill="#0A2A43"/>
<path d="M298.142 65.436V50.8764H307.742V53.4143H301.207V56.8836H307.105V59.4216H301.207V65.436H298.142Z" fill="#0A2A43"/>
</svg>
