<svg width="128" height="128" viewBox="0 0 128 128" fill="none" xmlns="http://www.w3.org/2000/svg">
<path d="M114.563 91.1022L107.518 87.4886L108.279 85.9929L115.324 89.6065L114.563 91.1022Z" fill="white"/>
<path d="M108.885 99.9601L102.433 95.3636L103.269 94.1804L109.321 94.2546L109.355 94.2071L105.294 91.3142L106.262 89.9443L112.714 94.5407L111.865 95.7429L105.831 95.6489L105.791 95.7058L109.849 98.5965L108.885 99.9601Z" fill="white"/>
<path d="M100.669 97.3516L106.208 103.024L102.468 106.706L101.502 105.717L104.048 103.211L102.728 101.859L100.431 104.122L99.4653 103.133L101.763 100.871L99.4747 98.5276L100.669 97.3516Z" fill="white"/>
<path d="M95.0891 102.597L99.5936 109.127L97.0279 110.912C96.5367 111.253 96.0567 111.457 95.5878 111.522C95.1183 111.59 94.6818 111.528 94.2783 111.333C93.8742 111.142 93.5233 110.831 93.2257 110.4C92.9265 109.966 92.7623 109.528 92.7331 109.086C92.7053 108.646 92.811 108.22 93.0501 107.809C93.2872 107.398 93.6555 107.02 94.1551 106.672L95.873 105.477L96.6384 106.587L95.1428 107.627C94.8803 107.81 94.6872 107.998 94.5634 108.191C94.4397 108.384 94.3854 108.582 94.4004 108.785C94.4133 108.99 94.4938 109.2 94.6419 109.415C94.7915 109.632 94.961 109.784 95.1504 109.873C95.3377 109.962 95.5456 109.985 95.7741 109.939C96.002 109.897 96.2482 109.784 96.5128 109.6L97.44 108.955L93.7141 103.553L95.0891 102.597ZM93.627 108.011L89.9608 106.164L91.4786 105.108L95.1099 106.98L93.627 108.011Z" fill="white"/>
<path d="M86.799 107.819L88.4361 107.086L89.162 115.458L87.1933 116.339L81.4819 110.198L83.1191 109.465L87.4135 114.253L87.47 114.228L86.799 107.819ZM88.1672 110.625L84.3002 112.355L83.7687 111.158L87.6357 109.427L88.1672 110.625Z" fill="white"/>
<path d="M79.8761 118.881L76.6746 113.424L76.603 113.441L76.0724 119.753L74.2648 120.167L75.1634 111.813L77.2648 111.332L81.6875 118.466L79.8761 118.881Z" fill="white"/>
<path d="M70.4279 112.604L70.7713 120.541L65.4457 120.773L65.3858 119.39L69.0404 119.23L68.9586 117.339L65.578 117.487L65.5181 116.103L68.8988 115.956L68.8168 114.061L65.1467 114.221L65.0869 112.837L70.4279 112.604Z" fill="white"/>
<path d="M62.5185 112.757L61.4994 120.635L58.4043 120.231C57.8118 120.154 57.3199 119.981 56.9286 119.714C56.5345 119.449 56.2526 119.108 56.0831 118.692C55.9107 118.279 55.8582 117.811 55.9255 117.291C55.9932 116.768 56.1638 116.332 56.4373 115.985C56.7104 115.64 57.0732 115.395 57.5255 115.25C57.9753 115.106 58.5016 115.073 59.1043 115.151L61.1766 115.422L61.0034 116.76L59.1992 116.525C58.8826 116.484 58.6139 116.493 58.3932 116.553C58.1725 116.613 57.9998 116.723 57.8751 116.884C57.7478 117.045 57.6675 117.255 57.634 117.514C57.6001 117.775 57.6239 118.003 57.7054 118.196C57.7843 118.389 57.9238 118.545 58.1238 118.665C58.321 118.787 58.5791 118.869 58.8984 118.911L60.0169 119.057L60.8599 112.541L62.5185 112.757ZM57.8181 115.789L56.3321 111.95L58.1631 112.189L59.607 116.023L57.8181 115.789Z" fill="white"/>
<path d="M51.5784 119.056L49.6305 118.375L49.3216 112.615L49.2341 112.584L45.4282 116.905L43.4803 116.224L46.0827 108.722L47.6147 109.258L45.9209 114.141L45.9829 114.162L49.5974 109.992L50.6407 110.357L50.8865 115.898L50.9485 115.92L52.6487 111.019L54.1808 111.555L51.5784 119.056Z" fill="white"/>
<path d="M43.816 107.495L39.7782 114.326L35.1942 111.594L35.898 110.403L39.0437 112.278L40.0059 110.65L37.096 108.916L37.7998 107.725L40.7097 109.459L41.6738 107.828L38.5148 105.945L39.2186 104.755L43.816 107.495Z" fill="white"/>
<path d="M37.1199 103.242L32.0409 109.333L30.7586 108.254L34.9522 103.225L32.3519 101.039L33.2372 99.9773L37.1199 103.242Z" fill="white"/>
<path d="M31.5589 98.3893L25.4995 103.497L24.4242 102.21L26.9243 100.103L24.7413 97.4914L22.2413 99.5986L21.1684 98.3151L27.2278 93.2079L28.3006 94.4914L25.7976 96.6011L27.9805 99.2126L30.4835 97.1029L31.5589 98.3893Z" fill="white"/>
<path d="M18.8434 86.629C19.6014 86.2153 20.3243 86.0077 21.0122 86.006C21.6989 86.0021 22.3165 86.1712 22.8652 86.5134C23.4103 86.8545 23.8495 87.333 24.1828 87.9487C24.5185 88.5689 24.6795 89.2021 24.6658 89.8483C24.6521 90.4945 24.4569 91.1058 24.0801 91.6822C23.7033 92.2587 23.1371 92.7532 22.3814 93.1656C21.6234 93.5793 20.9011 93.7881 20.2145 93.792C19.5278 93.7959 18.9119 93.6273 18.3667 93.2862C17.8193 92.9463 17.3778 92.4662 17.042 91.8459C16.7088 91.2302 16.549 90.5993 16.5627 89.9531C16.5729 89.3059 16.7664 88.6941 17.1432 88.1176C17.5187 87.5389 18.0855 87.0427 18.8434 86.629ZM19.6532 88.1251C19.1622 88.3931 18.7881 88.6929 18.5309 89.0246C18.2725 89.354 18.1281 89.6992 18.0978 90.0601C18.0675 90.421 18.1488 90.7798 18.3419 91.1365C18.535 91.4932 18.7906 91.7569 19.1087 91.9277C19.4268 92.0984 19.7943 92.1656 20.2114 92.1293C20.6272 92.0907 21.0806 91.9374 21.5716 91.6695C22.0626 91.4015 22.4373 91.1028 22.6957 90.7734C22.9529 90.4417 23.0967 90.0955 23.127 89.7345C23.1574 89.3736 23.076 89.0148 22.8829 88.6581C22.6899 88.3014 22.4343 88.0377 22.1162 87.8669C21.7981 87.6962 21.4311 87.6301 21.0153 87.6687C20.5982 87.705 20.1442 87.8572 19.6532 88.1251Z" fill="white"/>
<path d="M11.4726 67.4107L11.5291 65.9075L10.3005 66.7826L9.75865 65.8814L11.0887 65.186L9.72349 64.563L10.2165 63.634L11.49 64.4418L11.3535 62.9438L12.3922 62.9159L12.3318 64.4192L13.5605 63.5441L14.1023 64.4453L12.7761 65.1406L14.1375 65.7636L13.6445 66.6926L12.3709 65.8849L12.5113 67.3828L11.4726 67.4107Z" fill="white"/>
<path d="M14.6268 39.1165L21.6573 42.7586L20.8905 44.2512L13.8599 40.6091L14.6268 39.1165Z" fill="white"/>
<path d="M20.3399 30.2817L26.7737 34.9042L25.9331 36.084L19.881 35.9854L19.8473 36.0327L23.8967 38.942L22.9234 40.308L16.4896 35.6855L17.3438 34.4868L23.377 34.6052L23.4174 34.5484L19.3712 31.6413L20.3399 30.2817Z" fill="white"/>
<path d="M28.5459 32.9233L23.0299 27.229L26.7845 23.5615L27.746 24.5541L25.1903 27.0505L26.5047 28.4074L28.8112 26.1544L29.7727 27.147L27.4663 29.4L29.7449 31.7522L28.5459 32.9233Z" fill="white"/>
<path d="M34.1468 27.7008L29.6684 21.1522L32.2413 19.378C32.7338 19.0384 33.2146 18.837 33.6838 18.7739C34.1536 18.7071 34.5898 18.7718 34.9925 18.9677C35.3959 19.1601 35.7455 19.4727 36.0415 19.9054C36.3389 20.3403 36.5013 20.7788 36.5288 21.221C36.5548 21.661 36.4474 22.0864 36.2066 22.4972C35.9679 22.9065 35.5981 23.2838 35.0971 23.6293L33.3744 24.8172L32.6134 23.7045L34.1132 22.6703C34.3765 22.4887 34.5703 22.3017 34.6948 22.1092C34.8193 21.9167 34.8745 21.7187 34.8603 21.5152C34.8482 21.3102 34.7685 21.1001 34.6213 20.8848C34.4726 20.6673 34.3037 20.514 34.1146 20.4248C33.9277 20.3342 33.7198 20.3112 33.4912 20.356C33.2632 20.3971 33.0165 20.5092 32.7511 20.6922L31.8213 21.3334L35.5256 26.75L34.1468 27.7008ZM35.6306 22.2921L39.2894 24.1545L37.7673 25.2041L34.1435 23.3175L35.6306 22.2921Z" fill="white"/>
<path d="M42.4576 22.5126L40.8176 23.2386L40.1252 14.8634L42.0975 13.9903L47.7841 20.1545L46.1441 20.8805L41.8689 16.0754L41.8123 16.1004L42.4576 22.5126ZM41.1007 19.7008L44.9746 17.9858L45.5012 19.1855L41.6274 20.9004L41.1007 19.7008Z" fill="white"/>
<path d="M49.4248 11.4779L52.6044 16.9478L52.676 16.9317L53.2319 10.6216L55.0412 10.2146L54.1092 18.565L52.0059 19.0381L47.6118 11.8857L49.4248 11.4779Z" fill="white"/>
<path d="M58.8478 17.7929L58.5363 9.85515L63.8628 9.64433L63.9171 11.028L60.2619 11.1727L60.3361 13.0641L63.7173 12.9303L63.7716 14.314L60.3904 14.4478L60.4648 16.3431L64.1355 16.1978L64.1898 17.5815L58.8478 17.7929Z" fill="white"/>
<path d="M66.7578 17.6723L67.8085 9.79874L70.902 10.215C71.4941 10.2947 71.9853 10.4691 72.3755 10.7381C72.7686 11.005 73.0491 11.3466 73.2169 11.7632C73.3877 12.1775 73.4384 12.6448 73.3689 13.1651C73.2992 13.688 73.1268 14.1227 72.8519 14.4692C72.5774 14.8132 72.2137 15.0565 71.7607 15.199C71.3104 15.3419 70.784 15.3728 70.1816 15.2918L68.1104 15.0131L68.2889 13.6752L70.0922 13.9178C70.4087 13.9604 70.6774 13.9522 70.8983 13.8933C71.1192 13.8343 71.2924 13.7245 71.4177 13.564C71.5456 13.4038 71.6268 13.1942 71.6614 12.9354C71.6963 12.6739 71.6734 12.4465 71.5927 12.253C71.5145 12.0598 71.3757 11.9029 71.1761 11.7821C70.9795 11.6591 70.7216 11.5761 70.4026 11.5332L69.2847 11.3828L68.4156 17.8954L66.7578 17.6723ZM71.4703 14.659L72.9409 18.5043L71.1109 18.2581L69.6824 14.4184L71.4703 14.659Z" fill="white"/>
<path d="M77.723 11.4171L79.6682 12.1064L79.954 17.8675L80.0414 17.8985L83.8646 13.5933L85.8097 14.2825L83.1773 21.7738L81.6474 21.2317L83.3608 16.3558L83.2989 16.3339L79.6677 20.4891L78.6259 20.1199L78.4023 14.5783L78.3403 14.5563L76.6205 19.4505L75.0906 18.9084L77.723 11.4171Z" fill="white"/>
<path d="M85.439 23.0103L89.5041 16.1953L94.0771 18.9459L93.3685 20.1339L90.2304 18.2463L89.2617 19.8702L92.1646 21.6162L91.456 22.8042L88.5531 21.0582L87.5825 22.6854L90.7339 24.5809L90.0253 25.7688L85.439 23.0103Z" fill="white"/>
<path d="M92.118 27.2896L97.2213 21.2196L98.4994 22.3031L94.2857 27.315L96.8771 29.512L95.9876 30.5701L92.118 27.2896Z" fill="white"/>
<path d="M97.6596 32.1649L103.739 27.0822L104.81 28.373L102.301 30.4701L104.473 33.0904L106.982 30.9933L108.05 32.2811L101.97 37.3638L100.902 36.076L103.414 33.9764L101.241 31.3561L98.7298 33.4557L97.6596 32.1649Z" fill="white"/>
<path d="M110.328 43.9766C109.568 44.3872 108.844 44.5919 108.156 44.5908C107.47 44.5919 106.853 44.4203 106.306 44.0759C105.762 43.7326 105.324 43.2524 104.994 42.6353C104.66 42.0137 104.502 41.3798 104.518 40.7337C104.535 40.0876 104.732 39.4771 105.111 38.9022C105.49 38.3272 106.059 37.8351 106.816 37.4257C107.576 37.0151 108.299 36.8092 108.985 36.8081C109.672 36.8069 110.287 36.978 110.831 37.3214C111.377 37.6635 111.817 38.1453 112.15 38.767C112.481 39.384 112.638 40.0156 112.622 40.6617C112.609 41.3088 112.413 41.9199 112.034 42.4948C111.656 43.072 111.087 43.5659 110.328 43.9766ZM109.524 42.4772C110.016 42.2112 110.391 41.9129 110.65 41.5822C110.91 41.2539 111.055 40.9093 111.087 40.5485C111.119 40.1877 111.039 39.8286 110.847 39.4711C110.656 39.1136 110.401 38.8489 110.084 38.6769C109.766 38.5048 109.399 38.4361 108.982 38.4708C108.566 38.5077 108.112 38.6591 107.62 38.9251C107.128 39.1911 106.752 39.4882 106.492 39.8166C106.234 40.1472 106.088 40.4929 106.057 40.8537C106.025 41.2145 106.105 41.5736 106.296 41.9311C106.488 42.2886 106.743 42.5534 107.06 42.7254C107.377 42.8974 107.744 42.965 108.16 42.9281C108.577 42.8935 109.032 42.7431 109.524 42.4772Z" fill="white"/>
<path d="M113.895 67.3872L113.951 65.884L112.723 66.759L112.181 65.8579L113.511 65.1624L112.146 64.5395L112.639 63.6105L113.912 64.4183L113.776 62.9203L114.814 62.8924L114.754 64.3956L115.983 63.5206L116.525 64.4218L115.198 65.1171L116.56 65.7401L116.067 66.6691L114.793 65.8613L114.934 67.3592L113.895 67.3872Z" fill="white"/>
<path fill-rule="evenodd" clip-rule="evenodd" d="M64 124.179C97.236 124.179 124.179 97.236 124.179 64C124.179 30.764 97.236 3.8209 64 3.8209C30.764 3.8209 3.8209 30.764 3.8209 64C3.8209 97.236 30.764 124.179 64 124.179ZM64 128C99.3462 128 128 99.3462 128 64C128 28.6538 99.3462 0 64 0C28.6538 0 0 28.6538 0 64C0 99.3462 28.6538 128 64 128Z" fill="white"/>
<path fill-rule="evenodd" clip-rule="evenodd" d="M64 104.758C86.2699 104.758 104.323 86.6294 104.323 64.2667C104.323 41.9039 86.2699 23.7753 64 23.7753C41.7301 23.7753 23.6767 41.9039 23.6767 64.2667C23.6767 86.6294 41.7301 104.758 64 104.758ZM64 106.667C87.3197 106.667 106.224 87.6835 106.224 64.2667C106.224 40.8498 87.3197 21.8667 64 21.8667C40.6803 21.8667 21.7759 40.8498 21.7759 64.2667C21.7759 87.6835 40.6803 106.667 64 106.667Z" fill="white"/>
<path fill-rule="evenodd" clip-rule="evenodd" d="M44.4369 44.2072C44.2629 44.3218 43.7266 44.8513 43.2451 45.3837C39.3292 49.7133 36.9602 54.8383 36.1416 60.7514C35.9528 62.1152 35.9528 66.3959 36.1416 67.7597C36.96 73.6719 39.3302 78.7947 43.2599 83.1451C44.2661 84.259 44.6528 84.5139 45.3368 84.5139C46.2395 84.5139 46.9067 83.8432 46.9067 82.9356C46.9067 82.3155 46.7867 82.0998 45.9396 81.1972C41.0859 76.026 38.6915 69.0463 39.3389 61.956C39.8343 56.5301 42.1863 51.3127 45.9396 47.3139C46.7867 46.4114 46.9067 46.1957 46.9067 45.5755C46.9067 45.0048 46.6078 44.4642 46.14 44.1889C45.6994 43.9296 44.844 43.9388 44.4369 44.2072ZM81.7771 44.2077C81.305 44.5189 81.0356 45.0149 81.0356 45.5727C81.0356 46.1959 81.1549 46.4106 82.0027 47.3139C86.8503 52.4787 89.25 59.4737 88.6034 66.5552C88.1075 71.9868 85.76 77.1942 82.0027 81.1972C81.1556 82.0998 81.0356 82.3155 81.0356 82.9356C81.0356 83.8432 81.7028 84.5139 82.6055 84.5139C83.2667 84.5139 83.6507 84.2688 84.579 83.2546C93.8643 73.1083 94.5078 57.8499 86.1052 47.0641C85.0525 45.713 83.8424 44.4093 83.4362 44.1889C82.9657 43.9335 82.1794 43.9424 81.7771 44.2077ZM49.5078 49.1419C49.0858 49.3649 47.966 50.5882 47.0475 51.8297C44.1158 55.7916 42.6354 60.9541 43.0415 65.8C43.4455 70.6236 45.1571 74.6432 48.3668 78.3071C49.473 79.5698 50.1407 79.8308 51.0622 79.3607C51.3751 79.2012 51.565 79.0013 51.7125 78.6763C52.1094 77.8021 51.9382 77.3066 50.8232 76.1024C49.8358 75.0361 48.5697 73.1465 47.9453 71.8078C45.3094 66.1549 45.7968 59.6045 49.2363 54.4585C49.6805 53.7941 50.3946 52.8717 50.8232 52.4087C51.9382 51.2045 52.1094 50.709 51.7125 49.8348C51.3439 49.0228 50.3337 48.7053 49.5078 49.1419ZM76.8665 49.1507C76.4038 49.395 76.0166 50.041 76.0166 50.5686C76.0166 51.0623 76.2843 51.5061 77.1384 52.4291C78.08 53.4466 79.3676 55.3569 79.9514 56.6026C82.6464 62.3538 82.1622 68.9039 78.6558 74.1302C78.2386 74.752 77.5555 75.6303 77.1379 76.082C75.9723 77.3424 75.8208 77.7754 76.2298 78.6763C76.5971 79.4852 77.5761 79.8015 78.4027 79.3781C78.8397 79.1543 79.9765 77.9234 80.8906 76.6843C83.8242 72.7074 85.3063 67.551 84.9023 62.728C84.4975 57.8979 82.7819 53.8643 79.5755 50.2041C78.4747 48.9474 77.7703 48.6735 76.8665 49.1507ZM54.937 53.9635C54.365 54.0857 54.129 54.2773 53.2634 55.3227C51.3783 57.5993 50.2781 60.2847 50.0857 63.0784C49.8187 66.9557 50.8692 70.2969 53.2649 73.1903C54.1992 74.3185 54.5626 74.5673 55.2775 74.5673C56.2669 74.5673 56.9273 73.8239 56.8307 72.8188C56.7744 72.2325 56.772 72.2287 55.5911 70.8258C54.873 69.9728 53.9904 68.2452 53.6741 67.0738C53.225 65.4101 53.2229 63.108 53.669 61.4561C53.9899 60.2675 54.8688 58.5433 55.5911 57.6853C56.7903 56.2608 56.7791 56.2788 56.8307 55.6582C56.8689 55.1962 56.8311 54.9929 56.6536 54.7079C56.284 54.1147 55.6058 53.8206 54.937 53.9635ZM72.3482 53.9637C71.495 54.1464 71.0382 54.7723 71.1116 55.6582C71.1632 56.2788 71.152 56.2608 72.3512 57.6853C73.0623 58.53 73.9403 60.2422 74.2886 61.4632C74.5057 62.2248 74.5383 62.5895 74.5383 64.2556C74.5383 65.9217 74.5057 66.2863 74.2886 67.0479C73.9393 68.2725 73.061 69.9832 72.3489 70.8258C71.1468 72.2483 71.0889 72.3452 71.0889 72.9373C71.0889 73.903 71.733 74.5673 72.6695 74.5673C73.3152 74.5673 73.6974 74.3452 74.3422 73.5959C76.1856 71.4534 77.2808 69.197 77.7294 66.6163C77.9982 65.0706 77.8881 62.2493 77.5025 60.8062C77.1669 59.5496 76.6743 58.3544 76.0238 57.2178C75.5252 56.3467 74.1528 54.5977 73.7086 54.2671C73.352 54.0018 72.773 53.8727 72.3482 53.9637ZM62.7666 57.4253C60.2374 57.9141 58.2003 59.7355 57.3322 62.2845C57.0425 63.1353 57.0416 65.3713 57.3307 66.2266C58.1527 68.6587 59.9173 70.3326 62.3019 70.9425C64.5924 71.5283 67.1138 70.8446 68.7799 69.1858C70.0701 67.9012 70.736 66.4276 70.8404 64.6258C71.0221 61.4901 69.153 58.7581 66.0818 57.6704C65.4563 57.4489 63.4229 57.2985 62.7666 57.4253Z" fill="white"/>
</svg>
