<svg width="80" height="80" viewBox="0 0 80 80" fill="none" xmlns="http://www.w3.org/2000/svg">
<rect width="80" height="80" rx="8" fill="#32CD32"/>
<path fill-rule="evenodd" clip-rule="evenodd" d="M24.9805 12.277C24.682 12.5753 24.637 12.855 24.8223 13.2608C24.9015 13.4342 28.7195 15.8306 36.4332 20.5483C42.7543 24.4144 48.4329 27.9137 49.0524 28.3245C50.3445 29.1814 51.811 30.6355 52.6309 31.8725C54.1781 34.2073 54.9807 37.1205 54.8059 39.7678C54.7582 40.4894 53.8589 45.2225 52.1002 54.0072C49.2438 68.2742 49.3575 67.5122 50.03 67.8891C50.3014 68.0413 50.3715 68.0392 50.7299 67.8683C50.9615 67.7579 51.154 67.5712 51.1897 67.4222C51.2236 67.2811 52.4201 61.3457 53.8487 54.2322L56.4461 41.2985L56.501 39.499C56.5427 38.1319 56.5113 37.4428 56.3706 36.6311C56.1556 35.3904 55.5744 33.5825 55.0628 32.5631C54.0952 30.6347 52.4166 28.6134 50.7452 27.3637C50.3096 27.038 45.1705 23.8442 39.325 20.2661C25.3995 11.7423 25.8312 12.0008 25.5233 12.0008C25.3766 12.0008 25.1323 12.1251 24.9805 12.277ZM22.9049 18.5239C22.6092 18.8196 22.6058 19.4592 22.8987 19.7286C23.2535 20.055 38.5122 29.6592 39.0837 29.9158C39.448 30.0793 39.9127 30.1641 40.6184 30.1956C41.4823 30.2343 41.7605 30.1982 42.5166 29.9495C43.5086 29.6233 43.7358 29.6022 44.2849 29.7861C45.4322 30.1702 46.0491 31.3056 45.7382 32.4604C45.6435 32.8117 45.3908 33.1769 44.8382 33.7608C44.0398 34.6043 43.6049 35.3231 43.3739 36.1812C43.1942 36.8483 42.4705 37.575 41.8082 37.7534C40.9256 37.991 39.7822 37.5189 39.3863 36.7533C39.2965 36.5796 39.1385 36.0887 39.0353 35.6626C38.6561 34.0968 37.7494 32.626 36.6258 31.7544C36.1667 31.3981 23.0042 23.0319 21.7623 22.3069C21.1849 21.9698 20.8152 21.985 20.4764 22.3594C20.2293 22.6323 20.224 23.1821 20.4659 23.4494C20.5678 23.562 23.9713 25.7515 28.0292 28.315C32.9746 31.4392 35.59 33.1579 35.9619 33.5279C36.6152 34.1777 37.1143 35.1427 37.3636 36.2375C37.6979 37.705 38.4011 38.6176 39.649 39.2026C40.1855 39.4542 40.4339 39.4989 41.2932 39.4984C42.4901 39.4978 43.0639 39.2832 43.8795 38.5314C44.4985 37.9609 44.8521 37.3797 45.1332 36.4709C45.2969 35.9412 45.5043 35.6249 46.1445 34.9276C47.2949 33.6744 47.4792 33.2492 47.4775 31.8512C47.4761 30.5196 47.2469 29.925 46.4141 29.0922C45.6686 28.3469 44.9737 28.0481 43.8588 27.9936C43.0759 27.9554 42.8023 27.9948 42.0313 28.2567C41.0271 28.598 40.3265 28.594 39.6404 28.243C39.4361 28.1384 35.7944 25.8582 31.548 23.1759C23.4078 18.0342 23.3993 18.0295 22.9049 18.5239ZM15.2305 26.4576C14.8904 26.6449 14.7452 27.0336 14.8537 27.4659C14.8926 27.6211 15.4013 28.225 15.9842 28.8078C19.8634 32.687 26.4032 36.9001 33.2686 39.9429L34.4663 40.4736L33.9235 41.6171C33.1837 43.1758 32.6298 44.826 32.3427 46.3269C32.1447 47.3613 32.1128 47.8417 32.1617 49.0517C32.1944 49.8597 32.2803 50.9256 32.3529 51.4205C32.6695 53.5812 32.0586 57.6644 30.7083 62.4141C30.1003 64.5528 30.0839 64.6459 30.2644 64.9215C30.6362 65.4889 31.3612 65.5029 31.7208 64.9497C32.1282 64.3229 33.4843 58.9488 33.8719 56.4253C34.1718 54.4719 34.2168 51.9432 33.9821 50.2338C33.8084 48.9696 33.7992 48.6139 33.9149 47.659C34.1647 45.5977 34.7658 43.7795 35.9596 41.4736C36.326 40.7657 36.6258 40.0979 36.6258 39.9896C36.6258 39.6052 36.1019 39.2392 34.7139 38.6543C27.8951 35.781 21.0799 31.4428 17.1002 27.4423C16.5341 26.8732 15.9509 26.3806 15.8045 26.3477C15.6581 26.3147 15.3997 26.3642 15.2305 26.4576ZM61.2378 26.6674C60.7203 26.9361 57.2706 29.7844 57.1169 30.0701C56.8292 30.6043 57.2391 31.2327 57.8754 31.2327C58.233 31.2327 58.5303 31.0334 60.2674 29.63C62.5902 27.7533 62.7721 27.5032 62.2402 26.9181C61.9078 26.5525 61.605 26.4768 61.2378 26.6674ZM61.2689 32.1376C60.0079 32.5637 58.8818 32.9979 58.7665 33.1022C58.3227 33.504 58.5486 34.3165 59.1653 34.5367C59.4498 34.6383 64.1512 33.0812 64.4895 32.7734C65.0089 32.3008 64.6214 31.3367 63.919 31.3538C63.7225 31.3586 62.5299 31.7113 61.2689 32.1376ZM48.7324 35.1914C48.494 35.2417 48.1457 35.392 47.9583 35.5254C47.6154 35.7696 46.0562 38.0619 45.7746 38.7359C45.2958 39.8816 46.0068 41.2401 47.254 41.5629C47.7511 41.6915 50.7381 41.8818 51.3584 41.8244C52.5225 41.7165 53.397 40.5627 53.2182 39.3708C53.1431 38.8697 52.896 38.4979 51.1477 36.256C50.4205 35.3234 49.6713 34.9932 48.7324 35.1914ZM59.0782 36.7518C58.7103 37.0411 58.6718 37.6458 59.0005 37.9744C59.2614 38.2353 59.3309 38.2477 62.2426 38.5523C64.3512 38.7727 64.5433 38.777 64.7995 38.6092C65.2969 38.2832 65.3123 37.4406 64.8256 37.175C64.6092 37.0569 60.5134 36.54 59.6686 36.5241C59.5069 36.5211 59.2411 36.6236 59.0782 36.7518ZM50.4331 38.2018C51.0042 38.9419 51.4715 39.647 51.4715 39.7687C51.4715 40.1087 51.1599 40.1432 49.3059 40.0088C47.4508 39.8743 47.1858 39.7729 47.4414 39.2952C47.9453 38.3537 49.0215 36.856 49.1942 36.856C49.3176 36.856 49.7942 37.3737 50.4331 38.2018ZM40.6997 41.1367C40.0012 41.2744 39.1404 41.7805 38.6421 42.3465C37.477 43.6702 37.4467 45.6324 38.5678 47.1714C39.1648 47.991 39.4202 48.571 39.5556 49.4145C39.6739 50.1507 39.6334 50.4535 38.6023 56.5506C38.0101 60.0525 37.5256 63.0282 37.5256 63.1632C37.5256 63.4941 38.0122 63.9605 38.3577 63.9605C38.5117 63.9605 38.7671 63.8467 38.9253 63.7075C39.1982 63.4674 39.2674 63.1323 40.2811 57.1396C40.9647 53.0993 41.3494 50.5254 41.3494 49.9935C41.3494 48.6216 40.9055 47.3366 40.0402 46.2034C39.3604 45.3129 39.3008 44.5275 39.8489 43.6795C40.167 43.1875 40.857 42.823 41.4774 42.8192C41.7024 42.8179 42.2143 42.9702 42.615 43.1577C43.0156 43.3451 43.616 43.5294 43.9491 43.567C44.7665 43.6595 44.9523 43.7732 46.1579 44.9198C47.5168 46.2123 47.5275 46.3244 46.3997 47.4646C45.9607 47.9084 45.3976 48.5691 45.1484 48.9328C44.5694 49.7776 43.8909 51.229 43.6699 52.0953C43.4432 52.9833 41.6868 63.3677 41.6868 63.8193C41.6868 64.2264 42.1197 64.6353 42.5506 64.6353C42.8101 64.6353 43.3739 64.1902 43.3739 63.9854C43.3739 63.7115 45.2077 53.1266 45.3527 52.5642C45.7364 51.0742 46.4467 49.8882 47.7201 48.6106C48.6686 47.6591 48.9062 47.1983 48.9148 46.2945C48.9241 45.301 48.613 44.8 47.1731 43.4891C45.7334 42.1785 45.5098 42.0442 44.536 41.9063C44.1399 41.8502 43.5772 41.6842 43.2856 41.5372C42.7647 41.275 41.7486 41.0054 41.3721 41.0297C41.2668 41.0364 40.9642 41.0846 40.6997 41.1367Z" fill="white"/>
</svg>
