<svg width="80" height="80" viewBox="0 0 80 80" fill="none" xmlns="http://www.w3.org/2000/svg">
<rect width="80" height="80" rx="8" fill="#32CD32"/>
<path fill-rule="evenodd" clip-rule="evenodd" d="M37.8417 12.1817C32.3361 13.1119 28.0057 17.4688 27.1125 22.9767C26.8684 24.4819 26.8505 39.9395 27.0924 40.2581C27.4904 40.7819 28.4109 40.7268 28.6673 40.1638C28.7624 39.9553 28.8001 37.6402 28.8001 32.0183C28.8001 23.4481 28.8224 23.0932 29.4758 21.2465C29.9827 19.8141 30.7287 18.6107 31.8334 17.4428C33.4172 15.7687 35.247 14.7037 37.5224 14.132C38.7099 13.8335 41.5117 13.8657 42.7038 14.1916C44.8334 14.7735 46.4851 15.7154 47.9155 17.1634C49.3838 18.6501 50.2805 20.2216 50.8823 22.3631C51.1264 23.2319 51.1357 23.5088 51.1961 31.6755C51.2557 39.7414 51.2675 40.1028 51.4806 40.338C51.8141 40.7063 52.5117 40.6742 52.8248 40.276C53.0641 39.9719 53.0666 39.8846 53.0659 32.0802C53.0652 23.5474 53.0271 22.8854 52.4322 21.071C50.405 14.889 44.1985 11.1076 37.8417 12.1817ZM41.3694 22.3937C41.2564 22.4595 41.0278 22.786 40.8614 23.1192C40.4907 23.8616 39.9755 24.4226 39.3584 24.7563C38.9184 24.994 38.6956 25.0119 35.4687 25.0668L32.0456 25.1252L31.8229 25.4006C31.6153 25.6572 31.6001 25.9021 31.6001 28.9778C31.6001 32.6346 31.6965 33.4679 32.2806 34.8581C32.6474 35.7308 33.4448 36.9226 34.0381 37.4844L34.4 37.8271V40.3729V42.9185L36.7334 53.1689C39.0455 63.326 39.0667 63.4316 39.0667 64.7763V66.1333H33.4667H27.8667V63.6198C27.8667 61.1064 27.8667 61.1061 27.5803 60.8198C27.2015 60.4408 26.6653 60.4408 26.2865 60.8198C26.0001 61.1061 26.0001 61.1064 26.0001 63.6198V66.1333H23.6668H21.3334V59.6737C21.3334 54.4085 21.3663 53.0253 21.5113 52.1937C22.156 48.4968 24.7774 45.4596 28.3539 44.2657C29.8838 43.755 29.7334 43.3822 29.7334 47.686V51.4051L29.3794 51.5517C28.5952 51.8765 27.8667 53.0556 27.8667 54.0001C27.8667 55.44 29.2257 56.7977 30.6667 56.7977C32.1078 56.7977 33.4667 55.44 33.4667 54.0001C33.4667 53.0556 32.7383 51.8765 31.954 51.5517L31.6001 51.4051V47.5693C31.6001 44.1873 31.6214 43.7334 31.7803 43.7334C31.8795 43.7334 32.0895 43.6045 32.247 43.447C32.6329 43.0612 32.6261 42.5322 32.2303 42.1364C31.9333 41.8395 31.9039 41.8347 30.7939 41.9075C26.2788 42.2034 22.1196 45.1603 20.4467 49.2636C19.4998 51.5861 19.5388 51.1577 19.4942 59.7451L19.4544 67.4149L19.747 67.7075L20.0395 68H40H59.9606L60.253 67.7075L60.5456 67.4149L60.5059 59.7451C60.4613 51.1577 60.5003 51.5861 59.5534 49.2636C57.8757 45.1486 53.7322 42.2041 49.2012 41.9071C48.0967 41.8348 48.0666 41.8396 47.7698 42.1364C47.3739 42.5322 47.3671 43.0612 47.7531 43.447C47.9106 43.6045 48.1206 43.7334 48.2197 43.7334C48.378 43.7334 48.4 44.1372 48.4 47.0584C48.4 49.7907 48.3716 50.3834 48.2406 50.3834C48.153 50.3834 47.7129 50.5677 47.2627 50.7929C46.268 51.2906 45.591 51.9938 45.1034 53.0358C44.7942 53.6964 44.7358 53.9744 44.6901 55.0014C44.6384 56.1648 44.6452 56.2059 44.9381 56.4988C45.332 56.8927 45.8619 56.8987 46.2469 56.5136C46.4991 56.2615 46.5333 56.1248 46.5333 55.3679C46.5333 54.3023 46.7761 53.5629 47.3046 53.0188C47.8403 52.4671 48.2946 52.2441 49.0389 52.1672C50.3013 52.0369 51.5555 52.8125 51.9487 53.9667C52.0513 54.2677 52.1333 54.8901 52.1333 55.3679C52.1333 56.1248 52.1675 56.2615 52.4197 56.5136C52.8047 56.8987 53.3346 56.8927 53.7285 56.4988C54.0214 56.2059 54.0282 56.1648 53.9765 55.0014C53.9308 53.9744 53.8724 53.6964 53.5633 53.0358C53.0756 51.9938 52.3986 51.2906 51.4039 50.7929C50.9537 50.5677 50.5136 50.3834 50.426 50.3834C50.2952 50.3834 50.2666 49.8088 50.2666 47.1751C50.2666 43.4587 50.1248 43.7579 51.6461 44.2657C54.944 45.3666 57.3805 47.9674 58.351 51.4226C58.5898 52.2731 58.6014 52.5842 58.6392 59.2209L58.6785 66.1333H56.3392H54V63.6198C54 61.1064 54 61.1061 53.7135 60.8198C53.3347 60.4408 52.7985 60.4408 52.4197 60.8198C52.1333 61.1061 52.1333 61.1064 52.1333 63.6198V66.1333H46.5333H40.9333V64.7925C40.9333 63.4699 40.9651 63.3115 43.2667 53.1688L45.6 42.8862V40.3823V37.8785L46.2125 37.1998C47.028 36.2963 47.5341 35.4333 47.9737 34.1973L48.3372 33.1751L48.3782 29.4374C48.4294 24.7638 48.6051 25.1521 46.3981 25.0605C45.1236 25.0077 44.7571 24.9515 44.375 24.75C43.7547 24.423 43.2333 23.8596 42.8609 23.1139C42.4577 22.3066 41.9445 22.0587 41.3694 22.3937ZM42.4585 25.694C43.4029 26.5431 44.4368 26.9253 45.8042 26.9307L46.5333 26.9335V29.537C46.5333 32.5803 46.4455 33.1887 45.8168 34.4983C43.5117 39.3005 36.4884 39.3005 34.1833 34.4983C33.5546 33.1887 33.4667 32.5803 33.4667 29.537V26.9335H36.0672C39.4516 26.9335 40.3078 26.7187 41.3948 25.5972C41.6154 25.3697 41.8171 25.1835 41.8432 25.1835C41.8694 25.1835 42.1462 25.4132 42.4585 25.694ZM36.9916 39.4273C37.7901 39.7431 39.1403 40.0001 40 40.0001C40.8597 40.0001 42.2099 39.7431 43.0085 39.4273C43.3478 39.2932 43.6496 39.1835 43.6793 39.1835C43.7091 39.1835 43.7333 39.963 43.7333 40.9159V42.6484L43.3786 43.1382C41.9347 45.1313 38.1556 45.1493 36.6507 43.1702L36.2667 42.6654V40.9243C36.2667 39.9669 36.291 39.1835 36.3207 39.1835C36.3505 39.1835 36.6523 39.2932 36.9916 39.4273ZM40 46.4674C41.1391 46.4674 41.4701 46.4224 42.1928 46.1692C42.6608 46.0052 43.023 45.9282 42.9974 45.998C42.972 46.0679 42.3002 48.9993 41.5047 52.5122C40.7092 56.0252 40.0321 58.8991 40 58.8989C39.9679 58.8986 39.2915 56.0244 38.497 52.5117C37.7024 48.999 37.0306 46.0679 37.0041 45.998C36.9778 45.9282 37.3392 46.0052 37.8073 46.1692C38.5299 46.4224 38.8609 46.4674 40 46.4674ZM31.3136 53.3531C31.8924 53.9318 31.4823 54.9334 30.6667 54.9334C30.1871 54.9334 29.7334 54.4797 29.7334 54.0001C29.7334 53.5204 30.1871 53.0667 30.6667 53.0667C30.894 53.0667 31.1332 53.1725 31.3136 53.3531Z" fill="white"/>
</svg>
