<svg width="80" height="80" viewBox="0 0 80 80" fill="none" xmlns="http://www.w3.org/2000/svg">
<rect width="80" height="80" rx="8" fill="#32CD32"/>
<path fill-rule="evenodd" clip-rule="evenodd" d="M35.0176 12.2582C34.7547 12.521 34.749 12.5639 34.749 14.2869C34.749 16.01 34.7547 16.0529 35.0176 16.3157C35.1653 16.4634 35.4136 16.5842 35.5695 16.5842C35.7254 16.5842 35.9737 16.4634 36.1214 16.3157C36.3843 16.0529 36.39 16.01 36.39 14.2869C36.39 12.5639 36.3843 12.521 36.1214 12.2582C35.7792 11.9159 35.3598 11.9159 35.0176 12.2582ZM43.8786 12.2582L43.61 12.5267L43.6107 18.4664C43.611 22.1715 43.6532 24.5573 43.723 24.8082C43.7844 25.0296 43.9934 25.448 44.1873 25.7381C44.4914 26.1932 44.6959 26.3434 45.6754 26.8309C47.0268 27.5033 47.7082 28.1241 48.2251 29.1538C48.5697 29.8402 48.5875 29.9349 48.5875 31.0791C48.5875 32.1778 48.5606 32.3372 48.2788 32.9113C47.8245 33.8369 47.0098 34.6721 46.1472 35.0968C45.4585 35.4358 45.3553 35.4549 44.2117 35.4549C43.069 35.4549 42.9646 35.4357 42.2786 35.098C41.8121 34.8683 41.3446 34.519 40.9681 34.1192C39.2922 32.3389 38.5 31.7304 37.4113 31.3873C36.7173 31.1685 36.3167 31.2605 36.073 31.6946C35.8023 32.177 36.0594 32.5957 36.8098 32.894C37.5037 33.1699 37.8972 33.4144 38.4905 33.9384L38.8952 34.2959L38.5452 34.5921C38.3525 34.7549 37.9242 35.0157 37.5933 35.1716C37.0598 35.4228 36.8552 35.4549 35.7883 35.4549C34.722 35.4549 34.5163 35.4226 33.9833 35.172C33.0886 34.7513 32.1924 33.8766 31.7687 33.0105C31.4324 32.3232 31.4125 32.2152 31.4125 31.0791C31.4125 29.9473 31.4333 29.8335 31.7618 29.1647C32.2598 28.1508 32.968 27.5059 34.3246 26.8309C35.3041 26.3434 35.5086 26.1932 35.8127 25.7381C36.0066 25.448 36.2156 25.0296 36.2769 24.8082C36.3384 24.5871 36.389 23.2592 36.3893 21.8576L36.39 19.3092L36.1214 19.0407C35.7994 18.7187 35.4133 18.6969 35.062 18.981C34.8062 19.1878 34.8032 19.2159 34.749 21.8714C34.6845 25.0332 34.7768 24.8158 33.1667 25.5991C31.013 26.6467 29.7168 28.7057 29.7168 31.0791C29.7168 32.5463 30.2061 33.907 31.1156 34.9695L31.5046 35.4241L31.1557 36.0586C30.7188 36.8533 30.3732 38.1812 30.3732 39.065C30.3732 39.9501 30.719 41.2769 31.1576 42.0746L31.5082 42.7124L31.108 43.1555C30.616 43.7 30.0966 44.709 29.8797 45.5415C29.6757 46.3249 29.6697 47.7514 29.8674 48.5131C30.0176 49.0921 30.0171 49.0945 29.646 49.7108C29.1473 50.5389 29.0279 51.0422 29.0829 52.083C29.1323 53.0192 29.4638 53.8774 29.9912 54.435C30.4367 54.9059 30.4826 55.2136 30.4826 57.724C30.4826 59.9777 30.496 60.1369 30.7014 60.3423C31.0318 60.6727 31.6127 60.6341 31.9051 60.2624C32.1332 59.9724 32.1391 59.8859 32.1044 57.336C32.0702 54.813 32.0585 54.6889 31.8079 54.2162C31.6645 53.9454 31.4113 53.5681 31.2452 53.3778C31.0793 53.1873 30.8833 52.8499 30.81 52.6278C30.6841 52.2461 30.6989 51.0098 30.8309 50.8778C30.8646 50.8441 31.1614 51.0769 31.4905 51.395C32.2719 52.1507 33.1565 52.669 34.1572 52.9576L34.9661 53.1909L34.6381 53.6368C33.9728 54.5417 33.9833 54.4197 33.9833 61.2362V67.463L34.2518 67.7314C34.3995 67.8791 34.6478 68 34.8037 68C34.9596 68 35.2079 67.8791 35.3556 67.7314L35.6242 67.463L35.6247 61.3045C35.6253 55.6274 35.6403 55.1241 35.8162 54.8648C35.9212 54.7101 36.1748 54.328 36.3798 54.0156C36.7412 53.465 36.7591 53.4535 36.9654 53.6402C37.4871 54.1124 37.5001 54.2114 37.8865 60.6693C38.0898 64.0694 38.2822 67.0141 38.3138 67.213C38.4319 67.9564 39.1769 68.2533 39.6528 67.7469C39.9647 67.4147 39.9655 67.4581 39.5128 60.2329C39.0844 53.3978 39.1073 53.5265 38.142 52.5601C37.4469 51.8643 36.9654 51.6751 35.4551 51.504C34.2314 51.3654 33.3829 50.9634 32.6155 50.159C31.7687 49.2711 31.4364 48.5057 31.3781 47.3087C31.322 46.1561 31.5817 45.2556 32.2087 44.428C33.0305 43.3431 34.1153 42.7793 35.8641 42.5283C36.7115 42.4068 37.4944 42.0555 38.3941 41.3933L39.0308 40.9247H40H40.9692L41.6059 41.3933C42.4806 42.0371 43.2553 42.3927 44.0699 42.524C46.18 42.8643 47.1739 43.4173 47.9793 44.6988C48.4979 45.5241 48.6739 46.2391 48.6219 47.309C48.536 49.0732 47.6339 50.3589 45.9112 51.1729C44.8885 51.656 44.2664 52.1749 43.9016 52.8488C43.6831 53.2523 43.662 53.4709 43.6297 55.6631L43.5948 58.0398L43.8709 58.3159C44.2 58.645 44.5843 58.6692 44.938 58.3832C45.1911 58.1785 45.1974 58.1285 45.251 55.874L45.3057 53.5736L45.6119 53.2543C45.7803 53.0786 46.122 52.8677 46.3711 52.7854C46.6202 52.7033 47.1145 52.4482 47.4698 52.2185C49.2499 51.0679 50.2831 49.1701 50.2831 47.0508C50.2831 45.5836 49.7939 44.2229 48.8844 43.1604L48.4954 42.7059L48.8443 42.0714C49.8405 40.259 49.8591 38.1258 48.8953 36.2013L48.5021 35.4163L48.8877 34.9657C49.4066 34.3595 49.9119 33.3887 50.1157 32.606C50.3284 31.789 50.3306 30.3774 50.1203 29.5698C49.644 27.7412 48.1423 26.0398 46.4368 25.3966C46.1564 25.2908 45.7872 25.0583 45.6163 24.8801L45.3057 24.5559L45.251 18.4818L45.1963 12.4077L44.938 12.1987C44.5868 11.9144 44.2007 11.936 43.8786 12.2582ZM23.5846 28.8194C23.4187 28.9538 23.3355 29.1389 23.3355 29.3732C23.3355 29.6681 23.4835 29.874 24.2504 30.6448L25.1653 31.5646L24.7336 31.7323C23.5397 32.1963 23.1523 32.5878 23.3604 33.1202C23.4156 33.2611 24.0972 34.0041 24.8751 34.7712C26.4 36.2747 26.5839 36.3699 27.1313 35.9392C27.3354 35.7787 27.4195 35.6104 27.4195 35.3624C27.4195 35.0701 27.2748 34.8683 26.5444 34.1422C26.063 33.6637 25.6692 33.2407 25.6692 33.2021C25.6692 33.1637 25.977 33.0231 26.3529 32.8896C27.1412 32.6098 27.4195 32.3423 27.4195 31.8646C27.4195 31.5755 27.2056 31.3117 25.9656 30.0717C24.7256 28.8317 24.4617 28.6177 24.1727 28.6177C23.9863 28.6177 23.7217 28.7085 23.5846 28.8194ZM54.0344 30.0717C52.7944 31.3117 52.5805 31.5755 52.5805 31.8646C52.5805 32.3423 52.8588 32.6098 53.6471 32.8896C54.0232 33.0231 54.3308 33.1637 54.3308 33.2021C54.3308 33.2407 53.937 33.6637 53.4556 34.1422C52.4766 35.1155 52.3514 35.475 52.8336 35.9282C53.345 36.4085 53.5898 36.2852 55.1098 34.7813C55.8796 34.0195 56.556 33.2627 56.613 33.0992C56.8087 32.5379 56.4793 32.2037 55.2664 31.7323L54.8346 31.5646L55.7496 30.6448C56.5165 29.874 56.6645 29.6681 56.6645 29.3732C56.6645 28.9402 56.3072 28.6177 55.8273 28.6177C55.5383 28.6177 55.2744 28.8317 54.0344 30.0717ZM40.7615 36.115C42.2574 37.1597 44.3723 37.4656 46.0371 36.8782C46.4772 36.7228 46.92 36.568 47.0213 36.5341C47.1586 36.4882 47.273 36.6074 47.4713 37.003C48.1059 38.2693 48.138 39.6988 47.5595 40.935C47.3791 41.3204 47.1959 41.6357 47.1524 41.6357C47.1088 41.6357 46.7729 41.5156 46.406 41.3688C46.0389 41.222 45.3438 41.0523 44.8611 40.9918C43.7782 40.8561 43.4696 40.7418 42.8786 40.2575C42.0504 39.5789 41.2762 39.2911 40.1641 39.2484C38.956 39.2021 38.2887 39.4196 37.1969 40.2156C36.4502 40.7599 36.4014 40.7766 34.6396 41.0891C34.2485 41.1586 33.7131 41.3099 33.4497 41.4255C33.1863 41.5411 32.9253 41.6357 32.8696 41.6357C32.8139 41.6357 32.6209 41.3204 32.4405 40.935C31.862 39.6988 31.8941 38.2693 32.5287 37.003C32.727 36.6075 32.8414 36.4882 32.9787 36.534C33.08 36.5678 33.5074 36.7191 33.9286 36.8702C35.5765 37.4613 37.7541 37.1516 39.2385 36.115C39.6273 35.8435 39.9699 35.6214 40 35.6214C40.0301 35.6214 40.3727 35.8435 40.7615 36.115ZM18.121 38.1033C17.7546 38.238 17.574 38.505 17.574 38.9116C17.574 39.5592 17.8186 39.6666 19.294 39.6666C19.9725 39.6666 20.5276 39.7097 20.5276 39.7625C20.5276 39.8151 20.4046 40.1365 20.2542 40.4766C19.9262 41.2183 19.9119 41.5265 20.1895 41.8697C20.3912 42.1192 20.4599 42.1292 22.1817 42.1633C23.1625 42.1826 24.1297 42.1675 24.331 42.1298C25.0653 41.992 25.3649 41.2811 24.8992 40.7813C24.6936 40.5605 24.5731 40.5418 23.3586 40.5418C22.6338 40.5418 22.0573 40.5022 22.0774 40.4538C22.0975 40.4054 22.2559 40.0379 22.4295 39.6371C22.7087 38.9925 22.7297 38.8708 22.6106 38.5835C22.5274 38.3826 22.3486 38.2143 22.1419 38.1422C21.8029 38.024 18.4255 37.9914 18.121 38.1033ZM57.8151 38.1457C57.6557 38.206 57.4644 38.4024 57.39 38.5819C57.2702 38.8712 57.2907 38.9911 57.5705 39.6371C57.7441 40.0379 57.9025 40.4054 57.9226 40.4538C57.9427 40.5022 57.3662 40.5418 56.6414 40.5418C55.4269 40.5418 55.3064 40.5605 55.1008 40.7813C54.6319 41.2845 54.9352 41.9921 55.6796 42.1317C55.8867 42.1706 56.8539 42.1857 57.8288 42.1652C59.5382 42.1293 59.6089 42.1188 59.8104 41.8697C60.0881 41.5265 60.0739 41.2183 59.7458 40.4766C59.5954 40.1365 59.4724 39.8151 59.4724 39.7625C59.4724 39.7097 60.0275 39.6666 60.706 39.6666C62.1814 39.6666 62.426 39.5592 62.426 38.9116C62.426 38.6295 62.3526 38.4307 62.1961 38.2888C61.9904 38.1024 61.7621 38.0781 60.0355 38.0582C58.9509 38.0457 57.9779 38.0841 57.8151 38.1457ZM24.841 45.2575C24.0194 46.0711 23.3716 46.8034 23.3435 46.9501C23.2402 47.4905 23.5782 47.8084 24.7336 48.2573L25.1653 48.425L24.2504 49.3448C23.4835 50.1156 23.3355 50.3215 23.3355 50.6164C23.3355 51.0494 23.6928 51.3719 24.1727 51.3719C24.4617 51.3719 24.7256 51.158 25.9656 49.918C27.2056 48.678 27.4195 48.4141 27.4195 48.1251C27.4195 47.6473 27.1412 47.3799 26.3529 47.1C25.977 46.9666 25.6692 46.8259 25.6692 46.7875C25.6692 46.749 26.063 46.326 26.5444 45.8475C27.5234 44.8742 27.6486 44.5146 27.1664 44.0615C26.6518 43.5781 26.4129 43.701 24.841 45.2575ZM52.8183 44.0768C52.3694 44.5546 52.4889 44.8863 53.4556 45.8475C53.937 46.326 54.3308 46.749 54.3308 46.7875C54.3308 46.8259 54.0232 46.9666 53.6471 47.1C52.8588 47.3799 52.5805 47.6473 52.5805 48.1251C52.5805 48.4141 52.7944 48.678 54.0344 49.918C55.2744 51.158 55.5383 51.3719 55.8273 51.3719C56.3072 51.3719 56.6645 51.0494 56.6645 50.6164C56.6645 50.3215 56.5165 50.1156 55.7496 49.3448L54.8346 48.425L55.2664 48.2573C56.4218 47.8084 56.7598 47.4905 56.6565 46.9501C56.6284 46.8034 55.9806 46.0711 55.159 45.2575C53.9503 44.0606 53.6569 43.8237 53.3835 43.8237C53.1828 43.8237 52.9642 43.9216 52.8183 44.0768ZM43.8479 61.0331C43.6153 61.2807 43.61 61.3543 43.61 64.3746V67.463L43.8786 67.7314C44.0263 67.8791 44.2746 68 44.4305 68C44.5864 68 44.8347 67.8791 44.9824 67.7314L45.251 67.463V64.39V61.3169L44.9824 61.0485C44.6379 60.7039 44.1633 60.6974 43.8479 61.0331ZM31.0579 62.8351C30.5419 62.9156 30.4826 63.185 30.4826 65.4456V67.5466L30.7709 67.7732C31.1301 68.0559 31.4759 68.0618 31.8106 67.7911C32.063 67.5868 32.0696 67.5363 32.1025 65.5167C32.1343 63.5773 32.1228 63.434 31.9138 63.1682C31.6741 62.8637 31.4453 62.7745 31.0579 62.8351Z" fill="white"/>
</svg>
