<svg width="64" height="64" viewBox="0 0 64 64" fill="none" xmlns="http://www.w3.org/2000/svg">
<rect width="64" height="64" rx="8" fill="#32CD32"/>
<path fill-rule="evenodd" clip-rule="evenodd" d="M31.342 12.1095C31.1732 12.1696 30.9279 12.2981 30.7969 12.3949C28.5283 14.0722 25.161 15.1165 20.8669 15.4746C20.1122 15.5376 19.6166 15.7341 19.2411 16.1195C18.6744 16.7011 18.6823 16.644 18.654 20.3922C18.6186 25.0838 18.7603 26.7804 19.3872 29.1728C20.2348 32.4072 21.7953 35.3023 24.0947 37.9066L24.7273 38.6231L21.1955 38.6543C17.2492 38.6892 17.1445 38.7018 15.8636 39.2936C13.1823 40.5324 11.6128 43.4701 12.0827 46.3704C12.3153 47.8064 12.892 48.9039 13.9915 50.0034C15.0911 51.1029 16.1885 51.6796 17.6246 51.9122C17.9666 51.9676 22.6717 51.9944 32.0395 51.994C45.3212 51.9937 45.9785 51.9871 46.6548 51.8475C48.0431 51.5609 49.1422 50.9474 50.1423 49.9006C51.361 48.6249 52.0013 47.0311 52 45.2765C51.9994 44.4356 51.758 43.376 51.3861 42.5826C50.495 40.6809 48.9902 39.4137 46.9623 38.8571C46.3709 38.6948 46.1468 38.6839 42.8054 38.6543L39.2735 38.6231L39.9079 37.9066C42.6278 34.8347 44.378 31.1602 45.0496 27.1114C45.2948 25.6335 45.3726 23.8499 45.3461 20.3141C45.319 16.6979 45.3286 16.7715 44.8114 16.1824C44.3781 15.6891 44.0852 15.5905 42.5577 15.4242C38.603 14.9935 35.9015 14.1669 33.6492 12.6982C33.1812 12.3931 32.6806 12.1096 32.5366 12.0684C32.173 11.9641 31.7049 11.9802 31.342 12.1095ZM32.9313 13.8215C35.3436 15.4322 38.7731 16.4544 42.9248 16.8004C43.4415 16.8435 43.6179 16.8915 43.7842 17.0347L43.9933 17.2148L43.9922 21.1083C43.9911 25.2292 43.9586 25.7643 43.597 27.6192C42.8591 31.4042 41.0004 34.8982 38.1832 37.7956L37.3666 38.6355L36.3048 38.632L35.2428 38.6285L35.5921 38.339C37.2506 36.9643 38.4182 35.6813 39.5163 34.027C41.1039 31.6352 42.1096 28.9549 42.5083 26.053C42.6453 25.0565 42.7659 20.0775 42.6715 19.3218C42.5619 18.4456 42.1349 18.0806 41.0501 17.936C39.9068 17.7835 38.1446 17.4185 37.1044 17.1186C35.6645 16.7035 34.7325 16.3353 33.4849 15.6888C32.5666 15.213 32.2854 15.1018 32.0004 15.1018C31.7154 15.1018 31.4342 15.213 30.516 15.6888C29.2678 16.3356 28.3352 16.7039 26.8965 17.1183C25.8394 17.4228 24.0649 17.7911 22.9507 17.9375C21.8665 18.0798 21.4392 18.4447 21.3292 19.3218C21.2356 20.0701 21.3564 25.132 21.492 26.1348C21.7676 28.1741 22.3647 30.1139 23.2931 31.9861C24.5693 34.5597 26.1125 36.4586 28.5627 38.47L28.758 38.6303L27.7243 38.6329L26.6905 38.6355L26.1417 38.1178C23.1544 35.2997 20.9925 31.2247 20.2898 27.0874C20.0455 25.6489 19.956 23.6645 19.983 20.2878L20.0075 17.2143L20.2167 17.0344C20.3828 16.8916 20.5597 16.8434 21.0761 16.8004C25.2589 16.4518 28.868 15.3629 31.1841 13.7509C31.5234 13.5147 31.8868 13.3215 31.9917 13.3215C32.0966 13.3215 32.5194 13.5465 32.9313 13.8215ZM32.5952 16.7406C34.6083 17.84 37.0442 18.6274 39.8134 19.0737C40.5224 19.188 41.1465 19.293 41.2002 19.307C41.3244 19.3395 41.339 24.6658 41.2177 25.668C41.0779 26.8239 40.8256 27.9358 40.4295 29.1428C39.2288 32.8011 36.811 35.9802 33.5933 38.1316L32.8395 38.6355H31.9922H31.1449L30.3883 38.1226C26.1873 35.2743 23.4622 30.8916 22.8225 25.955C22.7343 25.2746 22.703 24.2868 22.703 22.1867V19.3404L22.8788 19.3042C22.9755 19.2843 23.4237 19.2107 23.8749 19.1408C26.7082 18.702 29.4702 17.8208 31.3754 16.7481C31.6547 16.5908 31.9223 16.4586 31.9701 16.4544C32.0179 16.4502 32.2991 16.5789 32.5952 16.7406ZM33.2114 25.8937L29.3831 29.088L28.825 28.5489C28.1937 27.9392 27.9519 27.8707 27.5749 28.195C27.4117 28.3354 27.3595 28.4506 27.3595 28.6704C27.3595 28.9363 27.4323 29.0325 28.2325 29.824C29.0717 30.6538 29.1163 30.6857 29.3793 30.643C29.5958 30.6078 30.5096 29.8855 33.7498 27.188C36.4791 24.9161 37.8782 23.7015 37.941 23.5498C38.0153 23.3705 38.0145 23.2717 37.937 23.0847C37.8195 22.8008 37.6473 22.6966 37.2989 22.6983C37.0729 22.6994 36.5507 23.1076 33.2114 25.8937ZM45.973 40.0449C47.227 40.2021 48.1828 40.678 49.121 41.6119C50.525 43.0097 51.0164 45.1015 50.3878 47.0036C49.8652 48.5849 48.5615 49.8738 46.9509 50.4017L46.2591 50.6284H32.0004H17.7418L17.0499 50.4017C14.9674 49.7191 13.5094 47.8576 13.3552 45.6843C13.2873 44.7278 13.4624 43.8852 13.9265 42.936C14.6767 41.4019 16.2496 40.2666 17.924 40.0507C18.7006 39.9505 45.1768 39.945 45.973 40.0449ZM18.1772 42.9041C18.0551 43.0592 18.0152 43.2229 18.0152 43.5682C18.0152 43.8203 17.9979 44.0265 17.9767 44.0265C17.9555 44.0265 17.6839 43.8682 17.3732 43.6749C17.0625 43.4815 16.7255 43.3233 16.6244 43.3233C16.387 43.3233 15.9838 43.7265 15.9838 43.964C15.9838 44.2509 16.1814 44.4678 16.8505 44.9158L17.4696 45.3304L16.802 45.7746C15.9411 46.3475 15.7832 46.7296 16.2339 47.1495C16.5061 47.4031 16.829 47.3504 17.4166 46.9563C17.7049 46.763 17.9576 46.6047 17.978 46.6047C17.9985 46.6047 18.0152 46.8301 18.0152 47.1056C18.0152 47.5726 18.032 47.6207 18.2638 47.8158C18.4597 47.9805 18.5633 48.0147 18.7519 47.977C19.1511 47.8972 19.2995 47.6796 19.3434 47.1095L19.3825 46.6025L19.9074 46.9552C20.4948 47.3499 20.7743 47.3949 21.0908 47.1459C21.2515 47.0195 21.2967 46.9159 21.2967 46.6735C21.2967 46.3125 21.1679 46.1687 20.3931 45.6639C20.1166 45.4837 19.8903 45.3273 19.8903 45.3163C19.8903 45.3053 20.1733 45.1104 20.5193 44.8833C20.8652 44.6563 21.1816 44.408 21.2224 44.3317C21.4481 43.9101 21.1405 43.3233 20.6939 43.3233C20.5637 43.3233 20.2616 43.4662 19.9506 43.6749C19.6623 43.8682 19.4119 44.0265 19.394 44.0265C19.3762 44.0265 19.3468 43.7932 19.3287 43.5081C19.3016 43.0846 19.2627 42.9633 19.1155 42.844C18.8392 42.6204 18.3771 42.6499 18.1772 42.9041ZM24.8841 42.844C24.7369 42.9633 24.698 43.0846 24.671 43.5081C24.6529 43.7932 24.6234 44.0265 24.6056 44.0265C24.5878 44.0265 24.3374 43.8682 24.0491 43.6749C23.7381 43.4662 23.4359 43.3233 23.3058 43.3233C22.8592 43.3233 22.5516 43.9101 22.7772 44.3317C22.8181 44.408 23.1345 44.6563 23.4804 44.8833C23.8263 45.1104 24.1093 45.3083 24.1093 45.3231C24.1093 45.3378 23.8368 45.5312 23.5038 45.7528C22.7701 46.241 22.703 46.3196 22.703 46.6922C22.703 46.9144 22.7521 47.0227 22.9089 47.1459C23.2254 47.3949 23.5048 47.3499 24.0922 46.9552L24.6172 46.6025L24.6562 47.1095C24.7001 47.6796 24.8485 47.8972 25.2478 47.977C25.4364 48.0147 25.54 47.9805 25.7358 47.8158C25.9676 47.6207 25.9844 47.5726 25.9844 47.1056C25.9844 46.8301 26.0031 46.6047 26.0259 46.6047C26.0488 46.6047 26.3033 46.763 26.5916 46.9563C27.2383 47.3902 27.5205 47.4159 27.8135 47.0675C28.1872 46.6234 28.0546 46.3449 27.1976 45.7746L26.53 45.3304L27.1541 44.9125C27.8834 44.4242 28.0518 44.2119 27.9777 43.8743C27.9176 43.6008 27.6035 43.3233 27.354 43.3233C27.2594 43.3233 26.9389 43.4807 26.6418 43.6732C26.3447 43.8657 26.0752 44.0239 26.043 44.0248C26.0109 44.0257 25.9844 43.8203 25.9844 43.5682C25.9844 42.9646 25.794 42.6983 25.3624 42.6983C25.1878 42.6983 24.9896 42.7586 24.8841 42.844ZM31.5417 42.8829C31.4214 43.0109 31.3514 43.2133 31.3132 43.5434L31.2582 44.0193L30.718 43.6713C30.1511 43.306 29.9902 43.265 29.71 43.4142C29.4642 43.5451 29.3493 43.7216 29.3465 43.973C29.3426 44.3173 29.4482 44.4414 30.1214 44.8833C30.4674 45.1104 30.7504 45.3083 30.7504 45.3231C30.7504 45.3378 30.489 45.5262 30.1696 45.7418C29.8502 45.9573 29.5338 46.2123 29.4665 46.3085C29.286 46.566 29.3143 46.8946 29.5358 47.1161C29.832 47.4123 30.1506 47.3706 30.7707 46.9547L31.2973 46.6015V46.9572C31.2973 47.7182 31.716 48.1478 32.2444 47.929C32.5384 47.8072 32.7036 47.4574 32.7036 46.9572V46.6015L33.2301 46.9547C33.8502 47.3706 34.1688 47.4123 34.465 47.1161C34.6866 46.8946 34.7148 46.566 34.5344 46.3085C34.4671 46.2123 34.1506 45.9573 33.8312 45.7418C33.5119 45.5262 33.2505 45.3378 33.2505 45.3231C33.2505 45.3083 33.5335 45.1104 33.8795 44.8833C34.5526 44.4414 34.6582 44.3173 34.6543 43.973C34.6515 43.7216 34.5367 43.5451 34.2909 43.4142C34.0107 43.265 33.8498 43.306 33.2829 43.6713L32.7427 44.0193L32.6877 43.5434C32.6188 42.948 32.4157 42.6983 32.0004 42.6983C31.8016 42.6983 31.6626 42.7542 31.5417 42.8829ZM38.1784 42.9041C38.0563 43.0592 38.0164 43.2229 38.0164 43.5682C38.0164 43.8203 37.9991 44.0265 37.9779 44.0265C37.9567 44.0265 37.6852 43.8682 37.3744 43.6749C37.0637 43.4815 36.7267 43.3233 36.6256 43.3233C36.3882 43.3233 35.985 43.7265 35.985 43.964C35.985 44.2509 36.1826 44.4678 36.8517 44.9158L37.4708 45.3304L36.8032 45.7746C35.9463 46.3449 35.8136 46.6234 36.1873 47.0675C36.4816 47.4173 36.7692 47.3913 37.4178 46.9563C37.7061 46.763 37.9588 46.6047 37.9792 46.6047C37.9997 46.6047 38.0164 46.8301 38.0164 47.1056C38.0164 47.5726 38.0332 47.6207 38.265 47.8158C38.4609 47.9805 38.5645 48.0147 38.7531 47.977C39.1523 47.8972 39.3007 47.6796 39.3446 47.1095L39.3837 46.6025L39.9086 46.9552C40.496 47.3499 40.7755 47.3949 41.092 47.1459C41.2527 47.0195 41.2979 46.9159 41.2979 46.6735C41.2979 46.3125 41.1691 46.1687 40.3943 45.6639C40.1178 45.4837 39.8915 45.3273 39.8915 45.3163C39.8915 45.3053 40.1745 45.1104 40.5205 44.8833C40.8664 44.6563 41.1828 44.408 41.2236 44.3317C41.4493 43.9101 41.1417 43.3233 40.6951 43.3233C40.5649 43.3233 40.2628 43.4662 39.9518 43.6749C39.6635 43.8682 39.4131 44.0265 39.3953 44.0265C39.3774 44.0265 39.348 43.7932 39.3299 43.5081C39.3028 43.0846 39.2639 42.9633 39.1167 42.844C38.8405 42.6204 38.3783 42.6499 38.1784 42.9041ZM44.8853 42.844C44.7382 42.9633 44.6992 43.0846 44.6722 43.5081C44.6541 43.7932 44.6246 44.0265 44.6068 44.0265C44.589 44.0265 44.3386 43.8682 44.0503 43.6749C43.7393 43.4662 43.4371 43.3233 43.307 43.3233C42.8604 43.3233 42.5528 43.9101 42.7784 44.3317C42.8193 44.408 43.1357 44.6563 43.4816 44.8833C43.8276 45.1104 44.1105 45.3083 44.1105 45.3231C44.1105 45.3378 43.838 45.5312 43.505 45.7528C42.7713 46.241 42.7042 46.3196 42.7042 46.6922C42.7042 46.9144 42.7533 47.0227 42.9101 47.1459C43.2266 47.3949 43.506 47.3499 44.0934 46.9552L44.6184 46.6025L44.6574 47.1095C44.7014 47.6796 44.8497 47.8972 45.249 47.977C45.4376 48.0147 45.5412 47.9805 45.737 47.8158C45.9689 47.6207 45.9856 47.5726 45.9856 47.1056C45.9856 46.8301 46.0043 46.6047 46.0271 46.6047C46.05 46.6047 46.3045 46.763 46.5928 46.9563C47.2395 47.3902 47.5217 47.4159 47.8147 47.0675C48.1884 46.6234 48.0558 46.3449 47.1988 45.7746L46.5312 45.3304L47.1553 44.9125C47.8846 44.4242 48.053 44.2119 47.9789 43.8743C47.9188 43.6008 47.6047 43.3233 47.3552 43.3233C47.2606 43.3233 46.9401 43.4807 46.643 43.6732C46.3459 43.8657 46.0765 44.0239 46.0442 44.0248C46.012 44.0257 45.9856 43.8203 45.9856 43.5682C45.9856 42.9646 45.7952 42.6983 45.3636 42.6983C45.189 42.6983 44.9908 42.7586 44.8853 42.844Z" fill="white"/>
</svg>
