<svg width="64" height="64" viewBox="0 0 64 64" fill="none" xmlns="http://www.w3.org/2000/svg">
<rect width="64" height="64" rx="8" fill="#32CD32"/>
<path fill-rule="evenodd" clip-rule="evenodd" d="M30.5854 12.0517C26.0542 12.5656 22.4162 15.885 21.3838 20.4473C21.2434 21.0677 21.2182 21.5148 21.185 23.9738L21.147 26.7898L20.7657 26.9164C19.8463 27.2218 18.8027 28.1632 18.3387 29.1055C17.9937 29.8063 17.8536 30.519 17.852 31.5819L17.8506 32.4625L16.5275 32.4889C15.2185 32.515 15.1987 32.518 14.6854 32.7709C14.0604 33.0788 13.5064 33.6433 13.2114 34.2727L13 34.7237V37.683V40.6424L13.2588 41.168C13.5629 41.7859 14.1314 42.3389 14.7746 42.6426C15.1944 42.8408 15.2646 42.8483 16.951 42.8725L18.6936 42.8975L18.8761 43.3457C19.9106 45.8858 21.7156 48.0913 24.0436 49.6596C29.2291 53.1532 36.1386 52.6972 40.8823 48.5482C42.4167 47.2062 43.7278 45.3972 44.4783 43.5866L44.7639 42.8976L46.5119 42.8725L48.2598 42.8475L48.785 42.5887C49.4025 42.2845 49.9557 41.7157 50.2592 41.0729L50.4641 40.6391V37.6814V34.7237L50.2592 34.2899C49.9557 33.6471 49.4025 33.0783 48.785 32.7741C48.2646 32.5176 48.2478 32.515 46.9473 32.4891L45.6347 32.4629L45.5946 31.3454C45.5496 30.0919 45.4086 29.5383 44.9356 28.7577C44.5512 28.1234 43.757 27.4105 43.0621 27.0764C42.7428 26.9228 42.4408 26.7971 42.3911 26.7971C42.3254 26.7971 42.3008 26.16 42.3008 24.4486C42.3008 21.4224 42.1981 20.5453 41.6644 19.0187C40.6419 16.0932 38.1864 13.6368 35.2566 12.6084C33.8391 12.1109 31.9979 11.8915 30.5854 12.0517ZM32.6521 13.9464C36.3793 14.362 39.3338 17.0339 40.2225 20.7928C40.3168 21.1917 40.3552 21.9457 40.3848 23.9774L40.4235 26.6393H38.6411H36.8587V24.7431C36.8587 22.5265 36.7758 21.9726 36.2937 20.9692C35.8783 20.1044 34.9661 19.1621 34.1218 18.7257C32.5828 17.9302 30.8782 17.9306 29.3422 18.7265C28.4964 19.1649 27.5944 20.0916 27.1681 20.9606C26.6766 21.9622 26.6084 22.4156 26.6067 24.6873L26.6054 26.6393H24.8308H23.0561L23.0586 24.3718C23.0619 21.2794 23.1981 20.3812 23.8837 18.9309C25.312 15.9096 28.2434 13.9872 31.5971 13.8724C31.7615 13.8667 32.2363 13.9001 32.6521 13.9464ZM32.605 20.141C33.747 20.4794 34.6297 21.4351 34.8771 22.601C34.9281 22.8411 34.9658 23.7893 34.9658 24.8291V26.6393H31.732H28.4983V24.763C28.4983 22.2879 28.597 21.8938 29.4371 21.0151C29.8832 20.5485 30.1947 20.3503 30.7726 20.1655C31.3335 19.9861 32.0498 19.9766 32.605 20.141ZM42.2646 28.7816C42.7515 29.0385 43.2842 29.6025 43.5061 30.0958C43.6383 30.3898 43.6787 30.6684 43.7055 31.4702L43.7391 32.4758H31.732H19.7249L19.7585 31.4702C19.7853 30.6684 19.8257 30.3898 19.958 30.0958C20.2587 29.4271 20.9434 28.8191 21.6365 28.6054C21.7449 28.5719 26.3412 28.5507 31.8503 28.5581L41.867 28.5717L42.2646 28.7816ZM48.0395 34.5261C48.1809 34.6123 48.367 34.7985 48.4532 34.9399C48.6009 35.182 48.61 35.3411 48.61 37.6814C48.61 40.0217 48.6009 40.1807 48.4532 40.4229C48.367 40.5643 48.1809 40.7504 48.0395 40.8366C47.7852 40.9917 47.6089 40.9934 31.732 40.9934C15.8552 40.9934 15.6789 40.9917 15.4246 40.8366C15.2832 40.7504 15.097 40.5643 15.0108 40.4229C14.8632 40.1807 14.854 40.0217 14.854 37.6814C14.854 35.3411 14.8632 35.182 15.0108 34.9399C15.097 34.7985 15.2832 34.6123 15.4246 34.5261C15.6789 34.371 15.8552 34.3693 31.732 34.3693C47.6089 34.3693 47.7852 34.371 48.0395 34.5261ZM17.6929 36.5377C17.6929 36.7329 17.674 36.8927 17.6509 36.8927C17.6278 36.8927 17.4815 36.8394 17.3258 36.7743C17.17 36.7093 17.0325 36.656 17.0201 36.656C17.0076 36.656 16.9233 36.8758 16.8326 37.1444C16.6504 37.6839 16.666 37.7196 17.121 37.8073C17.262 37.8345 17.3774 37.8777 17.3774 37.9033C17.3774 37.9289 17.2654 38.0655 17.1285 38.2067C16.8435 38.5008 16.8556 38.5318 17.4089 38.9291L17.763 39.1835L17.9751 38.8217L18.1871 38.4599L18.3783 38.7804C18.4834 38.9568 18.5944 39.1011 18.6251 39.1011C18.6558 39.1011 18.8682 38.9749 19.0971 38.8208L19.5134 38.5404L19.2736 38.2377C19.0253 37.9241 19.0546 37.8412 19.4148 37.8379C19.7249 37.8351 19.7584 37.7325 19.6162 37.2208C19.5419 36.9535 19.438 36.7349 19.3853 36.7349C19.3327 36.7349 19.1622 36.7881 19.0064 36.8532C18.8507 36.9183 18.7132 36.9715 18.701 36.9716C18.6888 36.9716 18.6911 36.7941 18.7061 36.5772L18.7334 36.1828H18.2132H17.6929V36.5377ZM23.0756 36.5377C23.1203 36.934 23.1106 36.9403 22.7151 36.7751C22.5603 36.7104 22.4187 36.6837 22.4005 36.7159C22.2926 36.9061 22.1059 37.6114 22.1461 37.6766C22.1725 37.7192 22.317 37.7772 22.4674 37.8054C22.6177 37.8336 22.7407 37.8747 22.7407 37.8966C22.7407 37.9186 22.6314 38.061 22.498 38.213C22.3644 38.365 22.2846 38.5135 22.3205 38.5429C22.7825 38.9212 23.1479 39.192 23.1651 39.169C23.1768 39.1534 23.2666 39.0074 23.3644 38.8447C23.4622 38.6821 23.5693 38.549 23.6023 38.549C23.6353 38.549 23.7292 38.6732 23.8109 38.825C23.8927 38.9768 23.9847 39.1011 24.0153 39.1011C24.132 39.1011 24.8702 38.6003 24.8702 38.5212C24.8702 38.4755 24.7602 38.3246 24.6257 38.1859C24.3577 37.9094 24.3533 37.9151 24.9224 37.8008L25.1718 37.7508L25.021 37.2234C24.938 36.9333 24.8702 36.6882 24.8702 36.6788C24.8702 36.6694 24.7076 36.7314 24.5087 36.8166C24.3099 36.9018 24.1291 36.9715 24.107 36.9715C24.0848 36.9715 24.0911 36.7941 24.1209 36.5772L24.1752 36.1828H23.6054H23.0356L23.0756 36.5377ZM28.4983 36.5377C28.4983 36.7329 28.4794 36.8927 28.4563 36.8927C28.4332 36.8927 28.2869 36.8394 28.1312 36.7743C27.9755 36.7093 27.8379 36.656 27.8255 36.656C27.8131 36.656 27.7287 36.8758 27.638 37.1444C27.4558 37.6839 27.4714 37.7196 27.9265 37.8073C28.0674 37.8345 28.1828 37.8777 28.1828 37.9033C28.1828 37.9289 28.0674 38.0697 27.9265 38.2161L27.6701 38.4823L27.9068 38.6774C28.0369 38.7847 28.237 38.9413 28.3515 39.0253L28.5597 39.1782L28.7902 38.8237L29.0208 38.4691L29.1984 38.7851C29.2961 38.9589 29.4117 39.1011 29.4553 39.1011C29.5166 39.1011 30.1099 38.7345 30.3058 38.5756C30.3239 38.5609 30.2273 38.4103 30.0913 38.241C29.836 37.9234 29.8624 37.8412 30.2202 37.8379C30.5355 37.835 30.5707 37.7299 30.4273 37.2189C30.2815 36.6991 30.1987 36.6477 29.8391 36.8532C29.5435 37.0222 29.5236 37.0047 29.5236 36.5772V36.1828H29.011H28.4983V36.5377ZM33.8969 36.5377C33.9565 36.9355 33.912 36.9636 33.5331 36.7676C33.4002 36.6989 33.2643 36.6723 33.2312 36.7085C33.129 36.8204 32.9011 37.5948 32.9479 37.6706C32.9723 37.7101 33.1169 37.7658 33.2692 37.7943C33.4215 37.8229 33.5451 37.8713 33.544 37.9018C33.5428 37.9324 33.4399 38.0804 33.3153 38.2306L33.0888 38.5038L33.5305 38.8469L33.9723 39.1899L34.1615 38.8694C34.2656 38.6932 34.3818 38.549 34.4197 38.549C34.4575 38.549 34.5424 38.6531 34.6082 38.7806C34.6741 38.908 34.7661 39.0357 34.8125 39.0644C34.8591 39.0932 35.0921 38.9872 35.3305 38.8289L35.764 38.5411L35.5226 38.2662C35.3899 38.1151 35.2813 37.9754 35.2813 37.9558C35.2813 37.9363 35.4429 37.8796 35.6406 37.8298C35.8446 37.7784 35.9856 37.7012 35.9668 37.6512C35.9486 37.6027 35.8745 37.3586 35.8022 37.1088L35.6707 36.6545L35.4563 36.7636C35.3384 36.8236 35.1634 36.8968 35.0676 36.9264C34.8998 36.9781 34.8951 36.9652 34.9405 36.5814L34.9878 36.1828H34.4157H33.8437L33.8969 36.5377ZM39.3037 36.5377C39.3037 36.7329 39.2903 36.8927 39.2739 36.8927C39.2575 36.8927 39.1117 36.8374 38.9499 36.7697C38.7881 36.7021 38.6469 36.6578 38.6361 36.6711C38.6253 36.6845 38.5424 36.918 38.4521 37.19L38.2877 37.6844L38.638 37.7781C38.8306 37.8296 38.9882 37.8933 38.9882 37.9196C38.9882 37.9458 38.8818 38.0693 38.7516 38.194C38.6215 38.3187 38.515 38.4453 38.515 38.4754C38.515 38.5054 38.7097 38.677 38.9476 38.8566L39.3802 39.1832L39.6078 38.8175L39.8355 38.4519L40.0179 38.7764C40.1182 38.955 40.2297 39.1011 40.2656 39.1011C40.3623 39.1011 41.1147 38.5977 41.1163 38.532C41.1171 38.5009 41.0088 38.3515 40.8755 38.1997L40.6333 37.9238L40.8558 37.8741C41.4366 37.7445 41.4131 37.7893 41.2305 37.1611C41.0967 36.7011 40.9998 36.6501 40.6445 36.8532C40.3489 37.0222 40.329 37.0047 40.329 36.5772V36.1828H39.8164H39.3037V36.5377ZM44.7459 36.5377C44.7459 36.9267 44.6981 36.9536 44.3385 36.7676C44.2056 36.6989 44.0697 36.6723 44.0366 36.7085C43.9344 36.8204 43.7065 37.5948 43.7533 37.6706C43.7777 37.7101 43.9223 37.7658 44.0746 37.7943C44.4103 37.8573 44.4174 37.9206 44.1252 38.2476L43.8989 38.5008L44.3375 38.8414L44.776 39.1819L44.9778 38.866C45.0888 38.6923 45.2034 38.5498 45.2323 38.5495C45.2614 38.5492 45.3619 38.6732 45.4557 38.825C45.5496 38.9768 45.6505 39.1011 45.6801 39.1011C45.7097 39.1011 45.9209 38.9751 46.1495 38.8211L46.565 38.5413L46.3275 38.253C46.0796 37.9523 46.1093 37.8442 46.4416 37.8391C46.7673 37.8341 46.7978 37.7478 46.6579 37.2254C46.5855 36.9557 46.4851 36.7349 46.4345 36.7349C46.3839 36.7349 46.2152 36.7881 46.0594 36.8532C45.9037 36.9183 45.7626 36.9715 45.7459 36.9715C45.7292 36.9715 45.7325 36.7941 45.7534 36.5772L45.7912 36.1828H45.2685H44.7459V36.5377ZM42.6952 42.9283C42.6952 42.9511 42.5665 43.2261 42.4091 43.5396C39.2094 49.9142 31.1226 52.0624 25.142 48.1265C23.4834 47.035 22.035 45.4315 21.137 43.693C20.9345 43.3009 20.7689 42.9591 20.7689 42.9335C20.7689 42.9079 25.7023 42.8869 31.732 42.8869C37.7618 42.8869 42.6952 42.9055 42.6952 42.9283Z" fill="white"/>
</svg>
