<svg width="128" height="128" viewBox="0 0 128 128" fill="none" xmlns="http://www.w3.org/2000/svg">
<path fill-rule="evenodd" clip-rule="evenodd" d="M64 124.179C97.236 124.179 124.179 97.236 124.179 64C124.179 30.764 97.236 3.8209 64 3.8209C30.764 3.8209 3.8209 30.764 3.8209 64C3.8209 97.236 30.764 124.179 64 124.179ZM64 128C99.3462 128 128 99.3462 128 64C128 28.6538 99.3462 0 64 0C28.6538 0 0 28.6538 0 64C0 99.3462 28.6538 128 64 128Z" fill="white"/>
<path fill-rule="evenodd" clip-rule="evenodd" d="M64 104.529C86.3834 104.529 104.529 86.3834 104.529 64C104.529 41.6166 86.3834 23.4712 64 23.4712C41.6166 23.4712 23.4712 41.6166 23.4712 64C23.4712 86.3834 41.6166 104.529 64 104.529ZM64 106.439C87.4385 106.439 106.439 87.4385 106.439 64C106.439 40.5615 87.4385 21.5608 64 21.5608C40.5615 21.5608 21.5608 40.5615 21.5608 64C21.5608 87.4385 40.5615 106.439 64 106.439Z" fill="white"/>
<path d="M112.481 92.3095L105.611 88.3304L106.452 86.8778L113.323 90.8569L112.481 92.3095Z" fill="white"/>
<path d="M110.04 96.4321L108.693 98.0045L103.219 96.1954L103.159 96.2661L105.788 101.397L104.442 102.969L98.4114 97.8046L99.4705 96.5679L103.396 99.9293L103.438 99.8792L100.879 94.9825L101.601 94.1403L106.847 95.9285L106.89 95.8785L102.95 92.5045L104.01 91.2678L110.04 96.4321Z" fill="white"/>
<path d="M94.4529 101.228L95.9133 100.178L98.3237 108.224L96.5674 109.487L89.7099 104.639L91.1702 103.589L96.3611 107.401L96.4114 107.365L94.4529 101.228ZM96.3663 103.696L92.9168 106.177L92.1517 105.113L95.6012 102.632L96.3663 103.696ZM98.806 108.842L99.5556 108.317C99.8438 108.718 99.9663 109.096 99.923 109.452C99.8796 109.808 99.715 110.09 99.429 110.299C99.2822 110.405 99.1389 110.471 98.9993 110.498C98.8612 110.528 98.7265 110.542 98.5952 110.541C98.4639 110.539 98.3421 110.543 98.2297 110.55C98.1189 110.56 98.0184 110.597 97.9282 110.662C97.808 110.752 97.7481 110.863 97.7485 110.997C97.7484 111.134 97.8004 111.275 97.9045 111.419L97.1553 111.925C96.8743 111.525 96.7547 111.146 96.7965 110.788C96.8398 110.432 97.0034 110.151 97.2873 109.944C97.441 109.83 97.5888 109.759 97.7305 109.73C97.8701 109.703 98.0017 109.691 98.1251 109.694C98.2501 109.7 98.3678 109.7 98.478 109.694C98.5882 109.688 98.6906 109.651 98.785 109.583C98.8941 109.504 98.9513 109.398 98.9566 109.264C98.9618 109.129 98.9117 108.989 98.806 108.842Z" fill="white"/>
<path d="M79.0584 117.734L76.6144 110.18L77.9939 109.734L82.8186 113.425L82.8739 113.407L81.3356 108.653L82.9327 108.136L85.3768 115.69L83.9752 116.144L79.1775 112.448L79.1111 112.469L80.6482 117.22L79.0584 117.734Z" fill="white"/>
<path d="M72.9549 110.991L73.8347 118.881L68.5178 119.474L68.3644 118.099L72.0131 117.692L71.8034 115.812L68.4283 116.188L68.275 114.813L71.65 114.436L71.44 112.552L67.7759 112.961L67.6225 111.585L72.9549 110.991Z" fill="white"/>
<path d="M56.4532 115.041C56.5371 114.179 56.7718 113.462 57.1573 112.889C57.5402 112.316 58.0276 111.898 58.6194 111.633C59.2084 111.371 59.8515 111.274 60.5486 111.342C61.2508 111.41 61.8655 111.631 62.3926 112.005C62.9198 112.378 63.316 112.883 63.5813 113.519C63.8466 114.155 63.9374 114.902 63.8538 115.761C63.7699 116.623 63.5365 117.34 63.1535 117.913C62.7706 118.486 62.2846 118.904 61.6956 119.166C61.1064 119.431 60.4606 119.529 59.7584 119.46C59.0613 119.393 58.4492 119.172 57.922 118.799C57.3921 118.428 56.9944 117.924 56.7292 117.288C56.4613 116.652 56.3693 115.903 56.4532 115.041ZM58.1471 115.206C58.0927 115.764 58.1305 116.243 58.2604 116.643C58.3877 117.042 58.5922 117.355 58.8739 117.583C59.1556 117.81 59.4984 117.943 59.9022 117.983C60.3061 118.022 60.6681 117.957 60.9884 117.788C61.3086 117.62 61.571 117.352 61.7755 116.985C61.9774 116.617 62.1056 116.155 62.1599 115.597C62.2142 115.038 62.1777 114.56 62.0504 114.16C61.9205 113.761 61.7147 113.447 61.433 113.22C61.1513 112.993 60.8086 112.859 60.4047 112.82C60.0009 112.781 59.6388 112.845 59.3186 113.014C58.9983 113.183 58.7373 113.451 58.5353 113.818C58.3308 114.185 58.2014 114.648 58.1471 115.206Z" fill="white"/>
<path d="M50.5447 109.506L53.2158 110.393L50.7135 117.928L48.0204 117.033C47.2625 116.782 46.6602 116.414 46.2134 115.931C45.7658 115.45 45.4881 114.88 45.3803 114.22C45.27 113.56 45.3448 112.839 45.6046 112.056C45.8653 111.271 46.2377 110.646 46.7218 110.181C47.2035 109.714 47.7703 109.422 48.4224 109.303C49.072 109.184 49.7794 109.252 50.5447 109.506ZM51.1694 111.229L50.1576 110.893C49.6867 110.736 49.2629 110.688 48.8862 110.748C48.5062 110.81 48.1767 110.991 47.8975 111.29C47.615 111.591 47.3806 112.022 47.194 112.584C47.0091 113.141 46.9402 113.623 46.9873 114.031C47.0318 114.438 47.1871 114.778 47.453 115.052C47.7189 115.325 48.0874 115.54 48.5583 115.696L49.5738 116.034L51.1694 111.229Z" fill="white"/>
<path d="M38.3362 112.958L42.0174 105.924L43.5047 106.702L39.8235 113.736L38.3362 112.958ZM39.2443 114.3L37.6983 115.481L36.345 114.773L38.2104 113.759L39.2443 114.3Z" fill="white"/>
<path d="M34.1127 110.695L32.4841 109.417L34.057 103.871L33.9838 103.813L28.9707 106.66L27.342 105.382L32.2434 99.1362L33.5243 100.141L30.3341 104.207L30.386 104.247L35.1686 101.481L36.0409 102.165L34.4791 107.484L34.5309 107.525L37.7331 103.444L39.014 104.449L34.1127 110.695Z" fill="white"/>
<path d="M22.5176 100.281L28.475 95.0325L29.5846 96.292L23.6273 101.54L22.5176 100.281Z" fill="white"/>
<path d="M19.0376 88.424C19.7737 87.9681 20.4863 87.7198 21.1755 87.679C21.8633 87.6361 22.4917 87.7697 23.0608 88.08C23.6264 88.3894 24.0936 88.8418 24.4623 89.4373C24.8338 90.0371 25.031 90.6598 25.0539 91.3053C25.0767 91.9509 24.9157 92.572 24.5708 93.1686C24.2259 93.7652 23.6865 94.2908 22.9527 94.7453C22.2166 95.2012 21.5047 95.4506 20.8169 95.4935C20.1291 95.5365 19.5024 95.4033 18.9368 95.0938C18.3691 94.7858 17.8995 94.3318 17.528 93.732C17.1592 93.1366 16.9634 92.5161 16.9405 91.8705C16.9141 91.2242 17.0734 90.6027 17.4182 90.006C17.7618 89.4072 18.3016 88.8798 19.0376 88.424ZM19.9337 89.8708C19.4569 90.1661 19.0991 90.4865 18.8601 90.8321C18.6198 91.1755 18.4947 91.5281 18.4847 91.89C18.4748 92.2518 18.5766 92.6052 18.7902 92.9502C19.0039 93.2952 19.2749 93.5438 19.6033 93.6961C19.9317 93.8484 20.3038 93.8946 20.7197 93.8346C21.1342 93.7725 21.5798 93.5938 22.0566 93.2985C22.5334 93.0032 22.8919 92.6838 23.1322 92.3404C23.3711 91.9949 23.4956 91.6411 23.5056 91.2793C23.5155 90.9174 23.4137 90.564 23.2 90.2191C22.9864 89.8741 22.7154 89.6255 22.387 89.4732C22.0586 89.3209 21.6871 89.2758 21.2727 89.338C20.8568 89.3979 20.4105 89.5755 19.9337 89.8708Z" fill="white"/>
<path d="M12.5955 68.0592L12.6924 66.5589L11.4363 67.4002L10.9168 66.4853L12.2698 65.8262L10.9168 65.1672L11.4363 64.2523L12.6924 65.0935L12.5955 63.5932H13.6383L13.5375 65.0935L14.7936 64.2523L15.313 65.1672L13.9639 65.8262L15.313 66.4853L14.7936 67.4002L13.5375 66.5589L13.6383 68.0592H12.5955Z" fill="white"/>
<path d="M16.6242 35.5947L23.4917 39.5788L22.6494 41.0308L15.7818 37.0466L16.6242 35.5947Z" fill="white"/>
<path d="M19.0686 31.4738L20.4163 29.9024L25.8889 31.7155L25.9495 31.6448L23.3237 26.5124L24.6714 24.941L30.6981 30.1098L29.6381 31.3457L25.7155 27.9815L25.6726 28.0315L28.2281 32.9301L27.5063 33.7717L22.2608 31.9797L22.2179 32.0298L26.1552 35.4066L25.0952 36.6425L19.0686 31.4738Z" fill="white"/>
<path d="M34.659 26.6888L33.1979 27.738L30.7934 19.6903L32.5505 18.4285L39.4046 23.2812L37.9434 24.3304L32.7554 20.515L32.705 20.5512L34.659 26.6888ZM32.7475 24.2195L36.1988 21.7412L36.963 22.8056L33.5118 25.2838L32.7475 24.2195ZM30.3114 19.0723L29.5615 19.5964C29.2736 19.1955 29.1514 18.8171 29.195 18.4612C29.2385 18.1054 29.4034 17.8232 29.6895 17.6146C29.8364 17.509 29.9797 17.4427 30.1194 17.4157C30.2575 17.3865 30.3922 17.3725 30.5235 17.3736C30.6548 17.3748 30.7766 17.3716 30.889 17.3642C30.9998 17.3546 31.1003 17.3174 31.1906 17.2525C31.3109 17.163 31.3708 17.0515 31.3705 16.9181C31.3708 16.7811 31.3189 16.6402 31.2149 16.4954L31.9644 15.9906C32.2451 16.3903 32.3644 16.7692 32.3224 17.1271C32.2788 17.483 32.115 17.7644 31.831 17.9715C31.6772 18.0852 31.5294 18.1563 31.3876 18.1849C31.248 18.212 31.1164 18.2237 30.9929 18.2202C30.8679 18.2145 30.7503 18.2146 30.6401 18.2206C30.5298 18.2266 30.4275 18.2635 30.333 18.3313C30.2238 18.4097 30.1666 18.516 30.1612 18.6504C30.1558 18.7847 30.2059 18.9253 30.3114 19.0723Z" fill="white"/>
<path d="M50.0655 10.194L52.5041 17.7497L51.1243 18.195L46.3022 14.5004L46.2469 14.5183L47.7817 19.2738L46.1842 19.7894L43.7457 12.2336L45.1476 11.7812L49.9426 15.4804L50.009 15.459L48.4754 10.7071L50.0655 10.194Z" fill="white"/>
<path d="M56.1642 16.9419L55.29 9.05063L60.6074 8.4616L60.7598 9.83718L57.1108 10.2414L57.3191 12.1217L60.6945 11.7478L60.8469 13.1234L57.4715 13.4973L57.6802 15.3815L61.3446 14.9756L61.497 16.3511L56.1642 16.9419Z" fill="white"/>
<path d="M72.6688 12.9036C72.5843 13.7652 72.3491 14.4823 71.9631 15.0547C71.5798 15.6274 71.0921 16.0457 70.5001 16.3097C69.9109 16.5713 69.2678 16.6679 68.5707 16.5996C67.8685 16.5307 67.254 16.3095 66.7271 15.9358C66.2003 15.5621 65.8044 15.0571 65.5396 14.4209C65.2748 13.7847 65.1845 13.037 65.2687 12.1779C65.3532 11.3163 65.5872 10.5991 65.9705 10.0264C66.3539 9.45374 66.8402 9.03658 67.4293 8.77494C68.0188 8.51073 68.6646 8.41305 69.3668 8.48191C70.0638 8.55026 70.6758 8.77128 71.2027 9.14496C71.7324 9.51632 72.1296 10.0201 72.3944 10.6563C72.6618 11.2928 72.7533 12.0419 72.6688 12.9036ZM70.975 12.7375C71.0298 12.1793 70.9923 11.7004 70.8627 11.3008C70.7357 10.9014 70.5314 10.5879 70.2499 10.3604C69.9684 10.1328 69.6257 9.9992 69.2219 9.95961C68.818 9.92001 68.456 9.98448 68.1356 10.153C67.8152 10.3216 67.5527 10.5893 67.3479 10.9561C67.1457 11.3232 67.0172 11.7859 66.9625 12.344C66.9078 12.9022 66.9439 13.3809 67.0709 13.7803C67.2006 14.18 67.4061 14.4936 67.6876 14.7211C67.9691 14.9487 68.3118 15.0823 68.7157 15.1219C69.1195 15.1615 69.4816 15.097 69.8019 14.9285C70.1223 14.7599 70.3836 14.4921 70.5858 14.125C70.7905 13.7581 70.9203 13.2956 70.975 12.7375Z" fill="white"/>
<path d="M78.5732 18.4433L75.9028 17.5543L78.4105 10.0212L81.103 10.9175C81.8607 11.1698 82.4628 11.5377 82.9092 12.0214C83.3565 12.5026 83.6338 13.0729 83.7411 13.7324C83.8509 14.3928 83.7756 15.114 83.5152 15.8963C83.2539 16.681 82.8811 17.3059 82.3966 17.7712C81.9146 18.2372 81.3475 18.5292 80.6954 18.6472C80.0457 18.7659 79.3383 18.698 78.5732 18.4433ZM77.9498 16.7199L78.9613 17.0566C79.4321 17.2133 79.8559 17.2618 80.2327 17.202C80.6127 17.1405 80.9424 16.9602 81.2218 16.661C81.5044 16.3601 81.7392 15.9289 81.9261 15.3673C82.1115 14.8107 82.1807 14.3285 82.134 13.9206C82.0897 13.5137 81.9347 13.1733 81.6689 12.8996C81.4032 12.626 81.035 12.4107 80.5641 12.254L79.5489 11.9161L77.9498 16.7199Z" fill="white"/>
<path d="M90.7843 14.9998L87.098 22.0317L85.6113 21.2523L89.2976 14.2204L90.7843 14.9998ZM89.8771 13.6576L91.424 12.4769L92.7768 13.1861L90.9106 14.1994L89.8771 13.6576Z" fill="white"/>
<path d="M95.0061 17.2655L96.6338 18.5447L95.0568 24.0899L95.13 24.1474L100.145 21.3042L101.773 22.5834L96.867 28.8259L95.5868 27.8198L98.78 23.7567L98.7281 23.716L93.9435 26.479L93.0717 25.7939L94.6374 20.4765L94.5856 20.4357L91.3805 24.5141L90.1003 23.508L95.0061 17.2655Z" fill="white"/>
<path d="M106.594 27.6884L100.632 32.9325L99.5237 31.6722L105.485 26.428L106.594 27.6884Z" fill="white"/>
<path d="M110.065 39.548C109.329 40.0033 108.616 40.2511 107.927 40.2914C107.239 40.3338 106.611 40.1997 106.042 39.889C105.476 39.5792 105.009 39.1264 104.641 38.5307C104.27 37.9306 104.073 37.3078 104.051 36.6622C104.029 36.0167 104.19 35.3957 104.535 34.7993C104.881 34.2029 105.42 33.6777 106.155 33.2238C106.891 32.7684 107.603 32.5195 108.291 32.4771C108.979 32.4346 109.605 32.5683 110.171 32.8782C110.738 33.1866 111.208 33.6409 111.579 34.241C111.947 34.8367 112.142 35.4574 112.165 36.1029C112.191 36.7493 112.031 37.3707 111.686 37.9671C111.342 38.5657 110.802 39.0926 110.065 39.548ZM109.17 38.1005C109.647 37.8055 110.005 37.4853 110.244 37.1399C110.485 36.7967 110.61 36.4442 110.621 36.0823C110.631 35.7205 110.529 35.367 110.316 35.0219C110.102 34.6768 109.832 34.4279 109.503 34.2754C109.175 34.1229 108.803 34.0765 108.387 34.1361C107.972 34.1979 107.527 34.3763 107.05 34.6713C106.573 34.9662 106.214 35.2853 105.973 35.6285C105.734 35.9739 105.609 36.3275 105.599 36.6894C105.589 37.0512 105.691 37.4047 105.904 37.7499C106.117 38.095 106.388 38.3438 106.717 38.4963C107.045 38.6488 107.416 38.6942 107.831 38.6323C108.247 38.5727 108.693 38.3954 109.17 38.1005Z" fill="white"/>
<path d="M114.372 69.7899L114.469 68.2896L113.213 69.1309L112.694 68.216L114.047 67.5569L112.694 66.8979L113.213 65.983L114.469 66.8242L114.372 65.3239H115.415L115.314 66.8242L116.57 65.983L117.09 66.8979L115.741 67.5569L117.09 68.216L116.57 69.1309L115.314 68.2896L115.415 69.7899H114.372Z" fill="white"/>
<path fill-rule="evenodd" clip-rule="evenodd" d="M61.2389 36.123C54.0265 36.9463 48.0958 40.4976 45.7839 45.3777C45.0841 46.8547 44.8016 48.124 44.7937 49.8248C44.7854 51.6355 45.0965 52.9476 45.9361 54.6423L46.5127 55.8064L46.1842 56.424C46.0036 56.7639 45.8549 57.1629 45.8539 57.3111C45.8493 57.9368 45.6766 57.9451 44.7084 57.3661C43.094 56.4007 41.2239 54.9016 39.7563 53.3966C38.975 52.5954 38.2663 51.8103 38.1815 51.6516C38.0279 51.3645 38.0319 51.3631 38.9707 51.3631C39.7913 51.3631 39.9506 51.3244 40.1931 51.0665C40.5633 50.6723 40.5553 50.0762 40.1751 49.7189C39.903 49.4634 39.7449 49.4402 38.2708 49.4402H36.6632L36.1476 48.3186C35.2816 46.4344 34.9114 44.9952 34.753 42.8973C34.6767 41.8867 34.6157 41.6498 34.3681 41.4021C34.0028 41.0367 33.559 41.0266 33.118 41.3735C32.8023 41.6218 32.7802 41.7074 32.7806 42.6875C32.7814 44.7132 33.358 47.0706 34.3975 49.2987L34.9595 50.5032V52.4133C34.9595 54.2701 34.9682 54.3319 35.2742 54.6378C35.4473 54.8108 35.7383 54.9525 35.9209 54.9525C36.4102 54.9525 36.8824 54.4204 36.8824 53.8686C36.8824 53.6187 36.9071 53.4142 36.9374 53.4142C36.9676 53.4142 37.3282 53.7707 37.7386 54.2064C39.9412 56.5446 42.1223 58.2483 44.7982 59.7203L45.7276 60.2316V61.8749H38.2574L38.8518 61.2394C39.4768 60.5712 39.6018 60.1034 39.2715 59.6686C39.0541 59.3824 38.483 59.1693 38.1975 59.2678C38.0734 59.3106 37.3951 59.9114 36.6901 60.6028L35.4082 61.8601L31.6037 61.939L31.2946 62.2987C30.8999 62.758 30.9018 63.2129 31.3002 63.6112C31.6077 63.9188 31.6612 63.9259 33.6317 63.9259H35.6487L36.8251 65.0797C38.1478 66.3767 38.5334 66.517 39.1315 65.9187C39.574 65.4763 39.5307 65.0457 38.9827 64.4391L38.519 63.9259H45.7276V66.3572L45.0613 66.6949C43.3547 67.5597 41.2945 69.0026 39.4462 70.6276C35.3933 74.1905 32.7802 79.3806 32.7802 83.8672C32.7802 84.8733 32.7992 84.9457 33.1307 85.2066C33.8618 85.7815 34.7026 85.2426 34.7039 84.1981C34.7052 83.1527 35.0713 81.1264 35.4784 79.9114C36.8581 75.7931 39.9291 72.2077 44.579 69.2865L45.7739 68.536L46.4327 69.8869L45.8893 70.9765C45.1127 72.5338 44.805 73.8089 44.7912 75.5273C44.7766 77.3541 45.0892 78.8185 45.6037 79.333C45.9986 79.7279 46.1945 79.7674 46.6743 79.5487C47.2035 79.3077 47.3258 78.8094 47.069 77.94C46.5278 76.1075 46.7203 73.8324 47.5665 72.0606L47.987 71.1799L51.5389 71.2558L52.8315 72.5676C55.8584 75.6391 59.4424 77.15 63.7386 77.1656C65.6434 77.1727 66.9399 76.9738 68.6596 76.4109C71.1196 75.6058 73.3901 74.1422 75.0964 72.2618L76.0124 71.2521L77.6953 71.1943C78.6208 71.1625 79.5317 71.0947 79.7195 71.0437C80.0431 70.9557 80.085 71.0006 80.5152 71.895C81.1117 73.1351 81.3608 74.2414 81.3631 75.6606C81.3655 77.105 81.1373 78.0245 80.4074 79.5128C78.7709 82.8496 74.9021 85.5546 69.9831 86.8013C68.8128 87.0978 66.1236 87.5133 65.3741 87.5133C65.1192 87.5133 64.7302 87.2131 63.7963 86.2955C62.6886 85.2072 62.5071 85.0776 62.0901 85.0776C61.05 85.0776 60.7752 86.0693 61.5854 86.899L62.0601 87.3851H61.642C60.5174 87.3851 57.675 86.7677 55.9558 86.1501C53.7441 85.3554 51.4899 83.9834 49.9662 82.5043C49.4539 82.007 48.9083 81.5522 48.7537 81.4934C48.4091 81.3624 47.724 81.6248 47.6056 81.9332C47.3723 82.541 47.5155 82.8773 48.372 83.7338C51.2868 86.6486 55.5047 88.5773 60.4779 89.2694L62.1129 89.4969L61.6118 90.0406C61.128 90.5653 61.0554 90.7446 61.1036 91.2949C61.1359 91.664 61.5878 92 62.052 92C62.3866 92 62.6554 91.7975 63.6942 90.7626L64.9364 89.525L66.2016 89.4271C73.6034 88.8537 79.817 85.3107 82.2603 80.2704C83.1135 78.5104 83.3392 77.5452 83.3392 75.6555C83.3392 73.7208 83.1126 72.7872 82.1822 70.8865C81.4923 69.4773 81.4822 69.4402 81.6375 68.8995C81.7246 68.5965 81.8134 68.3254 81.835 68.297C81.9059 68.2036 84.5543 69.8592 85.6542 70.6846C87.6664 72.1948 90.3384 74.9785 90.3384 75.5646C90.3384 75.6826 90.1855 76.477 89.9986 77.33C89.6047 79.1273 89.6426 79.5008 90.2446 79.7539C90.5723 79.8916 90.7324 79.8951 91.0413 79.7712C91.3613 79.6431 91.4737 79.4759 91.6925 78.8033L91.957 77.9903L92.4149 79.1945C92.9886 80.7033 93.2616 81.9083 93.3596 83.364C93.4545 84.7772 93.5872 85.1398 94.0846 85.3458C94.5598 85.5427 95.0536 85.3238 95.3027 84.8057C95.6778 84.0256 95.0316 80.2388 94.1866 78.2664C93.9641 77.747 93.7502 77.2475 93.7111 77.1566C93.655 77.0263 93.8195 77.0096 94.4869 77.0779C95.4137 77.1729 95.6528 77.0734 95.8698 76.5025C96.0225 76.101 95.8097 75.5508 95.4256 75.3541C95.2717 75.2753 94.4826 75.0701 93.6722 74.8979C92.4705 74.6428 92.1631 74.5306 92.0057 74.2892C91.5424 73.5792 89.9221 71.7378 89.0473 70.9274C87.334 69.3399 85.0904 67.7523 82.9372 66.6041L81.8814 66.0411L81.8778 63.9259H88.8696L90.018 65.0797C90.9256 65.9915 91.2426 66.2334 91.53 66.2334C92.0387 66.2334 92.3286 66.0488 92.5109 65.609C92.6903 65.1758 92.5786 64.8674 92.0294 64.2785L91.7006 63.9259H93.8455C95.952 63.9259 95.9962 63.9203 96.3052 63.6112C96.7036 63.2128 96.7055 62.758 96.3108 62.2987L96.0017 61.939L91.4554 61.858L91.9838 61.3195C92.6674 60.623 92.7787 60.1207 92.3576 59.631C92.1351 59.3724 91.927 59.2683 91.6323 59.2683C91.2795 59.2683 91.0274 59.4592 89.9112 60.5715L88.6035 61.8749H81.8778V60.4768L82.9995 59.8973C85.5874 58.56 88.7264 56.1443 90.4847 54.1368C92.7865 51.5088 94.3409 48.6128 95.0095 45.7064C95.3126 44.3892 95.4937 42.2226 95.3356 41.8068C95.0531 41.0635 94.275 40.8771 93.7298 41.4225C93.4666 41.6855 93.4151 41.8611 93.4151 42.4953C93.4151 44.3001 92.711 46.9495 91.714 48.8968C90.0645 52.118 87.0361 55.1909 83.3007 57.4338C82.638 57.8317 82.0517 58.1573 81.998 58.1573C81.9443 58.1573 81.8594 57.9122 81.8096 57.6125C81.7597 57.3128 81.6379 56.8636 81.539 56.6141C81.3635 56.1721 81.3736 56.1349 81.9367 55.1468C84.5448 50.5703 83.5902 45.3537 79.4279 41.4382C75.7351 37.9642 70.0125 35.9564 63.9309 36.0007C62.9791 36.0076 61.7677 36.0628 61.2389 36.123ZM68.7226 38.4068C72.7526 39.2189 76.0185 40.8451 78.3602 43.2059C80.3727 45.2348 81.2351 47.0598 81.3364 49.5045C81.4058 51.179 81.1313 52.4096 80.3643 53.8629C79.9523 54.6436 79.8491 54.7553 79.5703 54.723C79.3941 54.7027 78.5089 54.6524 77.6033 54.6114L75.9568 54.5369L74.9113 53.4465C74.3362 52.8468 73.5485 52.1136 73.1607 51.8168C71.0838 50.228 68.5481 49.1726 65.9325 48.8084L65.0498 48.6855L63.7398 47.3964C62.297 45.9766 61.997 45.8502 61.4254 46.422C60.9413 46.9059 61.0064 47.4101 61.6422 48.0997C61.9346 48.4169 62.1508 48.6934 62.1229 48.7142C62.0949 48.7349 61.612 48.8262 61.0498 48.917C57.7445 49.4508 54.6102 51.2193 52.262 53.8756L51.6841 54.5293L48.1551 54.6639L47.6429 53.606C44.6162 47.3528 49.6197 40.5849 58.7736 38.5499C60.7379 38.1133 61.5595 38.0471 64.5078 38.0872C66.7891 38.1183 67.5945 38.1793 68.7226 38.4068ZM67.5008 51.1805C69.4516 51.7335 71.8292 53.0785 72.8946 54.2316L73.2055 54.5679L54.2524 54.5641L54.7652 54.1148C55.7806 53.225 56.8757 52.5028 58.053 51.9468C59.2344 51.3888 60.9806 50.8504 61.6087 50.8504H61.9301L61.539 51.267C61.045 51.7929 60.9567 52.0477 61.1193 52.4754C61.2896 52.9235 61.6018 53.1487 62.0593 53.1537C62.36 53.157 62.6659 52.9241 63.6617 51.9332L64.8923 50.7085L65.642 50.7872C66.0543 50.8305 66.8907 51.0074 67.5008 51.1805ZM62.7772 57.7026C62.7772 58.2986 62.8423 58.9293 62.922 59.104C63.2463 59.816 64.3591 59.816 64.6834 59.104C64.7631 58.9293 64.8282 58.2986 64.8282 57.7026V56.619H78.955L79.8267 57.4907L79.8262 62.8555C79.8258 67.943 79.8129 68.2415 79.5765 68.6292C79.409 68.9038 79.1674 69.0823 78.8399 69.1732C78.5263 69.2603 75.9412 69.3089 71.5904 69.3092L64.8282 69.31V65.983C64.8282 62.3866 64.7861 62.1229 64.1706 61.868C63.6981 61.6722 63.1275 61.8871 62.922 62.3383C62.8263 62.5484 62.7772 63.7834 62.7772 65.983V69.31L56.015 69.3092C51.6642 69.3089 49.0791 69.2603 48.7655 69.1732C48.438 69.0823 48.1963 68.9038 48.0289 68.6292C47.7925 68.2415 47.7796 67.943 47.7792 62.8555L47.7787 57.4907L48.6504 56.619H62.7772V57.7026ZM73.8458 58.4189C73.0687 58.5728 72.3268 58.99 71.9901 59.4629C71.6354 59.9611 71.5043 61.2804 71.7506 61.8747C71.9838 62.438 72.7752 63.0919 73.8305 63.5937C74.9834 64.1417 75.34 64.4619 75.34 64.9492C75.34 65.8241 74.109 65.9964 73.0325 65.272C72.6658 65.0252 72.2604 64.8233 72.1316 64.8233C71.811 64.8233 71.366 65.4217 71.366 65.8528C71.366 66.6128 72.8195 67.388 74.2416 67.3864C76.0853 67.3844 77.267 66.3577 77.26 64.7641C77.2543 63.4279 76.5861 62.6201 74.7754 61.7598C73.5511 61.1782 73.2875 60.8738 73.5979 60.4003C73.8991 59.9405 74.7075 59.8629 75.6241 60.2058C76.4617 60.5191 76.7728 60.439 76.9753 59.8579C77.2491 59.0726 76.747 58.6143 75.3997 58.4196C74.9086 58.3487 74.4779 58.2957 74.4426 58.302C74.4074 58.3084 74.1388 58.361 73.8458 58.4189ZM50.9835 58.6701C50.7383 58.9153 50.7271 59.0973 50.7271 62.8363C50.7271 66.5753 50.7383 66.7573 50.9835 67.0026C51.1501 67.1692 51.4108 67.2589 51.7282 67.2589C52.6191 67.2589 52.6423 67.1991 52.6802 64.7964L52.7141 62.6543L53.909 64.8287C54.5661 66.0247 55.2113 67.0607 55.3427 67.1311C55.6993 67.322 56.4008 67.2855 56.7235 67.0593C57.0078 66.8604 57.0085 66.8487 57.0085 62.8363C57.0085 58.8239 57.0078 58.8122 56.7235 58.6133C56.5669 58.5036 56.2624 58.4137 56.0471 58.4137C55.8317 58.4137 55.5273 58.5036 55.3706 58.6133C55.0956 58.8058 55.0855 58.8883 55.0828 60.9528L55.08 63.0927L54.0022 61.0428C53.4094 59.9152 52.7728 58.8625 52.5877 58.7033C52.1489 58.3257 51.3444 58.3092 50.9835 58.6701ZM72.7156 71.8294C71.2709 73.1585 69.2756 74.2219 67.1621 74.7895C66.0589 75.0857 65.6781 75.1235 63.8027 75.1235C61.9272 75.1235 61.5465 75.0857 60.4433 74.7895C58.3298 74.2219 56.3345 73.1585 54.8898 71.8294L54.2524 71.243H73.353L72.7156 71.8294Z" fill="white"/>
</svg>
