<svg width="64" height="64" viewBox="0 0 64 64" fill="none" xmlns="http://www.w3.org/2000/svg">
<rect width="64" height="64" rx="8" fill="#32CD32"/>
<path fill-rule="evenodd" clip-rule="evenodd" d="M14.228 14.1123C13.0721 14.5382 12.3072 15.3785 12.075 16.4773C12.0061 16.8037 11.9884 20.0945 12.0068 29.203L12.0314 41.4885L12.287 42.028C12.7576 43.0214 13.6627 43.6994 14.7231 43.8526C15.0035 43.8931 17.6729 43.9271 20.6552 43.9279L26.0777 43.9295V46.0105V48.0914H25.6349C24.8738 48.0914 24.4668 48.3623 24.3499 48.9467C24.2856 49.2682 24.4894 49.6977 24.7907 49.8757C25.0038 50.0016 25.5661 50.0122 31.9966 50.0122C37.9461 50.0122 39.0044 49.9951 39.1967 49.8957C39.4912 49.7434 39.7136 49.2761 39.6507 48.9412C39.5432 48.3677 39.1254 48.0914 38.3657 48.0914H37.9229V46.0105V43.9295L43.3453 43.9279C46.3276 43.9271 48.9926 43.8938 49.2673 43.8541C50.3497 43.6975 51.2362 43.0358 51.7136 42.028L51.9692 41.4885L51.9906 29.123C52.0117 16.991 52.0091 16.7476 51.8534 16.2343C51.6655 15.6146 51.188 14.9149 50.7421 14.6059C50.5661 14.4839 50.2119 14.2977 49.9551 14.1921L49.4881 14L32.0003 14.0038C17.7912 14.0068 14.4592 14.0271 14.228 14.1123ZM49.4187 16.0475C49.5794 16.1238 49.7759 16.3185 49.8918 16.5161L50.0898 16.8541L50.0691 29.0112L50.0483 41.1683L49.8619 41.4296C49.7594 41.5734 49.5613 41.7535 49.4217 41.8298C49.183 41.9603 48.1427 41.9687 32.0003 41.9687C15.8579 41.9687 14.8175 41.9603 14.5789 41.8298C14.4393 41.7535 14.2412 41.5734 14.1387 41.4296L13.9523 41.1683L13.9331 29.0029L13.914 16.8375L14.0932 16.5257C14.1917 16.3542 14.3979 16.1471 14.5513 16.0655C14.8203 15.9223 15.4338 15.9171 31.9869 15.9171C47.6803 15.9171 49.1672 15.9282 49.4187 16.0475ZM31.4 19.2356C31.268 19.2966 30.9258 19.55 30.6397 19.7987C29.0838 21.151 26.9701 22.1644 24.9463 22.5283C24.1105 22.6785 23.7377 22.8366 23.4256 23.173C23.0079 23.6233 22.9563 23.8263 22.9563 25.0176C22.9563 29.775 24.6768 34.191 27.4383 36.5214C28.5355 37.4473 29.857 38.1672 31.1858 38.563C31.9171 38.7807 32.1723 38.7709 33.0249 38.4923C35.863 37.5649 37.9284 35.7143 39.3283 32.8446C40.4361 30.5738 41.0443 27.7997 41.0443 25.0176C41.0443 23.8263 40.9927 23.6233 40.575 23.173C40.2629 22.8366 39.8901 22.6785 39.0543 22.5283C37.0398 22.166 35.0745 21.234 33.4809 19.8853C33.1288 19.5871 32.7248 19.2927 32.5831 19.2309C32.2584 19.0892 31.7125 19.0914 31.4 19.2356ZM32.5092 21.5894C34.2135 22.9415 36.412 23.9732 38.4367 24.371L39.1235 24.5059V25.2897C39.1235 26.8349 38.7643 28.9163 38.2295 30.4711C37.6474 32.163 36.9379 33.374 35.8835 34.4752C34.9052 35.4968 33.7965 36.2073 32.5083 36.6381L32.0159 36.8029L31.5078 36.6363C30.8234 36.412 29.8244 35.9065 29.2391 35.4884C28.603 35.034 27.5678 33.9443 27.0949 33.2313C26.3269 32.0734 25.6237 30.3407 25.2806 28.761C25.058 27.736 24.8771 26.1761 24.8771 25.2817V24.517L25.5718 24.374C27.651 23.946 29.9589 22.8516 31.5601 21.5344C31.7802 21.3533 31.9732 21.2038 31.9889 21.2023C32.0047 21.2007 32.2388 21.375 32.5092 21.5894ZM35.0442 25.6104C34.9355 25.6537 33.9259 26.6054 32.8007 27.7254L30.7549 29.7615L29.9969 28.9936C29.5801 28.5713 29.1232 28.1755 28.9815 28.1141C28.3871 27.8565 27.7446 28.1009 27.5293 28.6667C27.3188 29.2199 27.4721 29.4913 28.7071 30.7511C29.3078 31.364 29.9398 31.9686 30.1114 32.0948C30.4644 32.3544 30.9073 32.3987 31.264 32.2101C31.3828 32.1472 32.603 30.9677 33.9753 29.5889C36.7659 26.7854 36.7408 26.821 36.4071 26.1317C36.1524 25.6055 35.5927 25.3914 35.0442 25.6104ZM36.0021 46.0105V48.0914H32.0003H27.9985V46.0105V43.9295H32.0003H36.0021V46.0105ZM31.544 45.2069C31.2621 45.3787 31.0397 45.7406 31.0402 46.0265C31.0407 46.325 31.3401 46.7306 31.6581 46.8635C32.4233 47.1832 33.2205 46.3449 32.8439 45.6164C32.6914 45.3217 32.2873 45.0506 32.0003 45.0506C31.8902 45.0506 31.6849 45.1209 31.544 45.2069Z" fill="white"/>
</svg>
