<svg width="64" height="64" viewBox="0 0 64 64" fill="none" xmlns="http://www.w3.org/2000/svg">
<rect width="64" height="64" rx="8" fill="#32CD32"/>
<path fill-rule="evenodd" clip-rule="evenodd" d="M19.1143 20.1109C18.8861 20.2239 18.6198 20.6196 18.6198 20.8457C18.6198 20.8973 18.6754 21.0564 18.7432 21.1995C18.9989 21.7384 18.3549 21.7063 28.8993 21.7063C36.8895 21.7063 38.4119 21.7234 38.4119 21.8131C38.4119 21.8719 38.1806 22.9192 37.8979 24.1404C37.6153 25.3617 36.7885 28.9835 36.0607 32.189C35.3329 35.3944 34.7186 38.0963 34.6957 38.1931L34.6539 38.3691H32.4345H30.2152L30.1649 38.1008C30.069 37.59 29.5885 36.7679 29.1008 36.2802C28.2808 35.4602 27.2892 35.0524 26.1299 35.0586C25.3703 35.0627 24.9666 35.1571 24.283 35.4904C23.3383 35.951 22.552 36.858 22.2122 37.8792L22.0492 38.3691H20.6827C19.1306 38.3691 18.9213 38.4248 18.7272 38.8895C18.5843 39.2314 18.6892 39.6191 18.9881 39.8542C19.1725 39.9993 19.3033 40.0119 20.6197 40.0119H22.0508L22.1713 40.4226C22.5805 41.8175 23.9291 43.0164 25.4109 43.3027C26.7525 43.5618 28.3525 43.0181 29.2507 41.9977C29.5876 41.6149 30.0223 40.8364 30.1606 40.3681L30.2542 40.051L35.3353 40.0318L40.4164 40.0126L40.5575 40.4834C41.0746 42.2096 42.922 43.4745 44.7485 43.3529C46.4638 43.2386 47.9995 42.0544 48.4702 40.4831L48.6114 40.0119H49.3751C50.2462 40.0119 50.4716 39.9375 50.6475 39.592C50.7161 39.4573 51.0572 37.798 51.4054 35.9049C51.9557 32.9135 52.0322 32.3907 51.9903 31.9128C51.7092 28.7042 49.4939 26.0956 46.3292 25.2468C45.5847 25.0472 45.5096 25.0426 42.4926 25.0105L39.4154 24.9779L39.4673 24.7712C39.8355 23.3042 40.3568 20.7909 40.3219 20.6516C40.2971 20.5527 40.1717 20.371 40.0433 20.2481L39.8098 20.0243L29.5864 20.0061C20.4196 19.9897 19.3373 20.0005 19.1143 20.1109ZM15.7117 23.483C15.2701 23.757 15.1957 24.3961 15.5629 24.7632L15.7915 24.9919H19.4804H23.1692L23.3979 24.7632C23.7755 24.3856 23.6653 23.6552 23.1985 23.4426C23.0489 23.3743 22.036 23.3496 19.4571 23.3512C16.3018 23.353 15.8984 23.3672 15.7117 23.483ZM45.7892 26.8368C46.5186 26.9975 47.6361 27.5393 48.2278 28.0194C49.3429 28.9241 50.0886 30.2264 50.3105 31.657C50.3948 32.2002 50.3794 32.3147 49.8238 35.2934L49.25 38.3691H48.9283C48.6175 38.3691 48.6031 38.3578 48.507 38.0366C48.1166 36.7322 47.0479 35.6362 45.7711 35.2309C45.063 35.0062 43.9645 35.0062 43.2565 35.2309C41.9797 35.6362 40.9109 36.7322 40.5206 38.0366L40.4211 38.3691H38.4078H36.3946L36.4612 38.0758C37.6092 33.0203 38.9617 27.0836 39.0018 26.9238L39.0547 26.7129H42.1404C44.6672 26.7129 45.3281 26.7354 45.7892 26.8368ZM14.0319 28.5064C13.6949 28.712 13.5661 29.1088 13.7184 29.4732C13.9491 30.0252 13.6976 29.9986 18.6824 29.9986H23.1692L23.3979 29.7699C23.7755 29.3923 23.6653 28.6619 23.1985 28.4492C23.0472 28.3803 21.8481 28.3558 18.6357 28.3561C14.4775 28.3563 14.2669 28.3632 14.0319 28.5064ZM12.518 33.4177C11.8835 33.6496 11.813 34.645 12.4116 34.9178C12.547 34.9795 14.1605 35.0052 17.8864 35.0052H23.1692L23.3979 34.7766C23.7755 34.399 23.6653 33.6685 23.1985 33.4559C23.0456 33.3862 21.6745 33.364 17.8143 33.3686C14.9658 33.372 12.5825 33.3941 12.518 33.4177ZM27.2642 36.98C27.7307 37.2211 28.1576 37.6518 28.4085 38.1344C28.5601 38.4264 28.5917 38.6066 28.5928 39.1905C28.5939 39.7791 28.563 39.9577 28.4045 40.2797C27.8115 41.4848 26.3621 42.0287 25.1875 41.487C24.5751 41.2045 24.2158 40.859 23.9294 40.2771C23.2734 38.9446 23.9089 37.3842 25.329 36.8401C25.7988 36.6601 26.7829 36.7312 27.2642 36.98ZM45.593 36.9509C46.1039 37.2145 46.5197 37.6315 46.7605 38.1218C46.9441 38.4958 46.9777 38.6621 46.976 39.1905C46.9735 40.0086 46.7632 40.4967 46.1863 41.0239C45.211 41.9153 43.8165 41.9153 42.8412 41.0239C41.6363 39.9227 41.7786 38.0508 43.1368 37.1369C43.6504 36.7912 43.8997 36.7275 44.6311 36.7545C45.0903 36.7714 45.3465 36.8237 45.593 36.9509Z" fill="white"/>
</svg>
