<svg width="128" height="128" viewBox="0 0 128 128" fill="none" xmlns="http://www.w3.org/2000/svg">
<path fill-rule="evenodd" clip-rule="evenodd" d="M64 124.179C97.236 124.179 124.179 97.236 124.179 64C124.179 30.764 97.236 3.8209 64 3.8209C30.764 3.8209 3.8209 30.764 3.8209 64C3.8209 97.236 30.764 124.179 64 124.179ZM64 128C99.3462 128 128 99.3462 128 64C128 28.6538 99.3462 0 64 0C28.6538 0 0 28.6538 0 64C0 99.3462 28.6538 128 64 128Z" fill="white"/>
<path fill-rule="evenodd" clip-rule="evenodd" d="M64 104.529C86.3834 104.529 104.529 86.3834 104.529 64C104.529 41.6166 86.3834 23.4712 64 23.4712C41.6166 23.4712 23.4712 41.6166 23.4712 64C23.4712 86.3834 41.6166 104.529 64 104.529ZM64 106.439C87.4385 106.439 106.439 87.4385 106.439 64C106.439 40.5615 87.4385 21.5608 64 21.5608C40.5615 21.5608 21.5608 40.5615 21.5608 64C21.5608 87.4385 40.5615 106.439 64 106.439Z" fill="white"/>
<path d="M116.412 81.2245L117.629 81.7966L114.936 87.5329L113.719 86.9608L114.723 84.8225L108.96 82.1128L109.645 80.6531L115.408 83.3628L116.412 81.2245Z" fill="white"/>
<path d="M106.099 87.2627L107.101 85.8303L111.892 92.4381L110.687 94.1607L102.845 91.9149L103.846 90.4825L109.828 92.3128L109.863 92.2634L106.099 87.2627ZM108.645 88.9126L106.278 92.296L105.235 91.5656L107.602 88.1822L108.645 88.9126Z" fill="white"/>
<path d="M101.539 100.764C101.705 100.857 101.872 100.921 102.039 100.954C102.207 100.989 102.375 100.993 102.542 100.965C102.709 100.942 102.873 100.887 103.035 100.801C103.196 100.717 103.351 100.601 103.501 100.452C103.782 100.176 103.96 99.8624 104.035 99.513C104.108 99.1653 104.073 98.8 103.928 98.4171C103.785 98.036 103.525 97.654 103.148 97.2713C102.771 96.8885 102.392 96.6203 102.011 96.4666C101.631 96.313 101.264 96.2705 100.912 96.3391C100.562 96.4094 100.242 96.5875 99.9528 96.8733C99.69 97.1326 99.5115 97.4004 99.4173 97.6769C99.323 97.9569 99.3114 98.2313 99.3823 98.5C99.4514 98.7705 99.6014 99.0229 99.8323 99.2572L99.562 99.4551L100.978 98.0581L101.84 98.9328L99.5419 101.2L98.8597 100.508C98.3838 100.025 98.0767 99.5096 97.9385 98.9615C97.8021 98.4152 97.8201 97.8718 97.9925 97.3312C98.1667 96.7924 98.4843 96.2955 98.9455 95.8404C99.4603 95.3324 100.024 94.9997 100.638 94.8423C101.253 94.6868 101.877 94.7115 102.509 94.9167C103.142 95.1254 103.743 95.5195 104.314 96.099C104.753 96.5444 105.08 97.005 105.295 97.4807C105.51 97.9601 105.621 98.4369 105.626 98.9112C105.632 99.3856 105.542 99.8397 105.356 100.274C105.17 100.708 104.895 101.103 104.533 101.462C104.222 101.768 103.887 102.009 103.529 102.182C103.173 102.357 102.81 102.465 102.44 102.505C102.069 102.547 101.705 102.519 101.349 102.423C100.995 102.328 100.665 102.163 100.36 101.928L101.539 100.764Z" fill="white"/>
<path d="M91.5748 102.062L95.4578 108.73L92.79 110.286C92.2998 110.572 91.8486 110.737 91.4364 110.783C91.0243 110.828 90.6605 110.77 90.3453 110.608C90.0313 110.448 89.777 110.201 89.5823 109.867C89.4306 109.606 89.3493 109.347 89.3384 109.089C89.3288 108.833 89.3784 108.589 89.4873 108.356C89.5952 108.128 89.7501 107.92 89.9518 107.732L89.9139 107.667C89.6538 107.804 89.3746 107.871 89.0763 107.868C88.7758 107.866 88.4866 107.786 88.2087 107.628C87.9322 107.472 87.6984 107.231 87.5076 106.903C87.3015 106.549 87.2055 106.182 87.2194 105.802C87.2323 105.425 87.3623 105.057 87.6093 104.698C87.8563 104.339 88.2292 104.014 88.7281 103.723L91.5748 102.062ZM90.8372 104.036L89.6888 104.706C89.2962 104.935 89.0535 105.177 88.9607 105.432C88.8692 105.689 88.8967 105.943 89.0434 106.195C89.1508 106.379 89.2901 106.516 89.4612 106.605C89.6322 106.695 89.8236 106.731 90.0352 106.715C90.2446 106.701 90.4621 106.628 90.6877 106.496L91.8687 105.808L90.8372 104.036ZM92.4242 106.761L91.3799 107.37C91.1868 107.483 91.0351 107.617 90.9246 107.771C90.8132 107.929 90.7508 108.096 90.7374 108.273C90.7217 108.451 90.7651 108.627 90.8675 108.803C91.0078 109.044 91.2066 109.188 91.4639 109.236C91.719 109.285 92.0028 109.218 92.3151 109.036L93.3855 108.412L92.4242 106.761Z" fill="white"/>
<path d="M85.7865 113.739L82.7672 106.638L84.2675 105.999L87.2868 113.1L85.7865 113.739Z" fill="white"/>
<path d="M74.4618 113.279C74.2423 112.466 74.2094 111.734 74.3632 111.081C74.5145 110.428 74.8137 109.88 75.2608 109.436C75.706 108.996 76.257 108.687 76.9137 108.509C77.5753 108.33 78.2096 108.32 78.8167 108.478C79.4239 108.636 79.9571 108.959 80.4164 109.446C80.8758 109.934 81.2149 110.582 81.4337 111.392C81.6533 112.205 81.6873 112.937 81.536 113.59C81.3846 114.242 81.0863 114.789 80.6411 115.229C80.1965 115.672 79.6434 115.983 78.9818 116.162C78.3251 116.34 77.6932 116.35 77.0861 116.191C76.4772 116.036 75.9431 115.715 75.4838 115.227C75.022 114.741 74.6814 114.091 74.4618 113.279ZM76.0576 112.847C76.1998 113.373 76.3985 113.796 76.6536 114.114C76.9063 114.434 77.1997 114.648 77.5337 114.758C77.8677 114.868 78.2249 114.872 78.6054 114.769C78.9858 114.666 79.2926 114.483 79.5257 114.219C79.7587 113.956 79.9052 113.622 79.9651 113.218C80.0225 112.815 79.9802 112.35 79.838 111.824C79.6958 111.298 79.4983 110.875 79.2456 110.556C78.9904 110.237 78.6958 110.023 78.3618 109.913C78.0279 109.803 77.6707 109.799 77.2902 109.902C76.9097 110.005 76.603 110.188 76.3699 110.452C76.1368 110.715 75.9916 111.049 75.9341 111.452C75.8742 111.856 75.9154 112.321 76.0576 112.847Z" fill="white"/>
<path d="M68.321 112.869L66.9392 112.972L66.1776 112.13L65.4345 111.385L64.0257 109.865L65.5427 109.752L66.5104 110.775L67.0131 111.387L68.321 112.869ZM64.2444 114.353C64.1816 113.514 64.2872 112.788 64.561 112.175C64.8324 111.563 65.2293 111.081 65.7518 110.73C66.272 110.381 66.8713 110.181 67.5497 110.13C68.2331 110.079 68.858 110.188 69.4245 110.458C69.991 110.728 70.4539 111.146 70.8134 111.711C71.1729 112.276 71.3839 112.977 71.4465 113.813C71.5093 114.653 71.4051 115.378 71.1337 115.991C70.8623 116.603 70.4666 117.084 69.9464 117.432C69.4264 117.784 68.8247 117.985 68.1413 118.036C67.4629 118.087 66.8404 117.978 66.274 117.708C65.7052 117.44 65.2411 117.024 64.8816 116.459C64.5196 115.894 64.3072 115.192 64.2444 114.353ZM65.8929 114.23C65.9336 114.773 66.0492 115.225 66.2399 115.587C66.428 115.948 66.6757 116.214 66.9831 116.385C67.2904 116.556 67.6406 116.627 68.0336 116.597C68.4266 116.568 68.7624 116.445 69.0408 116.231C69.3193 116.016 69.5259 115.716 69.6607 115.33C69.793 114.945 69.8388 114.481 69.7981 113.937C69.7574 113.393 69.643 112.941 69.4549 112.58C69.2642 112.219 69.0152 111.953 68.7079 111.782C68.4006 111.611 68.0504 111.54 67.6574 111.569C67.2644 111.599 66.9286 111.721 66.6502 111.936C66.3717 112.151 66.1663 112.451 66.034 112.836C65.8992 113.221 65.8522 113.686 65.8929 114.23Z" fill="white"/>
<path d="M55.9058 117.593L54.2851 117.415L54.8323 112.433C54.8938 111.874 55.0811 111.399 55.3941 111.009C55.7047 110.618 56.1112 110.332 56.6136 110.15C57.1157 109.97 57.6837 109.915 58.3175 109.985C58.9538 110.055 59.4975 110.232 59.9486 110.517C60.3994 110.804 60.734 111.172 60.9525 111.62C61.1709 112.069 61.2494 112.573 61.1879 113.132L60.6406 118.114L59.0199 117.936L59.552 113.093C59.5841 112.8 59.549 112.534 59.4467 112.293C59.3419 112.051 59.1793 111.852 58.959 111.697C58.7388 111.541 58.4726 111.446 58.1607 111.412C57.8463 111.377 57.5659 111.412 57.3196 111.516C57.0708 111.62 56.8703 111.779 56.718 111.992C56.5633 112.205 56.4699 112.458 56.4378 112.75L55.9058 117.593Z" fill="white"/>
<path d="M51.2603 108.862L52.9352 109.359L48.1882 115.999L46.1739 115.4L45.8204 107.245L47.4953 107.743L47.6537 114.001L47.7115 114.018L51.2603 108.862ZM50.5022 111.801L46.5459 110.625L46.9081 109.404L50.8645 110.58L50.5022 111.801ZM46.2583 116.149L46.7223 117.246L47.7094 116.58L49.0197 116.969L49.0047 117.02L47.0712 118.175L45.9269 117.835L44.9329 115.81L44.9479 115.759L46.2583 116.149Z" fill="white"/>
<path d="M34.7085 110.439L38.1855 103.551L39.4425 104.187L40.2488 110.036L40.2993 110.061L42.4876 105.726L43.943 106.461L40.466 113.35L39.1888 112.704L38.4043 106.87L38.3438 106.84L36.1571 111.172L34.7085 110.439Z" fill="white"/>
<path d="M32.4264 107.459L31.6245 108.538L26.5412 104.757L27.3432 103.678L29.2381 105.087L33.0365 99.9732L34.33 100.935L30.5315 106.049L32.4264 107.459Z" fill="white"/>
<path d="M22.9846 101.433L28.3229 95.8636L29.4996 96.9931L24.1613 102.562L22.9846 101.433Z" fill="white"/>
<path d="M18.2228 91.7827L19.2478 93.0757C19.0993 93.232 18.989 93.3981 18.917 93.5739C18.8429 93.7514 18.8049 93.9338 18.803 94.1213C18.801 94.3089 18.8348 94.4969 18.9042 94.6855C18.972 94.8722 19.0746 95.0521 19.2118 95.2253C19.4599 95.5382 19.7537 95.7491 20.0931 95.858C20.4306 95.9685 20.7976 95.9706 21.194 95.8643C21.5884 95.7596 21.9951 95.541 22.414 95.2085C22.8447 94.8666 23.1559 94.5154 23.3475 94.1548C23.5376 93.7923 23.6153 93.4356 23.5807 93.0847C23.5461 92.7339 23.4079 92.4059 23.1661 92.1008C23.0303 91.9296 22.8821 91.7891 22.7214 91.6794C22.5592 91.5677 22.3896 91.4891 22.2125 91.4437C22.0336 91.3998 21.8515 91.3904 21.6663 91.4155C21.4796 91.4387 21.2939 91.4995 21.1093 91.598L20.0902 90.3003C20.394 90.1136 20.7278 89.985 21.0915 89.9143C21.4517 89.8432 21.822 89.8394 22.2024 89.903C22.5793 89.9661 22.9492 90.1054 23.3122 90.3207C23.6716 90.5356 24.005 90.8369 24.3123 91.2246C24.7398 91.7639 25.0001 92.3428 25.0932 92.9615C25.1847 93.5782 25.0969 94.193 24.8298 94.8059C24.561 95.4168 24.0982 95.983 23.4414 96.5044C22.7825 97.0274 22.1237 97.3484 21.465 97.4673C20.8062 97.5862 20.1874 97.5291 19.6085 97.296C19.0276 97.0645 18.5266 96.6831 18.1054 96.1517C17.8277 95.8014 17.6194 95.4376 17.4806 95.0604C17.3403 94.6812 17.2724 94.3006 17.2771 93.9185C17.2799 93.5379 17.3592 93.1671 17.5152 92.8061C17.6696 92.443 17.9055 92.1019 18.2228 91.7827Z" fill="white"/>
<path d="M20.1633 85.4007L20.9839 86.9442L12.9253 88.2169L11.9384 86.3607L17.498 80.3875L18.3186 81.931L13.9735 86.4339L14.0018 86.4872L20.1633 85.4007ZM17.5385 86.9219L15.6001 83.2759L16.7237 82.6777L18.6621 86.3237L17.5385 86.9219Z" fill="white"/>
<path d="M12.5545 69.1267L12.6486 67.6684L11.4286 68.4861L10.924 67.5968L12.2382 66.9563L10.924 66.3157L11.4286 65.4264L12.6486 66.2441L12.5545 64.7858H13.5674L13.4695 66.2441L14.6895 65.4264L15.1941 66.3157L13.8837 66.9563L15.1941 67.5968L14.6895 68.4861L13.4695 67.6684L13.5674 69.1267H12.5545Z" fill="white"/>
<path d="M11.5873 46.7293L10.371 46.1564L13.0683 40.4219L14.2846 40.9947L13.2791 43.1324L19.0404 45.846L18.354 47.3052L12.5928 44.5916L11.5873 46.7293Z" fill="white"/>
<path d="M21.9051 40.698L20.9022 42.1297L16.1153 35.5187L17.3214 33.797L25.1622 36.048L24.1594 37.4797L18.1787 35.6454L18.1441 35.6947L21.9051 40.698ZM19.3602 39.0464L21.729 35.6646L22.7712 36.3956L20.4024 39.7774L19.3602 39.0464Z" fill="white"/>
<path d="M26.4734 27.1998C26.3072 27.1062 26.1409 27.0427 25.9742 27.0095C25.8059 26.9745 25.6381 26.9705 25.4711 26.9977C25.304 27.0212 25.1394 27.0759 24.9772 27.1617C24.8168 27.2458 24.6615 27.3618 24.5113 27.5099C24.2304 27.7866 24.0523 28.0997 23.9769 28.4491C23.9032 28.7967 23.9386 29.162 24.083 29.545C24.2257 29.9262 24.4855 30.3084 24.8624 30.6914C25.2394 31.0744 25.6181 31.3429 25.9986 31.4968C26.379 31.6507 26.7453 31.6934 27.0973 31.6251C27.4475 31.5549 27.7675 31.3771 28.0573 31.0915C28.3202 30.8324 28.4989 30.5646 28.5933 30.2882C28.6877 30.0083 28.6996 29.7339 28.6289 29.4652C28.5599 29.1946 28.4101 28.9421 28.1793 28.7077L28.4498 28.5099L27.0332 29.9059L26.1718 29.0307L28.4711 26.7648L29.1528 27.4574C29.6284 27.9407 29.9351 28.4564 30.0729 29.0046C30.209 29.551 30.1906 30.0944 30.0179 30.6349C29.8433 31.1735 29.5253 31.6703 29.0639 32.125C28.5488 32.6327 27.9844 32.965 27.3708 33.122C26.7554 33.2771 26.1316 33.2519 25.4995 33.0464C24.8673 32.8373 24.2659 32.4428 23.6952 31.8628C23.2566 31.4172 22.9299 30.9564 22.7152 30.4805C22.5005 30.001 22.3906 29.5241 22.3853 29.0497C22.3801 28.5754 22.4705 28.1214 22.6567 27.6876C22.8428 27.2538 23.1174 26.858 23.4805 26.5002C23.7917 26.1934 24.1264 25.9535 24.4845 25.7804C24.8409 25.6055 25.2038 25.4981 25.5734 25.4583C25.9447 25.4168 26.3084 25.4444 26.6644 25.5413C27.0187 25.6364 27.3485 25.8014 27.6539 26.0364L26.4734 27.1998Z" fill="white"/>
<path d="M36.4388 25.9078L32.5602 19.2377L35.229 17.6837C35.7194 17.3982 36.1707 17.2328 36.5829 17.1875C36.9951 17.1422 37.3588 17.2007 37.674 17.3631C37.9878 17.5232 38.242 17.7705 38.4364 18.1049C38.5879 18.3654 38.6691 18.6248 38.6798 18.8831C38.6893 19.1391 38.6395 19.3832 38.5305 19.6152C38.4224 19.8439 38.2674 20.0518 38.0655 20.2391L38.1034 20.3043C38.3636 20.1673 38.6428 20.1006 38.9411 20.1042C39.2416 20.1065 39.5308 20.1866 39.8085 20.3446C40.085 20.5004 40.3186 20.7423 40.5092 21.0701C40.715 21.424 40.8108 21.7911 40.7967 22.1714C40.7834 22.5482 40.6532 22.9161 40.406 23.2752C40.1588 23.6342 39.7856 23.959 39.2866 24.2496L36.4388 25.9078ZM37.1776 23.9343L38.3265 23.2653C38.7192 23.0366 38.9621 22.7949 39.0551 22.5403C39.1468 22.2834 39.1194 22.0291 38.9729 21.7772C38.8656 21.5926 38.7264 21.4557 38.5554 21.3664C38.3844 21.277 38.1931 21.2402 37.9815 21.2559C37.772 21.2703 37.5545 21.3432 37.3288 21.4746L36.1474 22.1625L37.1776 23.9343ZM35.5925 21.2083L36.6372 20.5999C36.8303 20.4875 36.9822 20.354 37.0928 20.1996C37.2042 20.0416 37.2668 19.8744 37.2803 19.698C37.2961 19.5202 37.2528 19.3434 37.1505 19.1676C37.0104 18.9266 36.8117 18.7821 36.5544 18.7343C36.2993 18.6852 36.0155 18.7516 35.7031 18.9335L34.6323 19.557L35.5925 21.2083Z" fill="white"/>
<path d="M42.2348 14.2351L45.2494 21.3382L43.7486 21.976L40.7341 14.8729L42.2348 14.2351Z" fill="white"/>
<path d="M53.5592 14.7029C53.7781 15.5154 53.8105 16.2482 53.6563 16.9012C53.5045 17.5536 53.205 18.1015 52.7577 18.5449C52.3121 18.9851 51.7609 19.2939 51.1041 19.4712C50.4424 19.6497 49.8081 19.6596 49.201 19.5008C48.594 19.342 48.061 19.0188 47.602 18.5313C47.143 18.0437 46.8043 17.3949 46.586 16.5848C46.367 15.7723 46.3334 15.0399 46.4852 14.3875C46.637 13.7351 46.9356 13.1887 47.3812 12.7485C47.8261 12.3058 48.3794 11.9951 49.0411 11.8165C49.6979 11.6393 50.3298 11.63 50.9368 11.7889C51.5456 11.9446 52.0795 12.2662 52.5385 12.7538C53 13.2407 53.3402 13.8904 53.5592 14.7029ZM51.9631 15.1336C51.8213 14.6073 51.6229 14.1847 51.3679 13.8659C51.1154 13.5463 50.8222 13.3315 50.4883 13.2212C50.1544 13.111 49.7971 13.1073 49.4166 13.2099C49.0361 13.3126 48.7292 13.4956 48.4959 13.7589C48.2627 14.0222 48.116 14.3558 48.0559 14.7597C47.9981 15.163 48.0402 15.6278 48.1821 16.1541C48.3239 16.6804 48.5211 17.1033 48.7736 17.4228C49.0285 17.7417 49.323 17.9563 49.6569 18.0665C49.9908 18.1767 50.348 18.1805 50.7285 18.0778C51.1091 17.9751 51.416 17.7921 51.6492 17.5288C51.8825 17.2655 52.0279 16.9322 52.0857 16.529C52.1458 16.1251 52.105 15.66 51.9631 15.1336Z" fill="white"/>
<path d="M59.6998 15.1172L61.0817 15.0146L61.8427 15.8573L62.5852 16.6032L63.9931 18.1234L62.476 18.2361L61.509 17.2121L61.0066 16.5996L59.6998 15.1172ZM63.7773 13.6355C63.8396 14.4747 63.7336 15.2005 63.4593 15.8129C63.1875 16.425 62.7902 16.9067 62.2675 17.2578C61.7471 17.6063 61.1477 17.8057 60.4693 17.8561C59.7858 17.9069 59.1609 17.7971 58.5947 17.5268C58.0284 17.2565 57.5657 16.8387 57.2066 16.2734C56.8475 15.7081 56.6369 15.0071 56.5749 14.1704C56.5126 13.3311 56.6174 12.6054 56.8892 11.9933C57.1609 11.3811 57.557 10.9008 58.0774 10.5524C58.5976 10.2014 59.1995 10.0005 59.8829 9.94974C60.5614 9.89936 61.1837 10.0093 61.75 10.2796C62.3186 10.5472 62.7825 10.9637 63.1416 11.529C63.5032 12.0941 63.7151 12.7963 63.7773 13.6355ZM62.1288 13.7579C62.0885 13.2143 61.9731 12.7619 61.7827 12.4007C61.5948 12.0393 61.3473 11.7731 61.04 11.6019C60.7328 11.4308 60.3827 11.3598 59.9897 11.389C59.5966 11.4182 59.2608 11.5401 58.9822 11.7547C58.7036 11.9694 58.4968 12.2694 58.3617 12.6547C58.2292 13.0399 58.1831 13.5043 58.2234 14.0479C58.2637 14.5916 58.3778 15.0441 58.5657 15.4054C58.7561 15.7666 59.0049 16.0328 59.3121 16.204C59.6194 16.3751 59.9695 16.4461 60.3625 16.4169C60.7556 16.3877 61.0914 16.2658 61.37 16.0511C61.6486 15.8365 61.8542 15.5366 61.9867 15.1514C62.1218 14.766 62.1691 14.3015 62.1288 13.7579Z" fill="white"/>
<path d="M72.1181 10.4011L73.7387 10.5805L73.1881 15.5617C73.1263 16.121 72.9387 16.5956 72.6253 16.9856C72.3145 17.3758 71.9078 17.6618 71.4053 17.8438C70.9031 18.0232 70.335 18.0779 69.7013 18.0077C69.065 17.9373 68.5214 17.7596 68.0705 17.4747C67.6199 17.1872 67.2855 16.8191 67.0674 16.3704C66.8493 15.9216 66.7711 15.4176 66.833 14.8583L67.3836 9.87708L69.0042 10.0565L68.4689 14.8991C68.4366 15.1912 68.4715 15.458 68.5736 15.6993C68.6783 15.9408 68.8407 16.1395 69.0609 16.2953C69.2811 16.4511 69.5471 16.5463 69.859 16.5808C70.1734 16.6156 70.4538 16.5809 70.7002 16.4768C70.9491 16.3729 71.1497 16.2144 71.3021 16.0013C71.4569 15.7884 71.5505 15.5359 71.5828 15.2438L72.1181 10.4011Z" fill="white"/>
<path d="M76.7578 19.1356L75.0831 18.6368L79.8347 12.0003L81.8485 12.6001L82.1966 20.7555L80.522 20.2567L80.3677 13.999L80.31 13.9818L76.7578 19.1356ZM77.5178 16.1971L81.4733 17.3752L81.1103 18.5959L77.1547 17.4178L77.5178 16.1971ZM81.7647 11.8518L81.3013 10.7545L80.3138 11.4197L79.0037 11.0295L79.0188 10.9789L80.9531 9.82516L82.0971 10.1659L83.0898 12.1914L83.0747 12.242L81.7647 11.8518Z" fill="white"/>
<path d="M93.3106 17.569L89.829 24.4549L88.5724 23.8187L87.77 17.969L87.7196 17.9435L85.5283 22.2774L84.0734 21.5408L87.555 14.6549L88.8318 15.3014L89.6124 21.1358L89.6729 21.1664L91.8625 16.8358L93.3106 17.569Z" fill="white"/>
<path d="M95.5906 20.5511L96.3933 19.472L101.474 23.2562L100.671 24.3354L98.7774 22.9247L94.9756 28.0362L93.6827 27.0732L97.4846 21.9618L95.5906 20.5511Z" fill="white"/>
<path d="M105.028 26.5831L99.6864 32.1489L98.5105 31.0187L103.852 25.4529L105.028 26.5831Z" fill="white"/>
<path d="M109.784 36.2366L108.76 34.9429C108.908 34.7867 109.019 34.6207 109.091 34.4449C109.165 34.2675 109.203 34.0851 109.205 33.8976C109.207 33.71 109.174 33.522 109.104 33.3333C109.037 33.1466 108.934 32.9666 108.797 32.7934C108.549 32.4803 108.256 32.2692 107.916 32.16C107.579 32.0494 107.212 32.047 106.815 32.153C106.421 32.2574 106.014 32.4758 105.595 32.808C105.164 33.1496 104.853 33.5006 104.661 33.8611C104.47 34.2234 104.392 34.5801 104.427 34.931C104.461 35.2819 104.599 35.6099 104.841 35.9152C104.976 36.0865 105.125 36.227 105.285 36.3369C105.447 36.4487 105.617 36.5274 105.794 36.5729C105.973 36.617 106.155 36.6265 106.34 36.6015C106.527 36.5784 106.713 36.5177 106.897 36.4193L107.915 37.7177C107.612 37.9042 107.278 38.0326 106.914 38.1031C106.554 38.1739 106.183 38.1775 105.803 38.1137C105.426 38.0502 105.056 37.9108 104.693 37.6952C104.334 37.4801 104.001 37.1785 103.694 36.7906C103.267 36.2511 103.007 35.6719 102.914 35.0532C102.823 34.4364 102.911 33.8217 103.179 33.209C103.448 32.5982 103.911 32.0324 104.568 31.5114C105.228 30.9888 105.887 30.6683 106.545 30.5498C107.204 30.4314 107.823 30.4889 108.402 30.7223C108.983 30.9542 109.483 31.336 109.904 31.8677C110.182 32.2182 110.39 32.5821 110.528 32.9594C110.668 33.3386 110.736 33.7193 110.731 34.1014C110.728 34.482 110.648 34.8527 110.492 35.2137C110.337 35.5767 110.101 35.9176 109.784 36.2366Z" fill="white"/>
<path d="M107.839 42.6173L107.019 41.0732L115.079 39.8058L116.065 41.6627L110.501 47.6323L109.681 46.0882L114.03 41.5882L114.001 41.5349L107.839 42.6173ZM110.465 41.0978L112.401 44.7451L111.277 45.3426L109.341 41.6953L110.465 41.0978Z" fill="white"/>
<path d="M114.27 69.3089L114.364 67.8506L113.144 68.6683L112.64 67.779L113.954 67.1384L112.64 66.4978L113.144 65.6086L114.364 66.4262L114.27 64.968H115.283L115.185 66.4262L116.405 65.6086L116.91 66.4978L115.599 67.1384L116.91 67.779L116.405 68.6683L115.185 67.8506L115.283 69.3089H114.27Z" fill="white"/>
<path fill-rule="evenodd" clip-rule="evenodd" d="M62.9704 36.0411C61.1265 36.3983 59.4206 37.6256 58.0031 39.6151C56.9394 41.1081 55.7078 43.8212 54.9471 46.3479C54.7432 47.0251 54.5516 47.6039 54.5214 47.634C54.4912 47.6642 53.8298 47.5438 53.0514 47.3664C49.8214 46.6303 46.6334 46.4567 44.5278 46.9026C42.2361 47.3878 40.5208 48.595 39.6496 50.3356C39.0933 51.4472 38.9469 52.1896 39.0159 53.5489C39.154 56.2732 40.9981 59.6136 44.289 63.1016L45.1395 64.0029L44.1485 65.0727C40.8695 68.6122 39.1535 71.7522 39.0159 74.4651C38.9469 75.8244 39.0933 76.5668 39.6496 77.6784C40.4617 79.3009 42.1054 80.5239 44.1473 81.0249C46.4396 81.5873 49.7049 81.4313 53.3229 80.5865C53.9494 80.4402 54.4877 80.3462 54.5191 80.3777C54.5505 80.4091 54.7432 80.9888 54.9471 81.666C55.7078 84.1927 56.9394 86.9059 58.0031 88.3989C59.1816 90.0529 60.6198 91.2331 62.0587 91.7268C63.12 92.0911 64.792 92.0911 65.8534 91.7268C68.7975 90.7164 71.3102 87.1617 72.965 81.666C73.1689 80.9888 73.3615 80.4091 73.3929 80.3777C73.4244 80.3462 73.9626 80.4402 74.5891 80.5865C78.2206 81.4344 81.4094 81.5892 83.7667 81.0318C85.7547 80.5618 87.4534 79.2946 88.2625 77.6784C88.8188 76.5668 88.9652 75.8244 88.8962 74.4651C88.7582 71.7466 86.9093 68.398 83.6207 64.9104L82.7688 64.007L83.6207 63.1035C86.9093 59.616 88.7582 56.2674 88.8962 53.5489C88.9652 52.1896 88.8188 51.4472 88.2625 50.3356C87.3912 48.595 85.676 47.3878 83.3843 46.9026C81.2787 46.4567 78.0906 46.6303 74.8607 47.3664C74.0823 47.5438 73.4209 47.6642 73.3906 47.634C73.3604 47.6039 73.1689 47.0251 72.965 46.3479C72.2042 43.8212 70.9727 41.1081 69.9089 39.6151C68.7464 37.9834 67.2986 36.786 65.9116 36.3088C65.2265 36.0732 63.5792 35.9233 62.9704 36.0411ZM65.0108 39.4918C66.6337 40.099 68.2683 42.6117 69.5261 46.4328C70.2999 48.7833 70.2863 48.6255 69.7324 48.8271C68.0581 49.4364 66.2149 50.1518 65.1707 50.5976L63.956 51.1162L62.7788 50.6157C61.4043 50.0314 59.7612 49.3848 58.5627 48.9568C58.096 48.79 57.714 48.6312 57.714 48.6039C57.714 48.4528 58.3047 46.4917 58.6426 45.5216C60.3199 40.7038 62.5659 38.5771 65.0108 39.4918ZM82.8385 50.0625C86.3856 50.9504 86.5706 54.0769 83.3299 58.3704C82.6342 59.2921 80.5097 61.7085 80.3979 61.7052C80.3592 61.7041 79.8594 61.3059 79.2873 60.8202C78.5301 60.1776 75.506 57.8225 75.1554 57.6025C75.1415 57.5937 75.0299 56.8013 74.9074 55.8416C74.785 54.8817 74.5623 53.3921 74.4126 52.5314C74.2629 51.6705 74.1403 50.9477 74.1403 50.9251C74.1403 50.9025 74.7687 50.736 75.5366 50.5548C78.7388 49.7999 81.1418 49.6378 82.8385 50.0625ZM49.3946 50.0488C50.5005 50.1851 53.6287 50.8087 53.7464 50.9161C53.7625 50.9309 53.6524 51.6525 53.5016 52.5197C53.3507 53.3869 53.127 54.8817 53.0046 55.8416C52.8822 56.8013 52.7706 57.5937 52.7567 57.6025C52.4368 57.8032 49.3836 60.1832 48.6248 60.8234C48.0526 61.3061 47.5524 61.7024 47.5132 61.7041C47.4175 61.7084 46.0301 60.2193 45.1184 59.1339C41.7243 55.0925 41.2897 51.824 43.9707 50.5015C44.4556 50.2623 45.1464 50.0743 45.9966 49.9501C46.6724 49.8515 48.1404 49.8942 49.3946 50.0488ZM58.6896 52.5161C59.8117 52.9382 59.9856 53.0213 59.8951 53.0916C59.8699 53.1111 59.2827 53.4495 58.5901 53.8434C57.8975 54.2374 57.1383 54.6743 56.9032 54.8143L56.4757 55.0688L56.5525 54.4732C56.5947 54.1455 56.7078 53.4427 56.8038 52.9112C57.0077 51.7819 56.8347 51.8181 58.6896 52.5161ZM71.0625 52.536C71.1248 52.8521 71.2285 53.4312 71.2928 53.8227C71.3572 54.2142 71.4392 54.6813 71.4752 54.8608C71.529 55.129 71.5137 55.1654 71.3895 55.0646C71.3064 54.9973 70.5026 54.5189 69.6032 54.0018L67.968 53.0616L68.3986 52.8798C69.1992 52.5419 70.6899 51.9829 70.8199 51.972C70.8913 51.966 70.9997 52.2179 71.0625 52.536ZM65.4087 55.4789C68.3376 56.9449 71.7651 59.0971 71.9667 59.5967C72.1147 59.9636 72.1598 66.3287 72.0243 67.7358L71.9342 68.6721L70.744 69.4589C69.2525 70.445 66.9202 71.7839 65.2428 72.617L63.956 73.2561L62.6693 72.6194C59.8049 71.2023 56.1453 68.9113 55.9418 68.408C55.7963 68.0479 55.755 61.6453 55.8896 60.2837L55.9815 59.3529L56.4372 59.0331C58.1847 57.8068 63.4894 54.8174 63.9303 54.8105C64.0065 54.8092 64.6718 55.1101 65.4087 55.4789ZM62.8017 59.2319C61.8945 59.4522 61.2021 59.8488 60.4986 60.5509C58.5547 62.491 58.5547 65.5263 60.4986 67.4613C62.4525 69.4063 65.476 69.4076 67.4104 67.4644C69.3552 65.5107 69.3566 62.4928 67.4134 60.5496C66.1635 59.2997 64.4903 58.8216 62.8017 59.2319ZM52.4576 64.0135C52.4576 65.3647 52.4212 65.9686 52.3428 65.9201C51.982 65.6972 50.1032 64.076 50.1032 63.9876C50.1032 63.8751 52.2367 62.0462 52.3755 62.0397C52.4206 62.0376 52.4576 62.9258 52.4576 64.0135ZM76.7464 63.0411C77.3308 63.5232 77.823 63.9555 77.8403 64.002C77.87 64.0813 75.7681 65.8815 75.554 65.9599C75.4966 65.981 75.4544 65.1553 75.4544 64.0096C75.4544 62.652 75.4908 62.0454 75.5692 62.0939C75.6324 62.1329 76.1621 62.5592 76.7464 63.0411ZM48.6248 67.1906C49.3836 67.8308 52.4368 70.2108 52.7567 70.4115C52.7706 70.4203 52.8822 71.2127 53.0046 72.1724C53.127 73.1322 53.3498 74.6219 53.4995 75.4826C53.6492 76.3435 53.7717 77.066 53.7717 77.0884C53.7717 77.1598 51.4614 77.6832 50.1032 77.9195C48.4333 78.2101 46.256 78.2395 45.2017 77.9859C41.5237 77.1011 41.2947 74.0244 44.5802 69.6371C45.2485 68.7446 47.401 66.3046 47.5155 66.3099C47.5534 66.3116 48.0526 66.7079 48.6248 67.1906ZM81.264 67.1554C83.8601 69.9309 85.2081 72.0247 85.5956 73.8834C85.7773 74.7544 85.6876 75.5347 85.3248 76.24C84.412 78.0149 81.4398 78.5548 77.0487 77.7434C76.1746 77.5819 74.2206 77.1432 74.1656 77.0961C74.1495 77.0823 74.2597 76.3614 74.4105 75.4942C74.5614 74.627 74.785 73.1322 74.9074 72.1724C75.0299 71.2127 75.1415 70.4203 75.1554 70.4115C75.506 70.1915 78.5301 67.8364 79.2873 67.1938C79.8594 66.7081 80.3597 66.3099 80.3989 66.3088C80.4381 66.3075 80.8274 66.6886 81.264 67.1554ZM58.307 74.0111L59.9402 74.9502L59.4569 75.1566C58.536 75.5498 57.0405 76.073 56.988 76.0204C56.9425 75.975 56.8528 75.5081 56.4485 73.2123C56.3949 72.9076 56.41 72.8583 56.5279 72.9538C56.6081 73.0188 57.4087 73.4945 58.307 74.0111ZM71.1848 74.6482C71.0572 75.387 70.9342 76.0104 70.9114 76.0332C70.8245 76.12 68.0049 75.0869 68.0119 74.9708C68.0142 74.9336 68.7656 74.4757 69.6819 73.9533C70.8308 73.2984 71.3585 73.0503 71.3823 73.1541C71.4012 73.2369 71.3123 73.9093 71.1848 74.6482ZM65.0188 77.3519C65.8563 77.7198 68.0342 78.5681 69.6779 79.1668C69.964 79.2711 70.198 79.3892 70.198 79.4294C70.198 79.4696 69.9978 80.1677 69.7532 80.9809C68.2634 85.9317 66.4325 88.4971 64.2261 88.7249C62.5866 88.8941 61.0993 87.6084 59.701 84.8137C59.0742 83.561 58.0296 80.7524 57.7814 79.6522C57.7175 79.3691 57.7467 79.3527 59.3851 78.7452C60.303 78.405 61.67 77.8611 62.4229 77.5364C63.1758 77.2118 63.8511 76.9423 63.9237 76.9376C63.9963 76.9329 64.4891 77.1193 65.0188 77.3519Z" fill="white"/>
</svg>
