<svg width="128" height="128" viewBox="0 0 128 128" fill="none" xmlns="http://www.w3.org/2000/svg">
<path fill-rule="evenodd" clip-rule="evenodd" d="M64.3575 36.2087C62.155 36.7857 60.2912 38.5233 59.6777 40.5718L59.4905 41.1964L58.2188 41.6253C52.5551 43.5355 47.6517 47.7901 44.867 53.2102C44.2879 54.3373 43.5152 56.2432 43.3151 57.0382C43.1994 57.4975 43.1791 57.5141 42.4531 57.748C40.5641 58.3563 38.9771 59.9421 38.2743 61.9236C37.9086 62.9549 37.9086 65.0508 38.2743 66.0821C38.9777 68.0653 40.564 69.6494 42.4571 70.2591C43.1277 70.4751 43.2119 70.5343 43.2763 70.8353C43.3158 71.0198 43.5393 71.682 43.7728 72.3067C45.1763 76.061 47.6396 79.5609 50.6546 82.0849C52.8521 83.9246 55.6528 85.5149 58.2188 86.3804L59.4905 86.8094L59.6777 87.4339C60.1169 88.9005 61.4127 90.4598 62.7963 91.1868C65.4475 92.58 68.4817 92.1582 70.5259 90.1126C71.4021 89.2356 71.8323 88.5632 72.1774 87.5312C72.404 86.8537 72.4378 86.8128 72.8888 86.6703C80.2929 84.3314 86.1119 78.5959 88.4646 71.3184C88.9783 69.7292 89.2009 68.7451 89.1126 68.4532C88.9111 67.7878 88.1553 67.4571 87.5504 67.7698C87.1349 67.9846 87.0675 68.112 86.8217 69.1463C86.1116 72.1338 84.4611 75.3583 82.3651 77.8532C80.1054 80.5431 77.0824 82.7143 73.7742 84.0238C73.1582 84.2676 72.6141 84.4671 72.5649 84.4671C72.5159 84.4671 72.4152 84.1738 72.3412 83.8153C72.1626 82.9505 71.5471 81.7776 70.8779 81.0269C70.5249 80.6307 70.386 80.4028 70.4808 80.3747C70.5608 80.3509 71.0203 80.1977 71.5018 80.0341C75.0771 78.8196 78.1892 76.3477 80.3318 73.0205C81.3069 71.5063 82.2326 69.14 82.6295 67.1467C82.9777 65.3979 82.9777 62.6078 82.6295 60.8591C81.4183 54.7769 77.1815 49.9054 71.3666 47.9085L70.3561 47.5615L70.8502 47.0119C71.5186 46.2684 72.059 45.2706 72.2896 44.3536C72.3948 43.9355 72.4933 43.5741 72.5085 43.5505C72.5617 43.4677 74.4677 44.2324 75.5509 44.7712C79.8185 46.8939 83.3269 50.4675 85.3536 54.7557C85.8999 55.9118 86.5366 57.6538 86.7632 58.6126C86.9485 59.397 87.3949 59.7824 88.0209 59.6985C88.5991 59.6209 88.9565 59.2198 88.9565 58.6485C88.9565 58.1159 88.2321 55.8439 87.6051 54.4105C87.3392 53.8025 86.8089 52.7699 86.4266 52.116C83.5863 47.2565 78.9747 43.4434 73.7661 41.6474L72.4191 41.1829L72.1793 40.4731C71.8301 39.4392 71.3999 38.768 70.5259 37.8932C68.9053 36.2713 66.5614 35.6312 64.3575 36.2087ZM67.7536 38.5885C68.7655 39.0669 69.4001 39.686 69.8852 40.6679C70.28 41.467 70.298 41.5517 70.2977 42.6032C70.2975 43.6134 70.2689 43.7631 69.9465 44.4443C69.3094 45.7904 68.0877 46.7047 66.596 46.9519C64.7923 47.2508 62.8452 46.2391 62.0274 44.5781C61.014 42.5194 61.7036 40.0995 63.6618 38.8429C64.8313 38.0924 66.4865 37.9895 67.7536 38.5885ZM64.2555 41.5362C64.1221 41.562 63.8882 41.7314 63.7357 41.9127C63.3454 42.3765 63.3615 42.9115 63.7783 43.3282L64.0981 43.6481H65.9521C67.7909 43.6481 67.8082 43.6458 68.0836 43.3705C68.4543 42.9997 68.5299 42.6366 68.334 42.1677C68.0859 41.574 67.6824 41.4566 65.9515 41.4743C65.1521 41.4825 64.3889 41.5103 64.2555 41.5362ZM59.4717 43.8396C59.7545 45.1191 60.2802 46.1545 61.0765 47.0003L61.6053 47.5619L60.6988 47.8555C59.3902 48.2795 57.3195 49.3179 56.181 50.1212C54.9258 51.0068 52.9841 52.9459 52.1125 54.1841C51.2523 55.4061 50.3395 57.1932 49.8819 58.5514L49.5248 59.6114L48.9133 59.0632C48.229 58.45 46.7945 57.704 46.0833 57.5915C45.8261 57.5508 45.5918 57.4787 45.5626 57.4315C45.4788 57.2959 46.0252 55.8536 46.6593 54.5368C48.9962 49.6839 53.2666 45.8084 58.4244 43.8594C58.8758 43.6888 59.2812 43.5469 59.3252 43.5441C59.3692 43.5411 59.435 43.6741 59.4717 43.8396ZM68.9301 49.5027C70.2188 49.7871 71.2934 50.1723 72.5961 50.8167C76.0468 52.524 78.86 55.8089 80.0223 59.4882C80.5328 61.1044 80.6865 62.169 80.6816 64.0576C80.6763 66.081 80.4461 67.4072 79.7987 69.1416C79.3015 70.4733 79.0644 70.9373 78.2416 72.1884C76.1425 75.3804 72.707 77.6901 68.8207 78.5225C67.506 78.8041 64.3323 78.8001 63.0206 78.5153C59.082 77.6598 55.633 75.2927 53.5157 71.9916C51.1776 68.346 50.5588 63.6644 51.8706 59.5432C53.6278 54.0225 58.2306 50.1883 64.1697 49.298C64.9055 49.1877 68.1309 49.3263 68.9301 49.5027ZM68.7659 56.2195C68.0453 56.4277 67.0979 56.8774 66.6473 57.2251C66.0428 57.6915 65.1763 58.6041 64.9153 59.049L64.6437 59.5121L64.3068 59.3379C63.0737 58.7002 61.2606 58.4779 59.9018 58.7975C57.4568 59.3727 55.4806 61.3074 54.8688 63.7249C54.654 64.5736 54.6579 66.147 54.8771 66.9966C55.4592 69.2527 57.4451 71.24 59.706 71.8288C60.4398 72.0199 62.0002 72.0417 62.8238 71.8723C64.3019 71.5682 66.0673 70.3718 66.8732 69.1281C67.1113 68.7607 67.2793 68.6041 67.3935 68.6431C67.4862 68.6748 67.9315 68.8365 68.3829 69.0024C69.1064 69.2682 69.3593 69.3043 70.5169 69.3068C71.9125 69.3099 72.4429 69.1917 73.581 68.6244C76.2922 67.273 77.7787 64.0373 77.0313 61.1148C76.4061 58.6704 74.5432 56.7819 72.1628 56.1793C71.286 55.9574 69.6043 55.9773 68.7659 56.2195ZM72.1403 58.4707C73.0601 58.8487 73.6109 59.2651 74.139 59.9814C74.7913 60.8658 75.0037 61.5461 75.0037 62.7501C75.0037 63.6747 74.9762 63.7962 74.5923 64.573C73.4809 66.8218 70.8708 67.7958 68.7007 66.7718L68.0511 66.4651L68.0115 65.2067C67.9833 64.3068 67.9098 63.7759 67.7541 63.3439C67.4533 62.509 67.0281 61.6927 66.6763 61.2746C66.3851 60.9285 66.3832 60.9164 66.5617 60.542C66.8107 60.02 67.6746 59.118 68.2463 58.7829C68.9654 58.3614 69.5505 58.218 70.5716 58.2128C71.3105 58.209 71.6331 58.2621 72.1403 58.4707ZM46.4086 60.0277C47.3083 60.4538 48.01 61.1372 48.4866 62.0514C48.8313 62.7125 48.8478 62.7997 48.8484 63.9482C48.8489 65.074 48.8264 65.1994 48.5016 65.8853C48.0596 66.8182 47.3416 67.5362 46.4086 67.9782C45.7297 68.2997 45.5901 68.3255 44.5263 68.3255C43.507 68.3255 43.3061 68.2923 42.7476 68.0305C41.866 67.6174 40.9851 66.7492 40.5565 65.8714C40.2281 65.1984 40.2057 65.0776 40.2091 64.0029C40.2124 62.9966 40.2487 62.776 40.5017 62.2279C40.8405 61.4936 41.6425 60.597 42.3104 60.2055C43.0827 59.7529 43.6227 59.628 44.6904 59.6552C45.5396 59.6768 45.7764 59.7282 46.4086 60.0277ZM69.7971 60.4926C69.5628 60.7269 69.4773 60.9172 69.4773 61.2039C69.4773 61.5799 69.4618 61.5953 69.0858 61.5953C68.3145 61.5953 67.7895 62.537 68.1673 63.2429C68.3096 63.5088 68.8339 63.784 69.1982 63.784C69.4367 63.784 69.4773 63.8328 69.4773 64.1195C69.4773 64.5764 69.6391 64.8432 70.0428 65.052C70.7077 65.3959 71.5037 64.9738 71.6253 64.2128C71.6839 63.8469 71.7289 63.802 72.0947 63.7434C72.8511 63.6225 73.2489 62.8965 72.9287 62.2216C72.7394 61.8227 72.3784 61.5953 71.9344 61.5953C71.7347 61.5953 71.6659 61.5366 71.6659 61.3656C71.6659 60.9886 71.3461 60.4305 71.0537 60.2973C70.5747 60.079 70.1437 60.146 69.7971 60.4926ZM63.0754 61.1593C64.0004 61.513 65.1844 62.6982 65.5336 63.6199C66.4036 65.9168 65.4418 68.368 63.2659 69.3988C62.5751 69.726 62.4515 69.7482 61.3244 69.7478C60.216 69.7475 60.0687 69.7221 59.464 69.4269C58.6247 69.017 57.6785 68.071 57.268 67.2312C56.9722 66.6261 56.9471 66.48 56.9471 65.3708C56.9471 64.2835 56.9765 64.1042 57.2509 63.5181C57.8373 62.2661 58.737 61.4652 60.0399 61.0354C60.8787 60.7587 62.1652 60.8112 63.0754 61.1593ZM87.8529 62.885C87.545 63.1601 87.4841 63.2902 87.4841 63.6746C87.4841 64.4644 88.3081 64.996 88.9911 64.6467C89.9734 64.1443 89.7554 62.7613 88.6709 62.6159C88.2811 62.5636 88.1727 62.5993 87.8529 62.885ZM60.844 62.9519C60.5193 63.1318 60.2938 63.5253 60.2886 63.9208C60.2854 64.1694 60.2363 64.2217 60.0057 64.2217C59.0081 64.2217 58.4896 65.3982 59.182 66.0906C59.4163 66.3249 59.6066 66.4104 59.8933 66.4104C60.2694 66.4104 60.2848 66.4259 60.2848 66.8019C60.2848 67.0886 60.3704 67.2789 60.6047 67.5132C61.3023 68.2108 62.4735 67.6956 62.4735 66.6912C62.4735 66.4632 62.5259 66.4104 62.7525 66.4104C63.3828 66.4104 63.8961 65.8961 63.8961 65.2647C63.8961 64.8531 63.3929 64.3408 62.9133 64.2641C62.5327 64.2033 62.492 64.1625 62.4311 63.7819C62.3083 63.0141 61.4971 62.5899 60.844 62.9519ZM42.4239 63.2257C42.1302 63.4881 42.0689 63.622 42.0689 64.0029C42.0689 64.3837 42.1302 64.5177 42.4239 64.7801L42.7788 65.0972H44.4682C46.3125 65.0972 46.635 65.0222 46.8873 64.5342C47.1803 63.9676 46.9772 63.282 46.4444 63.0393C46.2616 62.9559 45.5448 62.9085 44.4682 62.9085H42.7788L42.4239 63.2257ZM49.997 69.7482C50.4595 71.0394 51.3601 72.7674 52.1525 73.8842C52.9966 75.0738 54.9585 77.022 56.181 77.8846C57.3186 78.6873 59.3899 79.7263 60.6959 80.1492L61.5994 80.4419L61.0242 81.0638C60.3729 81.7679 59.8194 82.7933 59.5771 83.7449C59.4867 84.1001 59.3941 84.4093 59.3715 84.432C59.3487 84.4547 58.9839 84.3484 58.5609 84.1958C52.742 82.0968 47.8684 77.2327 45.7942 71.4539C45.6341 71.0078 45.5418 70.6112 45.5892 70.5725C45.6366 70.534 45.9216 70.4425 46.2225 70.3692C47.0755 70.1617 48.2434 69.541 48.9036 68.9444C49.3971 68.4984 49.518 68.4332 49.5749 68.5819C49.613 68.6816 49.803 69.2065 49.997 69.7482ZM66.7539 81.0761C68.1317 81.3355 69.3371 82.2739 69.9465 83.5615C70.2686 84.2419 70.2975 84.3931 70.2977 85.3973C70.298 86.4012 70.2691 86.5526 69.9486 87.2293C68.8087 89.6354 65.8273 90.5525 63.6619 89.1629C60.3546 87.0405 61.1034 82.1572 64.8925 81.1384C65.6129 80.9446 65.9885 80.932 66.7539 81.0761ZM63.7783 84.6775C63.3416 85.1142 63.3414 85.6458 63.7776 86.1342L64.0967 86.4916L65.7278 86.5286C67.6623 86.5725 68.0726 86.4638 68.334 85.8381C68.5299 85.3691 68.4543 85.006 68.0836 84.6353C67.8082 84.3599 67.7909 84.3576 65.9521 84.3576H64.0981L63.7783 84.6775Z" fill="white"/>
<path fill-rule="evenodd" clip-rule="evenodd" d="M64 124.179C97.236 124.179 124.179 97.236 124.179 64C124.179 30.764 97.236 3.8209 64 3.8209C30.764 3.8209 3.8209 30.764 3.8209 64C3.8209 97.236 30.764 124.179 64 124.179ZM64 128C99.3462 128 128 99.3462 128 64C128 28.6538 99.3462 0 64 0C28.6538 0 0 28.6538 0 64C0 99.3462 28.6538 128 64 128Z" fill="white"/>
<path fill-rule="evenodd" clip-rule="evenodd" d="M64 105.348C86.3834 105.348 104.529 87.2022 104.529 64.8188C104.529 42.4353 86.3834 24.29 64 24.29C41.6166 24.29 23.4712 42.4353 23.4712 64.8188C23.4712 87.2022 41.6166 105.348 64 105.348ZM64 107.258C87.4385 107.258 106.439 88.2573 106.439 64.8188C106.439 41.3802 87.4385 22.3795 64 22.3795C40.5615 22.3795 21.5608 41.3802 21.5608 64.8188C21.5608 88.2573 40.5615 107.258 64 107.258Z" fill="white"/>
<path d="M112.819 89.4336L105.643 86.0363L106.362 84.5191L113.538 87.9164L112.819 89.4336ZM114.124 88.4726L115.366 89.9701L114.713 91.3507L113.624 89.5272L114.124 88.4726Z" fill="white"/>
<path d="M103.694 96.8003C102.976 96.3166 102.457 95.7689 102.137 95.1574C101.815 94.548 101.679 93.9201 101.728 93.2738C101.777 92.631 101.998 92.0192 102.389 91.4383C102.783 90.8532 103.27 90.4175 103.849 90.1315C104.428 89.8454 105.061 89.737 105.746 89.8062C106.432 89.8755 107.133 90.1512 107.849 90.6335C108.567 91.1172 109.087 91.6638 109.408 92.2732C109.73 92.8826 109.866 93.5087 109.817 94.1514C109.769 94.7956 109.548 95.4103 109.154 95.9955C108.763 96.5764 108.277 97.0098 107.698 97.2959C107.12 97.5856 106.488 97.6958 105.802 97.6266C105.115 97.5594 104.412 97.284 103.694 96.8003ZM104.645 95.3888C105.11 95.7022 105.55 95.8968 105.963 95.9726C106.375 96.0505 106.747 96.0197 107.081 95.8801C107.415 95.7405 107.696 95.5025 107.922 95.1659C108.149 94.8294 108.264 94.4802 108.268 94.1182C108.272 93.7562 108.161 93.398 107.936 93.0435C107.709 92.6912 107.363 92.3583 106.898 92.045C106.433 91.7317 105.994 91.536 105.582 91.458C105.169 91.3822 104.796 91.4141 104.462 91.5537C104.128 91.6933 103.847 91.9314 103.621 92.2679C103.394 92.6044 103.279 92.9537 103.275 93.3156C103.271 93.6776 103.382 94.0348 103.609 94.3871C103.835 94.7416 104.18 95.0755 104.645 95.3888Z" fill="white"/>
<path d="M99.604 106.828L94.0368 101.168L95.0705 100.151L101.037 101.292L101.079 101.251L97.5747 97.6881L98.7715 96.511L104.339 102.172L103.288 103.205L97.3438 102.048L97.294 102.097L100.795 105.657L99.604 106.828Z" fill="white"/>
<path d="M91.5367 109.92C91.7365 110.163 91.9823 110.29 92.274 110.303C92.5658 110.316 92.8792 110.211 93.2142 109.986C93.4418 109.834 93.6124 109.673 93.726 109.504C93.8411 109.336 93.9031 109.169 93.912 109.001C93.9189 108.835 93.8748 108.681 93.7799 108.539C93.7051 108.418 93.6113 108.331 93.4987 108.279C93.3839 108.229 93.2566 108.204 93.1168 108.204C92.9785 108.206 92.8302 108.226 92.6718 108.264C92.5149 108.304 92.3538 108.356 92.1883 108.42L91.5007 108.675C91.1698 108.803 90.8482 108.894 90.5358 108.948C90.2234 109.002 89.9266 109.009 89.6455 108.97C89.3645 108.932 89.1044 108.838 88.8654 108.69C88.6243 108.544 88.4106 108.334 88.2243 108.061C87.9561 107.655 87.8247 107.236 87.8303 106.803C87.8351 106.374 87.9739 105.95 88.2469 105.531C88.5191 105.115 88.9236 104.727 89.4604 104.368C89.993 104.011 90.5115 103.782 91.0159 103.681C91.5182 103.581 91.987 103.617 92.4225 103.788C92.8573 103.964 93.2389 104.285 93.5675 104.753L92.2179 105.656C92.0547 105.445 91.8677 105.303 91.6568 105.23C91.4452 105.16 91.2197 105.151 90.9804 105.202C90.7404 105.257 90.5002 105.365 90.2597 105.526C90.0234 105.684 89.8414 105.856 89.7135 106.041C89.5834 106.228 89.5111 106.415 89.4964 106.602C89.4818 106.789 89.5276 106.962 89.6341 107.121C89.7333 107.269 89.8607 107.364 90.0164 107.406C90.1699 107.45 90.3541 107.451 90.569 107.409C90.7818 107.369 91.0279 107.298 91.3072 107.195L92.1463 106.894C92.7931 106.657 93.3739 106.574 93.8887 106.646C94.4036 106.718 94.8231 106.999 95.1475 107.488C95.4171 107.886 95.5445 108.306 95.5297 108.748C95.5127 109.192 95.3714 109.624 95.1056 110.045C94.8399 110.465 94.4665 110.837 93.9855 111.159C93.4959 111.487 93.0125 111.689 92.5352 111.766C92.0558 111.845 91.6142 111.803 91.2103 111.641C90.8064 111.479 90.4696 111.204 90.2 110.815L91.5367 109.92Z" fill="white"/>
<path d="M77.4027 118.667L74.909 111.129L76.2855 110.674L81.1344 114.333L81.1896 114.315L79.6201 109.571L81.2138 109.043L83.7075 116.581L82.3089 117.044L77.487 113.38L77.4207 113.402L78.989 118.142L77.4027 118.667Z" fill="white"/>
<path d="M72.3109 111.686L73.4041 119.55L68.1052 120.287L67.9146 118.916L71.5509 118.411L71.2904 116.537L67.9267 117.004L67.7362 115.634L71.0998 115.166L70.8388 113.288L67.1872 113.796L66.9966 112.425L72.3109 111.686Z" fill="white"/>
<path d="M58.9322 117.751C58.9777 117.942 59.0462 118.112 59.1377 118.261C59.229 118.413 59.3433 118.542 59.4807 118.649C59.6154 118.759 59.7718 118.845 59.95 118.908C60.1257 118.97 60.3219 119.006 60.5388 119.016C60.9441 119.035 61.305 118.951 61.6215 118.763C61.9355 118.576 62.1865 118.294 62.3746 117.917C62.5626 117.543 62.6693 117.079 62.6948 116.527C62.7202 115.974 62.6579 115.501 62.5079 115.106C62.358 114.711 62.1341 114.404 61.8362 114.186C61.5383 113.971 61.1802 113.853 60.7619 113.834C60.3824 113.816 60.0553 113.869 59.7806 113.991C59.5033 114.115 59.2879 114.298 59.1344 114.539C58.9785 114.78 58.8927 115.07 58.8771 115.408L58.5386 115.342L60.5834 115.436L60.5252 116.699L57.2064 116.546L57.2524 115.547C57.2845 114.85 57.4593 114.257 57.7766 113.77C58.0939 113.285 58.517 112.919 59.0458 112.672C59.5745 112.427 60.1719 112.32 60.838 112.351C61.5815 112.385 62.2272 112.579 62.7749 112.933C63.3225 113.29 63.7398 113.778 64.0268 114.4C64.3112 115.023 64.4341 115.753 64.3955 116.59C64.3659 117.233 64.2466 117.801 64.0375 118.296C63.8258 118.794 63.5427 119.21 63.1883 119.546C62.8339 119.881 62.4279 120.13 61.9702 120.293C61.5126 120.456 61.0217 120.525 60.4976 120.501C60.0484 120.48 59.6332 120.395 59.252 120.245C58.8706 120.098 58.5357 119.899 58.2472 119.648C57.956 119.397 57.7225 119.103 57.5466 118.766C57.3705 118.432 57.2644 118.067 57.2282 117.672L58.9322 117.751Z" fill="white"/>
<path d="M53.5941 111.598L55.3395 112.033L50.7609 119.075L48.6618 118.552L47.9251 110.186L49.6705 110.621L50.1198 117.045L50.18 117.06L53.5941 111.598ZM52.9488 114.654L48.8259 113.627L49.1427 112.355L53.2656 113.382L52.9488 114.654Z" fill="white"/>
<path d="M43.5204 115.507L42.9422 116.764L37.018 114.04L37.5963 112.782L39.8046 113.798L42.5438 107.842L44.0513 108.535L41.3121 114.491L43.5204 115.507Z" fill="white"/>
<path d="M32.6898 111.371L36.9595 104.677L38.3747 105.58L34.1051 112.274L32.6898 111.371Z" fill="white"/>
<path d="M28.3593 108.256L30.8527 102.438L30.797 102.39L25.3973 105.695L23.9896 104.478L31.2526 100.262L32.889 101.677L29.7699 109.476L28.3593 108.256Z" fill="white"/>
<path d="M20.1718 93.6088C20.8574 93.08 21.5409 92.7601 22.2222 92.649C22.902 92.5359 23.5409 92.6046 24.1387 92.855C24.733 93.1049 25.244 93.5071 25.6718 94.0617C26.1027 94.6204 26.3626 95.2196 26.4514 95.8594C26.5401 96.4992 26.4435 97.1335 26.1615 97.7623C25.8795 98.3911 25.3967 98.9692 24.7132 99.4964C24.0277 100.025 23.345 100.346 22.6652 100.459C21.9854 100.572 21.3484 100.504 20.7541 100.254C20.1578 100.006 19.6442 99.6022 19.2133 99.0435C18.7855 98.4889 18.5272 97.8917 18.4384 97.2519C18.346 96.6116 18.4408 95.9771 18.7229 95.3483C19.0033 94.7175 19.4863 94.1376 20.1718 93.6088ZM21.2113 94.9564C20.7672 95.2989 20.444 95.6543 20.2417 96.0225C20.0378 96.3887 19.9494 96.7523 19.9765 97.1132C20.0037 97.4742 20.1411 97.8154 20.3889 98.1366C20.6368 98.4579 20.9318 98.6775 21.2741 98.7954C21.6163 98.9133 21.9912 98.9211 22.3987 98.819C22.8047 98.7147 23.2297 98.4913 23.6738 98.1488C24.1178 97.8063 24.4418 97.4519 24.6457 97.0857C24.848 96.7175 24.9356 96.3529 24.9085 95.992C24.8814 95.631 24.7439 95.2899 24.4961 94.9686C24.2483 94.6473 23.9532 94.4277 23.611 94.3098C23.2687 94.1919 22.8946 94.1851 22.4887 94.2893C22.0812 94.3915 21.6554 94.6139 21.2113 94.9564Z" fill="white"/>
<path d="M15.0316 87.6888C14.7659 87.8566 14.6084 88.0844 14.5589 88.3723C14.5095 88.6601 14.5751 88.9843 14.7557 89.3447C14.8784 89.5897 15.0167 89.7791 15.1705 89.913C15.322 90.0481 15.4805 90.1306 15.6458 90.1606C15.8099 90.1882 15.9682 90.1637 16.1207 90.0873C16.2501 90.0283 16.3477 89.9461 16.4135 89.8409C16.4782 89.7334 16.5191 89.6102 16.5363 89.4715C16.5512 89.334 16.5499 89.1843 16.5325 89.0225C16.5127 88.8618 16.4813 88.6954 16.4384 88.5232L16.2714 87.8091C16.1855 87.4647 16.1355 87.1342 16.1214 86.8175C16.1073 86.5009 16.1371 86.2055 16.2108 85.9315C16.2845 85.6575 16.4097 85.4112 16.5864 85.1926C16.7619 84.9717 16.9969 84.786 17.2915 84.6355C17.7271 84.4202 18.1593 84.3423 18.5882 84.4021C19.0135 84.4607 19.4171 84.6516 19.7988 84.9749C20.177 85.297 20.5109 85.747 20.8003 86.3246C21.0874 86.8977 21.2497 87.4407 21.2871 87.9539C21.3234 88.4647 21.229 88.9254 21.004 89.3359C20.7755 89.7453 20.4088 90.0837 19.904 90.3511L19.1763 88.8988C19.4062 88.7634 19.5707 88.5957 19.67 88.3956C19.7657 88.1945 19.8031 87.9719 19.7821 87.7281C19.7576 87.4831 19.6805 87.2311 19.5508 86.9724C19.4235 86.7182 19.2759 86.5161 19.1082 86.3659C18.9393 86.2135 18.763 86.1183 18.5792 86.0803C18.3954 86.0423 18.218 86.0662 18.047 86.1519C17.8876 86.2318 17.7773 86.3463 17.7162 86.4954C17.6539 86.6423 17.6297 86.8249 17.6438 87.0433C17.6567 87.2595 17.6968 87.5126 17.7641 87.8026L17.9573 88.6728C18.1116 89.3442 18.1207 89.9307 17.9848 90.4325C17.8488 90.9342 17.518 91.3153 16.9923 91.5759C16.5637 91.7935 16.1309 91.8673 15.694 91.7971C15.2559 91.7247 14.8448 91.5303 14.4608 91.2139C14.0768 90.8976 13.7551 90.4806 13.4958 89.963C13.2318 89.4362 13.0915 88.9312 13.0749 88.4481C13.0572 87.9627 13.1539 87.5297 13.3651 87.1493C13.5763 86.7689 13.8915 86.4692 14.3109 86.2504L15.0316 87.6888Z" fill="white"/>
<path d="M14.5712 66.94L14.6682 65.4397L13.4121 66.281L12.8926 65.3661L14.2456 64.707L12.8926 64.048L13.4121 63.1331L14.6682 63.9743L14.5712 62.474H15.6141L15.5133 63.9743L16.7693 63.1331L17.2888 64.048L15.9397 64.707L17.2888 65.3661L16.7693 66.281L15.5133 65.4397L15.6141 66.94H14.5712Z" fill="white"/>
<path d="M14.3762 41.0352L21.5627 44.4102L20.8492 45.9296L13.6627 42.5547L14.3762 41.0352ZM13.075 42.0003L11.8278 40.5066L12.477 39.124L13.571 40.9441L13.075 42.0003Z" fill="white"/>
<path d="M23.4784 33.6402C24.198 34.1217 24.7189 34.6677 25.0411 35.2782C25.3648 35.8867 25.5031 36.5141 25.4561 37.1606C25.4084 37.8035 25.1898 38.416 24.8003 38.9981C24.408 39.5844 23.9226 40.0216 23.3444 40.3095C22.7662 40.5974 22.1341 40.7077 21.4482 40.6406C20.7624 40.5735 20.0607 40.2999 19.3433 39.8198C18.6237 39.3383 18.1021 38.7934 17.7785 38.185C17.4548 37.5766 17.3168 36.9509 17.3645 36.308C17.41 35.6637 17.629 35.0483 18.0214 34.462C18.4109 33.8799 18.8948 33.4449 19.473 33.157C20.0505 32.8655 20.6822 32.7533 21.3681 32.8205C22.0554 32.8854 22.7588 33.1587 23.4784 33.6402ZM22.5319 35.0546C22.0658 34.7427 21.6261 34.5495 21.2126 34.4749C20.8006 34.3983 20.4278 34.4302 20.0942 34.5709C19.7606 34.7115 19.481 34.9504 19.2554 35.2877C19.0297 35.6249 18.9155 35.9745 18.9127 36.3365C18.91 36.6985 19.0219 37.0564 19.2485 37.4101C19.4766 37.7618 19.8237 38.0935 20.2898 38.4054C20.7559 38.7173 21.1949 38.9116 21.607 38.9883C22.0204 39.0628 22.394 39.0298 22.7275 38.8891C23.0611 38.7485 23.3407 38.5096 23.5663 38.1723C23.792 37.8351 23.9062 37.4855 23.909 37.1235C23.9117 36.7615 23.7991 36.4047 23.571 36.0531C23.3444 35.6993 22.9981 35.3665 22.5319 35.0546Z" fill="white"/>
<path d="M27.5376 23.5997L33.1223 29.2429L32.0918 30.2628L26.1216 29.1407L26.0802 29.1816L29.5953 32.7334L28.4021 33.9142L22.8174 28.2709L23.8645 27.2347L29.8126 28.3731L29.8622 28.3241L26.3499 24.775L27.5376 23.5997Z" fill="white"/>
<path d="M35.5951 20.4827C35.3946 20.2407 35.1484 20.1137 34.8566 20.1016C34.5648 20.0895 34.2518 20.1962 33.9175 20.4216C33.6903 20.5747 33.5202 20.7362 33.4071 20.906C33.2926 21.0736 33.2311 21.2413 33.2227 21.4091C33.2164 21.5754 33.2609 21.7293 33.3563 21.8707C33.4315 21.9914 33.5255 22.0777 33.6383 22.1294C33.7532 22.1797 33.8806 22.2045 34.0204 22.2038C34.1587 22.2009 34.307 22.1804 34.4652 22.1423C34.622 22.102 34.783 22.0496 34.9482 21.9849L35.635 21.7276C35.9655 21.5982 36.2869 21.5062 36.5991 21.4516C36.9114 21.3969 37.2081 21.3885 37.4893 21.4265C37.7705 21.4644 38.0308 21.557 38.2703 21.7041C38.5119 21.8498 38.7262 22.059 38.9133 22.3319C39.1828 22.7362 39.3155 23.1548 39.3113 23.5878C39.3078 24.0172 39.1702 24.4419 38.8986 24.8619C38.6277 25.2784 38.2244 25.6672 37.6887 26.0285C37.1572 26.3868 36.6395 26.6174 36.1354 26.7204C35.6334 26.822 35.1644 26.7875 34.7284 26.6171C34.2931 26.443 33.9105 26.1228 33.5804 25.6565L34.9272 24.7484C35.091 24.959 35.2785 25.1006 35.4896 25.1734C35.7015 25.2425 35.9269 25.251 36.1661 25.1988C36.4059 25.1431 36.6458 25.0343 36.8858 24.8725C37.1216 24.7136 37.3031 24.5413 37.4304 24.3557C37.5599 24.1686 37.6317 23.9815 37.6458 23.7944C37.6598 23.6072 37.6134 23.4343 37.5065 23.2758C37.4068 23.1279 37.2791 23.0332 37.1233 22.9918C36.9697 22.9488 36.7854 22.9484 36.5706 22.9904C36.3579 23.0309 36.1121 23.1032 35.8331 23.2071L34.9949 23.5104C34.3489 23.7496 33.7684 23.834 33.2533 23.7636C32.7383 23.6932 32.3178 23.4141 31.992 22.9262C31.7211 22.5291 31.5924 22.1093 31.6058 21.667C31.6214 21.2232 31.7614 20.7906 32.0259 20.3691C32.2903 19.9477 32.6626 19.5751 33.1426 19.2515C33.6311 18.9221 34.1139 18.7181 34.5909 18.6396C35.07 18.5597 35.5118 18.6 35.9162 18.7606C36.3206 18.9212 36.6582 19.1954 36.9291 19.5832L35.5951 20.4827Z" fill="white"/>
<path d="M49.702 11.6919L52.219 19.2219L50.8439 19.6816L45.9837 16.0373L45.9286 16.0558L47.5128 20.7951L45.9208 21.3273L43.4037 13.7973L44.8009 13.3303L49.6341 16.9794L49.7003 16.9573L48.1173 12.2217L49.702 11.6919Z" fill="white"/>
<path d="M54.8155 18.6567L53.6979 10.7962L58.9945 10.0431L59.1893 11.4133L55.5546 11.9301L55.8209 13.8031L59.1831 13.3251L59.3779 14.6953L56.0157 15.1733L56.2826 17.0502L59.9326 16.5312L60.1275 17.9014L54.8155 18.6567Z" fill="white"/>
<path d="M68.1752 12.5507C68.1291 12.3599 68.0601 12.1901 67.9682 12.0413C67.8764 11.8899 67.7616 11.7608 67.6239 11.654C67.4889 11.5447 67.3322 11.4591 67.1538 11.3971C66.978 11.3352 66.7816 11.2996 66.5647 11.2903C66.1593 11.2729 65.7987 11.3583 65.4827 11.5465C65.1694 11.7348 64.9193 12.0177 64.7323 12.3951C64.5455 12.77 64.4402 13.2337 64.4165 13.7862C64.3928 14.3388 64.4565 14.8123 64.6077 15.2069C64.7589 15.6014 64.9838 15.9072 65.2823 16.1244C65.5809 16.339 65.9393 16.4553 66.3577 16.4733C66.7372 16.4896 67.0642 16.4363 67.3385 16.3136C67.6155 16.1884 67.8303 16.0049 67.9829 15.7631C68.1382 15.5215 68.2231 15.2315 68.2376 14.8932L68.5763 14.9582L66.5312 14.8704L66.5855 13.6078L69.9048 13.7503L69.8618 14.7496C69.8319 15.4467 69.659 16.0395 69.3431 16.5277C69.0274 17.0135 68.6055 17.3808 68.0774 17.6297C67.5495 17.8761 66.9524 17.985 66.2862 17.9564C65.5426 17.9244 64.8963 17.7324 64.3475 17.3803C63.7988 17.0256 63.38 16.5381 63.091 15.9178C62.8047 15.295 62.6796 14.5653 62.7155 13.7287C62.7431 13.0858 62.8607 12.5165 63.0682 12.021C63.2784 11.523 63.5602 11.1057 63.9136 10.7691C64.2669 10.4324 64.6721 10.1821 65.1293 10.018C65.5865 9.854 66.0771 9.78324 66.6013 9.80575C67.0506 9.82504 67.466 9.90885 67.8477 10.0572C68.2295 10.2029 68.565 10.401 68.8543 10.6514C69.1462 10.9019 69.3807 11.1953 69.5577 11.5314C69.7348 11.8649 69.842 12.2291 69.8794 12.6239L68.1752 12.5507Z" fill="white"/>
<path d="M73.5325 18.6866L71.7857 18.2572L76.3424 11.2014L78.4431 11.7177L79.2059 20.081L77.4591 19.6517L76.9898 13.2288L76.9296 13.214L73.5325 18.6866ZM74.1682 15.6292L78.2943 16.6433L77.9815 17.9158L73.8555 16.9016L74.1682 15.6292Z" fill="white"/>
<path d="M83.5939 14.7466L84.1682 13.4874L90.1008 16.1936L89.5264 17.4528L87.3149 16.444L84.5943 22.4083L83.0847 21.7197L85.8054 15.7554L83.5939 14.7466Z" fill="white"/>
<path d="M94.4372 18.8491L90.1884 25.5561L88.7704 24.6578L93.0192 17.9508L94.4372 18.8491Z" fill="white"/>
<path d="M98.7775 21.9503L96.3021 27.7763L96.358 27.8243L101.747 24.5019L103.159 25.7145L95.909 29.9532L94.2682 28.5435L97.3631 20.7352L98.7775 21.9503Z" fill="white"/>
<path d="M107.01 36.5721C106.326 37.1031 105.644 37.4251 104.963 37.5383C104.284 37.6535 103.644 37.5868 103.046 37.3383C102.451 37.0903 101.939 36.6896 101.509 36.1363C101.076 35.579 100.815 34.9806 100.724 34.3411C100.633 33.7015 100.728 33.0669 101.008 32.4373C101.288 31.8076 101.769 31.2281 102.451 30.6987C103.135 30.1678 103.816 29.8447 104.496 29.7295C105.175 29.6143 105.812 29.6807 106.407 29.9288C107.005 30.1753 107.519 30.5772 107.952 31.1345C108.382 31.6878 108.642 32.2842 108.732 32.9237C108.827 33.5637 108.734 34.1985 108.454 34.8282C108.175 35.4599 107.694 36.0412 107.01 36.5721ZM105.967 35.2278C106.41 34.8839 106.732 34.5275 106.933 34.1587C107.136 33.7919 107.223 33.428 107.195 33.0671C107.167 32.7062 107.028 32.3655 106.779 32.045C106.53 31.7245 106.235 31.5058 105.892 31.389C105.549 31.2722 105.174 31.2655 104.767 31.369C104.362 31.4744 103.937 31.6991 103.494 32.0431C103.051 32.387 102.728 32.7423 102.526 33.1091C102.325 33.478 102.238 33.8428 102.266 34.2037C102.295 34.5646 102.433 34.9053 102.682 35.2258C102.931 35.5464 103.226 35.765 103.569 35.8819C103.912 35.9987 104.286 36.0043 104.691 35.8988C105.099 35.7954 105.524 35.5717 105.967 35.2278Z" fill="white"/>
<path d="M112.169 42.4762C112.434 42.3075 112.591 42.0792 112.64 41.7912C112.688 41.5032 112.622 41.1793 112.44 40.8194C112.316 40.5748 112.177 40.3858 112.023 40.2524C111.871 40.1177 111.713 40.0357 111.547 40.0063C111.383 39.9792 111.225 40.0041 111.072 40.081C110.943 40.1405 110.846 40.2229 110.78 40.3284C110.716 40.4361 110.676 40.5594 110.659 40.6981C110.644 40.8357 110.646 40.9854 110.664 41.1472C110.684 41.3077 110.716 41.474 110.76 41.6461L110.929 42.3597C111.016 42.7038 111.067 43.0342 111.082 43.3508C111.097 43.6674 111.068 43.9629 110.995 44.2371C110.922 44.5113 110.798 44.758 110.622 44.9771C110.447 45.1986 110.213 45.385 109.919 45.5365C109.484 45.7532 109.052 45.8323 108.623 45.7739C108.197 45.7167 107.793 45.527 107.41 45.2049C107.031 44.8839 106.696 44.435 106.405 43.8583C106.116 43.2861 105.952 42.7435 105.913 42.2305C105.875 41.7198 105.968 41.2588 106.192 40.8476C106.419 40.4376 106.784 40.098 107.288 39.829L108.021 41.279C107.791 41.4151 107.627 41.5834 107.529 41.7837C107.433 41.9852 107.397 42.2079 107.418 42.4517C107.444 42.6966 107.522 42.9483 107.652 43.2066C107.78 43.4604 107.928 43.6621 108.097 43.8117C108.266 43.9636 108.443 44.0582 108.626 44.0956C108.81 44.1331 108.988 44.1087 109.158 44.0225C109.318 43.9421 109.428 43.8272 109.488 43.6779C109.55 43.5308 109.574 43.3481 109.559 43.1297C109.545 42.9136 109.504 42.6607 109.436 42.3708L109.24 41.5013C109.084 40.8304 109.073 40.2438 109.207 39.7417C109.342 39.2395 109.671 38.8574 110.196 38.5952C110.624 38.3762 111.057 38.3011 111.494 38.3699C111.932 38.441 112.344 38.6341 112.729 38.9493C113.114 39.2644 113.437 39.6804 113.698 40.1972C113.963 40.7232 114.105 41.2277 114.123 41.7108C114.143 42.1961 114.047 42.6294 113.837 43.0105C113.627 43.3916 113.313 43.6922 112.894 43.9123L112.169 42.4762Z" fill="white"/>
<path d="M117.13 66.94L117.227 65.4397L115.971 66.281L115.452 65.3661L116.805 64.707L115.452 64.048L115.971 63.1331L117.227 63.9743L117.13 62.474H118.173L118.072 63.9743L119.328 63.1331L119.848 64.048L118.499 64.707L119.848 65.3661L119.328 66.281L118.072 65.4397L118.173 66.94H117.13Z" fill="white"/>
</svg>
