<svg width="134" height="32" viewBox="0 0 134 32" fill="none" xmlns="http://www.w3.org/2000/svg">
<path d="M6.27192 31.6384H0.268311V4.74576C0.268311 1.58192 1.81469 0 4.90746 0H20.9626C23.8128 0 25.8443 0.843691 27.0571 2.53107C28.3003 4.18832 28.9219 6.6742 28.9219 9.9887C28.9219 17.0396 26.4659 20.565 21.5538 20.565H18.3701V20.791L29.5587 31.6384H21.8267L11.5478 21.3785C10.5472 20.3239 10.0469 19.435 10.0469 18.7119V17.9887C10.0469 17.3258 10.2743 16.7985 10.7291 16.4068C11.2143 16.0151 11.8814 15.8192 12.7303 15.8192H18.9159C20.4623 15.8192 21.478 15.3522 21.9632 14.4181C22.4786 13.484 22.7364 12.0075 22.7364 9.9887C22.7364 8.06026 22.4332 6.70433 21.8267 5.92091C21.2506 5.13748 20.0529 4.74576 18.2337 4.74576H8.54601C7.63638 4.74576 7.02995 4.89642 6.72674 5.19774C6.42353 5.49906 6.27192 6.1017 6.27192 7.00565V31.6384Z" fill="#0A2A43"/>
<path d="M36.7164 0L46.2221 25.5367C46.2221 25.5669 46.2524 25.6422 46.313 25.7627C46.3737 25.8531 46.4192 25.9284 46.4495 25.9887C46.5101 26.0188 46.5708 26.064 46.6314 26.1243C46.7224 26.1846 46.8133 26.2147 46.9043 26.2147C46.9953 26.2147 47.0711 26.1846 47.1317 26.1243C47.2227 26.064 47.2833 26.0188 47.3136 25.9887C47.3743 25.9284 47.4349 25.8531 47.4956 25.7627C47.5562 25.6422 47.5865 25.5669 47.5865 25.5367L57.0922 0H63.5962L52.0438 28.565C51.1341 30.855 49.421 32 46.9043 32C44.3876 32 42.6745 30.855 41.7649 28.565L30.2125 0H36.7164Z" fill="#0A2A43"/>
<path d="M71.6077 31.6384H65.6041V4.74576C65.6041 1.58192 67.1505 0 70.2433 0H90.9375V4.74576H73.8818C72.9722 4.74576 72.3657 4.89642 72.0625 5.19774C71.7593 5.49906 71.6077 6.1017 71.6077 7.00565V13.2881H85.7071V18.0339H71.6077V31.6384Z" fill="#0A2A43"/>
<path d="M100.123 31.6384H94.1191V0H100.123V31.6384Z" fill="#0A2A43"/>
<path d="M121.27 31.6384H115.266V4.74576H102.85V0H133.732V4.74576H121.27V31.6384Z" fill="#0A2A43"/>
</svg>
