<svg width="250" height="60" viewBox="0 0 250 60" fill="none" xmlns="http://www.w3.org/2000/svg">
<path d="M11.6358 59.322H0.428589V8.89831C0.428589 2.9661 3.3153 0 9.08873 0H39.0596C44.3802 0 48.1726 1.58192 50.4367 4.74576C52.7573 7.85311 53.9177 12.5141 53.9177 18.7288C53.9177 31.9492 49.3329 38.5593 40.1633 38.5593H34.2201V38.9831L55.1063 59.322H40.6728L21.4846 40.0847C19.6167 38.1073 18.6828 36.4407 18.6828 35.0847V33.7288C18.6828 32.4859 19.1073 31.4972 19.9564 30.7627C20.862 30.0282 22.1072 29.661 23.6921 29.661H35.239C38.1257 29.661 40.0218 28.7853 40.9275 27.0339C41.8897 25.2825 42.3708 22.5141 42.3708 18.7288C42.3708 15.113 41.8048 12.5706 40.6728 11.1017C39.5973 9.63277 37.3615 8.89831 33.9654 8.89831H15.881C14.1829 8.89831 13.0509 9.18079 12.4849 9.74576C11.9188 10.3107 11.6358 11.4407 11.6358 13.1356V59.322Z" fill="white"/>
<path d="M68.468 0L86.2128 47.8814C86.2128 47.9379 86.2694 48.0791 86.3826 48.3051C86.4958 48.4746 86.5807 48.6158 86.6373 48.7288C86.7505 48.7853 86.8637 48.8701 86.9769 48.9831C87.1467 49.096 87.3165 49.1525 87.4863 49.1525C87.6562 49.1525 87.7977 49.096 87.9109 48.9831C88.0807 48.8701 88.1939 48.7853 88.2505 48.7288C88.3637 48.6158 88.4769 48.4746 88.5901 48.3051C88.7033 48.0791 88.7599 47.9379 88.7599 47.8814L106.505 0H118.646L97.0804 53.5593C95.3824 57.8531 92.1843 60 87.4863 60C82.7884 60 79.5903 57.8531 77.8923 53.5593L56.3268 0H68.468Z" fill="white"/>
<path d="M133.601 59.322H122.394V8.89831C122.394 2.9661 125.281 0 131.054 0H169.685V8.89831H137.847C136.149 8.89831 135.017 9.18079 134.45 9.74576C133.884 10.3107 133.601 11.4407 133.601 13.1356V24.9153H159.921V33.8136H133.601V59.322Z" fill="white"/>
<path d="M186.832 59.322H175.625V0H186.832V59.322Z" fill="white"/>
<path d="M226.308 59.322H215.101V8.89831H191.922V0H249.571V8.89831H226.308V59.322Z" fill="white"/>
</svg>
