<svg width="48" height="31" viewBox="0 0 48 31" fill="none" xmlns="http://www.w3.org/2000/svg">
<g clip-path="url(#clip0_935_41)">
<path fill-rule="evenodd" clip-rule="evenodd" d="M47.4701 15.0221C47.4701 23.3186 40.7444 30.0443 32.4479 30.0443C24.1514 30.0443 17.4258 23.3186 17.4258 15.0221C17.4258 6.72564 24.1514 0 32.4479 0C40.7444 0 47.4701 6.72564 47.4701 15.0221ZM43.089 15.0221C43.089 20.899 38.3248 25.6632 32.4479 25.6632C26.571 25.6632 21.8069 20.899 21.8069 15.0221C21.8069 9.14525 26.571 4.38109 32.4479 4.38109C38.3248 4.38109 43.089 9.14525 43.089 15.0221Z" fill="url(#paint0_linear_935_41)"/>
<path d="M23.0007 3.28548C20.6794 1.8161 17.9726 0.600586 15.0221 0.600586C6.72564 0.600586 0 7.32623 0 15.6227C0 23.9192 6.72564 30.6449 15.0221 30.6449C23.3186 30.6449 30.0443 23.9192 30.0443 15.6227C30.0443 11.8168 28.9848 8.67786 26.6516 6.03069C25.5222 6.84826 24.5212 7.84965 23.6901 8.99566C25.2699 10.8795 25.8654 12.9718 25.8654 15.6227C25.8654 21.6113 21.0107 26.466 15.0221 26.466C9.03358 26.466 4.17889 21.6113 4.17889 15.6227C4.17889 9.63416 9.03358 4.77947 15.0221 4.77947C16.8502 4.77947 18.5275 5.59672 20.0384 6.39559C20.8982 5.23806 21.8935 4.19259 23.0007 3.28548Z" fill="url(#paint1_linear_935_41)"/>
</g>
<defs>
<linearGradient id="paint0_linear_935_41" x1="44.2012" y1="2.5343" x2="24.0003" y2="28.2813" gradientUnits="userSpaceOnUse">
<stop stop-color="#30C330"/>
<stop offset="1" stop-color="#076807"/>
</linearGradient>
<linearGradient id="paint1_linear_935_41" x1="23.6872" y1="2.01979" x2="3.44958" y2="26.0038" gradientUnits="userSpaceOnUse">
<stop stop-color="#FFCA08"/>
<stop offset="1" stop-color="#FCDE7A"/>
</linearGradient>
<clipPath id="clip0_935_41">
<rect width="48" height="31" fill="white"/>
</clipPath>
</defs>
</svg>
