<svg width="279" height="46" viewBox="0 0 279 46" fill="none" xmlns="http://www.w3.org/2000/svg">
<path d="M1.53548 19.4411V0.47806H10.9639C14.9867 0.47806 18.0127 1.27483 20.0421 2.86836C22.0714 4.44419 23.0861 6.80793 23.0861 9.95959C23.0861 11.9426 22.6192 13.6424 21.6853 15.0589C20.7515 16.4754 19.3686 17.5643 17.5368 18.3256C15.723 19.0693 13.514 19.4411 10.91 19.4411H1.53548ZM11.0447 14.1028C12.7328 14.1028 13.981 13.7575 14.7891 13.067C15.6152 12.3764 16.0283 11.3229 16.0283 9.90647C16.0283 8.52541 15.6242 7.49846 14.8161 6.82564C14.0079 6.15281 12.7777 5.8164 11.1255 5.8164H8.37781V14.1028H11.0447Z" fill="white"/>
<path d="M26.9143 19.4411V0.47806H44.3165V5.33834H33.7028V7.46305H43.7777V12.2968H33.7028V14.5808H44.9899L44.4242 19.4411H26.9143Z" fill="white"/>
<path d="M60.6722 6.53349C60.4388 5.86066 60.0706 5.3826 59.5677 5.09931C59.0829 4.81601 58.3825 4.67437 57.4666 4.67437C56.5507 4.67437 55.8413 4.7806 55.3384 4.99307C54.8535 5.18784 54.6111 5.47999 54.6111 5.86952C54.6111 6.15281 54.7188 6.36528 54.9344 6.50693C55.1678 6.64858 55.5899 6.77252 56.2005 6.87875L60.5645 7.59584C63.1685 8.02079 65.0272 8.70246 66.1407 9.64088C67.2721 10.5616 67.8378 11.8807 67.8378 13.5982C67.8378 17.8122 64.4346 19.9192 57.6282 19.9192C51.163 19.9192 47.7239 17.6263 47.3108 13.0404H54.1262C54.4135 14.51 55.5899 15.2448 57.6551 15.2448C59.8641 15.2448 60.9685 14.7756 60.9685 13.8372C60.9685 13.5362 60.8159 13.306 60.5106 13.1467C60.2232 12.9696 59.7563 12.8279 59.1098 12.7217L55.6348 12.1905C52.9768 11.7833 51.0103 11.0839 49.7353 10.0924C48.4602 9.08314 47.8226 7.73749 47.8226 6.05543C47.8226 4.16089 48.6936 2.68245 50.4357 1.62009C52.1956 0.540031 54.6291 0 57.7359 0C60.6273 0 62.8722 0.504619 64.4705 1.51386C66.0868 2.50539 67.0207 3.99269 67.2721 5.97575L60.6722 6.53349Z" fill="white"/>
<path d="M71.3846 19.4411V0.47806H78.3347V19.4411H71.3846Z" fill="white"/>
<path d="M98.0916 12.8811H94.428V8.18014H104.449V17.3695C101.63 19.0693 98.361 19.9192 94.6435 19.9192C90.6207 19.9192 87.5318 19.0693 85.3767 17.3695C83.2217 15.6697 82.1441 13.2352 82.1441 10.0658C82.1441 8.02964 82.5931 6.25905 83.4911 4.75404C84.407 3.23133 85.7449 2.06274 87.5049 1.24827C89.2648 0.416089 91.366 0 93.8084 0C96.6639 0 98.9896 0.56659 100.785 1.69977C102.581 2.83295 103.713 4.42648 104.18 6.48037L97.2027 7.06467C96.9692 6.40955 96.5831 5.94034 96.0443 5.65704C95.5055 5.37375 94.7154 5.2321 93.6737 5.2321C92.1652 5.2321 91.0428 5.62163 90.3064 6.40069C89.5701 7.16205 89.202 8.33064 89.202 9.90647C89.202 11.6062 89.615 12.8279 90.4411 13.5716C91.2672 14.3152 92.6411 14.6871 94.5627 14.6871C95.9814 14.6871 97.1578 14.5543 98.0916 14.2887V12.8811Z" fill="white"/>
<path d="M123.704 19.4411L115.245 9.45497V19.4411H108.699V0.47806H114.787L123.246 10.4642V0.47806H129.792V19.4411H123.704Z" fill="white"/>
<path d="M154.499 6.53349C154.265 5.86066 153.897 5.3826 153.394 5.09931C152.909 4.81601 152.209 4.67437 151.293 4.67437C150.377 4.67437 149.668 4.7806 149.165 4.99307C148.68 5.18784 148.437 5.47999 148.437 5.86952C148.437 6.15281 148.545 6.36528 148.761 6.50693C148.994 6.64858 149.416 6.77252 150.027 6.87875L154.391 7.59584C156.995 8.02079 158.854 8.70246 159.967 9.64088C161.098 10.5616 161.664 11.8807 161.664 13.5982C161.664 17.8122 158.261 19.9192 151.454 19.9192C144.989 19.9192 141.55 17.6263 141.137 13.0404H147.953C148.24 14.51 149.416 15.2448 151.481 15.2448C153.69 15.2448 154.795 14.7756 154.795 13.8372C154.795 13.5362 154.642 13.306 154.337 13.1467C154.05 12.9696 153.583 12.8279 152.936 12.7217L149.461 12.1905C146.803 11.7833 144.837 11.0839 143.562 10.0924C142.287 9.08314 141.649 7.73749 141.649 6.05543C141.649 4.16089 142.52 2.68245 144.262 1.62009C146.022 0.540031 148.455 0 151.562 0C154.454 0 156.698 0.504619 158.297 1.51386C159.913 2.50539 160.847 3.99269 161.098 5.97575L154.499 6.53349Z" fill="white"/>
<path d="M170.193 19.4411V12.4827L162.301 0.47806H169.709L173.749 7.1709L177.817 0.47806H185.036L177.144 12.4827V19.4411H170.193Z" fill="white"/>
<path d="M199.021 6.53349C198.788 5.86066 198.42 5.3826 197.917 5.09931C197.432 4.81601 196.732 4.67437 195.816 4.67437C194.9 4.67437 194.191 4.7806 193.688 4.99307C193.203 5.18784 192.96 5.47999 192.96 5.86952C192.96 6.15281 193.068 6.36528 193.284 6.50693C193.517 6.64858 193.939 6.77252 194.55 6.87875L198.914 7.59584C201.518 8.02079 203.376 8.70246 204.49 9.64088C205.621 10.5616 206.187 11.8807 206.187 13.5982C206.187 17.8122 202.784 19.9192 195.977 19.9192C189.512 19.9192 186.073 17.6263 185.66 13.0404H192.475C192.763 14.51 193.939 15.2448 196.004 15.2448C198.213 15.2448 199.318 14.7756 199.318 13.8372C199.318 13.5362 199.165 13.306 198.86 13.1467C198.572 12.9696 198.106 12.8279 197.459 12.7217L193.984 12.1905C191.326 11.7833 189.36 11.0839 188.085 10.0924C186.809 9.08314 186.172 7.73749 186.172 6.05543C186.172 4.16089 187.043 2.68245 188.785 1.62009C190.545 0.540031 192.978 0 196.085 0C198.977 0 201.221 0.504619 202.82 1.51386C204.436 2.50539 205.37 3.99269 205.621 5.97575L199.021 6.53349Z" fill="white"/>
<path d="M214.798 19.4411V5.97575H207.983V0.47806H228.564V5.97575H221.748V19.4411H214.798Z" fill="white"/>
<path d="M231.719 19.4411V0.47806H249.121V5.33834H238.508V7.46305H248.582V12.2968H238.508V14.5808H249.795L249.229 19.4411H231.719Z" fill="white"/>
<path d="M272.643 19.4411V10.1986L268.763 19.4411H263.78L259.901 10.1986V19.4411H253.678V0.47806H261.409L266.393 11.9781L271.376 0.47806H279V19.4411H272.643Z" fill="white"/>
<path d="M19.9074 46L15.0316 31.3395L10.1019 46H6.49213L0 27.037H3.7983L8.43169 41.9365L13.3883 27.1432H16.8364L21.82 41.9896L26.4804 27.037H30.144L23.6518 46H19.9074Z" fill="white"/>
<path d="M33.9753 46V27.037H49.6534V29.8788H37.3965V34.8187H49.0608V37.6605H37.3965V43.1582H50.246L49.7611 46H33.9753Z" fill="white"/>
<path d="M54.7767 46V27.037H70.4548V29.8788H58.1979V34.8187H69.8622V37.6605H58.1979V43.1582H71.0475L70.5626 46H54.7767Z" fill="white"/>
<path d="M90.5558 46L82.8245 36.067L78.9993 39.0416V46H75.5781V27.037H78.9993V35.6686L89.5591 27.037H93.7884L85.2759 34.1016L94.5966 46H90.5558Z" fill="white"/>
<path d="M98.3526 46V27.037H114.031V29.8788H101.774V34.8187H113.438V37.6605H101.774V43.1582H114.623L114.138 46H98.3526Z" fill="white"/>
<path d="M134.509 46L122.467 31.6848V46H119.154V27.037H122.333L134.374 41.3522V27.037H137.688V46H134.509Z" fill="white"/>
<path d="M143.507 46V27.037H151.858C155.432 27.037 158.161 27.8514 160.047 29.4804C161.951 31.1093 162.902 33.4553 162.902 36.5185C162.902 39.5639 161.897 41.9099 159.885 43.5566C157.874 45.1855 155.01 46 151.292 46H143.507ZM151.4 43.1582C154.04 43.1582 156.024 42.6005 157.353 41.485C158.7 40.3518 159.374 38.6963 159.374 36.5185C159.374 32.092 156.877 29.8788 151.885 29.8788H146.928V43.1582H151.4Z" fill="white"/>
</svg>
