<svg width="64" height="64" viewBox="0 0 64 64" fill="none" xmlns="http://www.w3.org/2000/svg">
<rect width="64" height="64" rx="8" fill="#0A2A43"/>
<path d="M11.7401 44.0903H7V22.7635C7 20.2545 8.22094 19 10.6628 19H23.339C25.5893 19 27.1933 19.6691 28.1509 21.0072C29.1324 22.3215 29.6232 24.2928 29.6232 26.9214C29.6232 32.5129 27.6841 35.3087 23.8058 35.3087H21.2921V35.4879L30.126 44.0903H24.0213L15.9056 35.9538C15.1156 35.1175 14.7206 34.4126 14.7206 33.8391V33.2656C14.7206 32.7399 14.9002 32.3217 15.2593 32.0111C15.6423 31.7004 16.169 31.5451 16.8393 31.5451H21.723C22.944 31.5451 23.746 31.1747 24.129 30.434C24.536 29.6932 24.7395 28.5223 24.7395 26.9214C24.7395 25.392 24.5001 24.3167 24.0213 23.6955C23.5664 23.0742 22.6208 22.7635 21.1844 22.7635H13.5356C12.8174 22.7635 12.3386 22.883 12.0992 23.122C11.8598 23.3609 11.7401 23.8388 11.7401 24.5557V44.0903Z" fill="#F3F1F1"/>
<path d="M35.7773 19L43.2824 39.2514C43.2824 39.2753 43.3064 39.3351 43.3543 39.4306C43.4021 39.5023 43.438 39.5621 43.462 39.6098C43.5099 39.6337 43.5577 39.6696 43.6056 39.7174C43.6774 39.7652 43.7493 39.7891 43.8211 39.7891C43.8929 39.7891 43.9527 39.7652 44.0006 39.7174C44.0724 39.6696 44.1203 39.6337 44.1443 39.6098C44.1921 39.5621 44.24 39.5023 44.2879 39.4306C44.3358 39.3351 44.3597 39.2753 44.3597 39.2514L51.8649 19H57L47.8789 41.6529C47.1607 43.469 45.8081 44.377 43.8211 44.377C41.8341 44.377 40.4815 43.469 39.7633 41.6529L30.6422 19H35.7773Z" fill="#F3F1F1"/>
</svg>
